M48
; DRILL file {KiCad 6.0.2+dfsg-1} date Sa 02 Dez 2023 18:14:23 CET
; FORMAT={-:-/ absolute / metric / decimal}
; #@! TF.CreationDate,2023-12-02T18:14:23+01:00
; #@! TF.GenerationSoftware,Kicad,Pcbnew,6.0.2+dfsg-1
; #@! TF.FileFunction,MixedPlating,1,2
FMAT,2
METRIC
; #@! TA.AperFunction,Plated,PTH,ViaDrill
T1C0.400
; #@! TA.AperFunction,Plated,PTH,ComponentDrill
T2C0.750
; #@! TA.AperFunction,Plated,PTH,ComponentDrill
T3C0.800
; #@! TA.AperFunction,Plated,PTH,ComponentDrill
T4C1.000
; #@! TA.AperFunction,Plated,PTH,ComponentDrill
T5C1.100
; #@! TA.AperFunction,Plated,PTH,ComponentDrill
T6C1.300
; #@! TA.AperFunction,NonPlated,NPTH,ComponentDrill
T7C2.500
; #@! TA.AperFunction,NonPlated,NPTH,ComponentDrill
T8C3.500
%
G90
G05
T1
X92.179Y-19.114
T2
X25.681Y-45.048
X25.681Y-46.318
X25.681Y-47.588
X64.543Y-48.908
X65.813Y-48.908
X67.083Y-48.908
T3
X34.0Y-46.0
X34.0Y-56.16
X66.067Y-33.999
X66.067Y-44.159
X80.241Y-38.571
X80.774Y-43.066
X90.401Y-38.571
X90.934Y-43.066
T4
X3.71Y-37.834
X3.71Y-40.374
X9.883Y-13.856
X9.883Y-31.636
X13.083Y-52.439
X13.083Y-54.979
X38.0Y-51.0
X38.0Y-53.54
X38.0Y-56.08
X43.0Y-51.0
X43.0Y-53.54
X43.0Y-56.08
X48.0Y-51.0
X48.0Y-53.54
X48.0Y-56.08
X50.523Y-13.856
X50.523Y-31.636
X79.631Y-11.164
X79.631Y-34.024
X82.171Y-11.164
X82.171Y-34.024
X83.0Y-49.0
X83.0Y-51.54
X83.0Y-54.08
X84.711Y-11.164
X84.711Y-34.024
X87.251Y-11.164
X87.251Y-34.024
X89.791Y-11.164
X89.791Y-34.024
X92.0Y-50.0
X92.0Y-52.54
X92.331Y-11.164
X92.331Y-34.024
X94.871Y-11.164
X94.871Y-34.024
X97.411Y-11.164
X97.411Y-34.024
T5
X9.222Y-37.58
X9.222Y-47.74
X18.849Y-44.87
X18.849Y-55.03
X59.768Y-13.907
X59.768Y-24.067
T6
X74.39Y-49.46
X74.39Y-52.0
X74.39Y-54.54
T7
X14.946Y-14.491
X45.462Y-31.033
T8
X5.0Y-5.0
X5.0Y-55.0
X55.0Y-5.0
X55.0Y-55.0
X105.0Y-5.0
X105.0Y-55.0
T0
M30
