%TF.GenerationSoftware,KiCad,Pcbnew,6.0.2+dfsg-1*%
%TF.CreationDate,2023-12-02T18:14:30+01:00*%
%TF.ProjectId,kicad_test_eurocard,6b696361-645f-4746-9573-745f6575726f,1.0*%
%TF.SameCoordinates,PX43b5fc0PY2ebae40*%
%TF.FileFunction,Copper,L1,Top*%
%TF.FilePolarity,Positive*%
%FSLAX46Y46*%
G04 Gerber Fmt 4.6, Leading zero omitted, Abs format (unit mm)*
G04 Created by KiCad (PCBNEW 6.0.2+dfsg-1) date 2023-12-02 18:14:30*
%MOMM*%
%LPD*%
G01*
G04 APERTURE LIST*
%TA.AperFunction,ComponentPad*%
%ADD10R,2.540000X2.540000*%
%TD*%
%TA.AperFunction,ComponentPad*%
%ADD11C,2.540000*%
%TD*%
%TA.AperFunction,ComponentPad*%
%ADD12O,1.600000X2.000000*%
%TD*%
%TA.AperFunction,ComponentPad*%
%ADD13R,2.000000X2.000000*%
%TD*%
%TA.AperFunction,ComponentPad*%
%ADD14R,2.200000X2.200000*%
%TD*%
%TA.AperFunction,ComponentPad*%
%ADD15O,2.200000X2.200000*%
%TD*%
%TA.AperFunction,ComponentPad*%
%ADD16R,1.700000X1.700000*%
%TD*%
%TA.AperFunction,ComponentPad*%
%ADD17O,1.700000X1.700000*%
%TD*%
%TA.AperFunction,ComponentPad*%
%ADD18R,1.050000X1.500000*%
%TD*%
%TA.AperFunction,ComponentPad*%
%ADD19O,1.050000X1.500000*%
%TD*%
%TA.AperFunction,ComponentPad*%
%ADD20R,1.500000X1.050000*%
%TD*%
%TA.AperFunction,ComponentPad*%
%ADD21O,1.500000X1.050000*%
%TD*%
%TA.AperFunction,ComponentPad*%
%ADD22C,2.000000*%
%TD*%
%TA.AperFunction,ComponentPad*%
%ADD23C,1.600000*%
%TD*%
%TA.AperFunction,ComponentPad*%
%ADD24O,1.600000X1.600000*%
%TD*%
%TA.AperFunction,ViaPad*%
%ADD25C,0.800000*%
%TD*%
%TA.AperFunction,Conductor*%
%ADD26C,0.500000*%
%TD*%
G04 APERTURE END LIST*
D10*
%TO.P,U2,1*%
%TO.N,+12V*%
X9882600Y-13856400D03*
D11*
%TO.P,U2,2*%
%TO.N,GND*%
X9882600Y-31636400D03*
%TO.P,U2,3*%
X50522600Y-31636400D03*
%TO.P,U2,4*%
%TO.N,Net-(D2-Pad2)*%
X50522600Y-13856400D03*
%TD*%
D12*
%TO.P,U3,16*%
%TO.N,Net-(U3-Pad16)*%
X97411000Y-34024000D03*
%TO.P,U3,15*%
%TO.N,Net-(U3-Pad15)*%
X94871000Y-34024000D03*
%TO.P,U3,14*%
%TO.N,Net-(R3-Pad2)*%
X92331000Y-34024000D03*
%TO.P,U3,13*%
%TO.N,Fensterkontakt*%
X89791000Y-34024000D03*
%TO.P,U3,12*%
%TO.N,Net-(U3-Pad12)*%
X87251000Y-34024000D03*
%TO.P,U3,11*%
%TO.N,Net-(R2-Pad2)*%
X84711000Y-34024000D03*
%TO.P,U3,10*%
%TO.N,GND*%
X82171000Y-34024000D03*
%TO.P,U3,9*%
%TO.N,Net-(D2-Pad1)*%
X79631000Y-34024000D03*
%TO.P,U3,8*%
%TO.N,+3V3*%
X79631000Y-11164000D03*
%TO.P,U3,7*%
%TO.N,Net-(U3-Pad7)*%
X82171000Y-11164000D03*
%TO.P,U3,6*%
%TO.N,Net-(U3-Pad6)*%
X84711000Y-11164000D03*
%TO.P,U3,5*%
%TO.N,Net-(U3-Pad5)*%
X87251000Y-11164000D03*
%TO.P,U3,4*%
%TO.N,OneWire*%
X89791000Y-11164000D03*
%TO.P,U3,3*%
%TO.N,Net-(U3-Pad3)*%
X92331000Y-11164000D03*
%TO.P,U3,2*%
%TO.N,Net-(U3-Pad2)*%
X94871000Y-11164000D03*
D13*
%TO.P,U3,1*%
%TO.N,Net-(U3-Pad1)*%
X97411000Y-11164000D03*
%TD*%
D14*
%TO.P,D2,1*%
%TO.N,Net-(D2-Pad1)*%
X59768200Y-24067200D03*
D15*
%TO.P,D2,2*%
%TO.N,Net-(D2-Pad2)*%
X59768200Y-13907200D03*
%TD*%
D14*
%TO.P,D3,1*%
%TO.N,+12V*%
X18848800Y-44869800D03*
D15*
%TO.P,D3,2*%
%TO.N,Stellventil-Relais*%
X18848800Y-55029800D03*
%TD*%
D14*
%TO.P,D4,1*%
%TO.N,+12V*%
X9222200Y-37580000D03*
D15*
%TO.P,D4,2*%
%TO.N,L\u00FCfter*%
X9222200Y-47740000D03*
%TD*%
D16*
%TO.P,J1,1*%
%TO.N,+3V3*%
X83000000Y-49000000D03*
D17*
%TO.P,J1,2*%
%TO.N,Fensterkontakt*%
X83000000Y-51540000D03*
%TO.P,J1,3*%
%TO.N,GND*%
X83000000Y-54080000D03*
%TD*%
D16*
%TO.P,J2,1*%
%TO.N,+12V*%
X3710400Y-37834000D03*
D17*
%TO.P,J2,2*%
%TO.N,L\u00FCfter*%
X3710400Y-40374000D03*
%TD*%
D16*
%TO.P,J3,1*%
%TO.N,+12V*%
X13083000Y-52439000D03*
D17*
%TO.P,J3,2*%
%TO.N,Stellventil-Relais*%
X13083000Y-54979000D03*
%TD*%
D16*
%TO.P,J4,1*%
%TO.N,+3V3*%
X48000000Y-51000000D03*
D17*
%TO.P,J4,2*%
%TO.N,OneWire*%
X48000000Y-53540000D03*
%TO.P,J4,3*%
%TO.N,GND*%
X48000000Y-56080000D03*
%TD*%
D16*
%TO.P,J5,1*%
%TO.N,+3V3*%
X43000000Y-51000000D03*
D17*
%TO.P,J5,2*%
%TO.N,OneWire*%
X43000000Y-53540000D03*
%TO.P,J5,3*%
%TO.N,GND*%
X43000000Y-56080000D03*
%TD*%
D16*
%TO.P,J6,1*%
%TO.N,+3V3*%
X38000000Y-51000000D03*
D17*
%TO.P,J6,2*%
%TO.N,OneWire*%
X38000000Y-53540000D03*
%TO.P,J6,3*%
%TO.N,GND*%
X38000000Y-56080000D03*
%TD*%
D16*
%TO.P,J7,1*%
%TO.N,+12V*%
X92000000Y-50000000D03*
D17*
%TO.P,J7,2*%
%TO.N,GND*%
X92000000Y-52540000D03*
%TD*%
D18*
%TO.P,Q2,1*%
%TO.N,Net-(Q2-Pad1)*%
X67083400Y-48908400D03*
D19*
%TO.P,Q2,2*%
%TO.N,Net-(Q2-Pad2)*%
X65813400Y-48908400D03*
%TO.P,Q2,3*%
%TO.N,GND*%
X64543400Y-48908400D03*
%TD*%
D20*
%TO.P,Q3,1*%
%TO.N,Stellventil-Relais*%
X25681400Y-47587600D03*
D21*
%TO.P,Q3,2*%
%TO.N,Net-(Q3-Pad2)*%
X25681400Y-46317600D03*
%TO.P,Q3,3*%
%TO.N,GND*%
X25681400Y-45047600D03*
%TD*%
D13*
%TO.P,Q4,1*%
%TO.N,Net-(Q2-Pad1)*%
X74390000Y-49460000D03*
D22*
%TO.P,Q4,2*%
%TO.N,L\u00FCfter*%
X74390000Y-52000000D03*
%TO.P,Q4,3*%
%TO.N,GND*%
X74390000Y-54540000D03*
%TD*%
D23*
%TO.P,R2,1*%
%TO.N,Net-(Q2-Pad2)*%
X66067400Y-44158600D03*
D24*
%TO.P,R2,2*%
%TO.N,Net-(R2-Pad2)*%
X66067400Y-33998600D03*
%TD*%
D23*
%TO.P,R3,1*%
%TO.N,Net-(Q3-Pad2)*%
X80240600Y-38570600D03*
D24*
%TO.P,R3,2*%
%TO.N,Net-(R3-Pad2)*%
X90400600Y-38570600D03*
%TD*%
D23*
%TO.P,R4,1*%
%TO.N,+12V*%
X90934000Y-43066400D03*
D24*
%TO.P,R4,2*%
%TO.N,Net-(Q2-Pad1)*%
X80774000Y-43066400D03*
%TD*%
D23*
%TO.P,R5,1*%
%TO.N,+3V3*%
X34000000Y-46000000D03*
D24*
%TO.P,R5,2*%
%TO.N,OneWire*%
X34000000Y-56160000D03*
%TD*%
D25*
%TO.N,GND*%
X92178600Y-19114200D03*
%TD*%
D26*
%TO.N,Stellventil-Relais*%
X18848800Y-55029800D02*
X20404434Y-55029800D01*
X25681400Y-48612600D02*
X25681400Y-47587600D01*
X20404434Y-55029800D02*
X25681400Y-49752834D01*
X25681400Y-49752834D02*
X25681400Y-48612600D01*
%TO.N,+12V*%
X3710400Y-18258600D02*
X3710400Y-36484000D01*
X82653600Y-36411600D02*
X68810600Y-36411600D01*
X92000000Y-50000000D02*
X92000000Y-44132400D01*
X90934000Y-41923400D02*
X90934000Y-43066400D01*
X13083000Y-49035600D02*
X13083000Y-51089000D01*
X92000000Y-44132400D02*
X90934000Y-43066400D01*
X91000000Y-41857400D02*
X90934000Y-41923400D01*
X9882600Y-13856400D02*
X8112600Y-13856400D01*
X8112600Y-13856400D02*
X3710400Y-18258600D01*
X91000000Y-42050400D02*
X91000000Y-41857400D01*
X20169800Y-41948800D02*
X18848800Y-43269800D01*
X18848800Y-44869800D02*
X17248800Y-44869800D01*
X3710400Y-37834000D02*
X8968200Y-37834000D01*
X91000000Y-42050400D02*
X89526400Y-40576800D01*
X89526400Y-40526400D02*
X86768400Y-40526400D01*
X3710400Y-36484000D02*
X3710400Y-37834000D01*
X9222200Y-37580000D02*
X13159000Y-37580000D01*
X17248800Y-44869800D02*
X13083000Y-49035600D01*
X13159000Y-37580000D02*
X18848800Y-43269800D01*
X18848800Y-43269800D02*
X18848800Y-44869800D01*
X86768400Y-40526400D02*
X82653600Y-36411600D01*
X13083000Y-51089000D02*
X13083000Y-52439000D01*
X63273400Y-41948800D02*
X20169800Y-41948800D01*
X68810600Y-36411600D02*
X63273400Y-41948800D01*
X8968200Y-37834000D02*
X9222200Y-37580000D01*
%TO.N,+3V3*%
X49709800Y-50640200D02*
X49350000Y-51000000D01*
X49709800Y-50640200D02*
X49756000Y-50640200D01*
X34000000Y-46000000D02*
X38000000Y-50000000D01*
X79072200Y-51577800D02*
X79072200Y-55461600D01*
X49350000Y-51000000D02*
X48000000Y-51000000D01*
X50294000Y-50102200D02*
X58396600Y-50102200D01*
X79072200Y-55461600D02*
X77014800Y-57519000D01*
X81650000Y-49000000D02*
X79072200Y-51577800D01*
X72950800Y-57519000D02*
X68404200Y-52972400D01*
X43000000Y-51000000D02*
X48000000Y-51000000D01*
X68404200Y-52972400D02*
X61266800Y-52972400D01*
X49756000Y-50640200D02*
X50294000Y-50102200D01*
X61266800Y-52972400D02*
X58396600Y-50102200D01*
X38000000Y-51000000D02*
X43000000Y-51000000D01*
X83000000Y-49000000D02*
X81650000Y-49000000D01*
X38000000Y-50000000D02*
X38000000Y-51000000D01*
X77014800Y-57519000D02*
X72950800Y-57519000D01*
%TD*%
%TA.AperFunction,Conductor*%
%TO.N,GND*%
G36*
X109434121Y-528002D02*
G01*
X109480614Y-581658D01*
X109492000Y-634000D01*
X109492000Y-8904400D01*
X109471998Y-8972521D01*
X109418342Y-9019014D01*
X109366000Y-9030400D01*
X98655600Y-9030400D01*
X98655600Y-9536414D01*
X98635598Y-9604535D01*
X98581942Y-9651028D01*
X98515993Y-9661677D01*
X98459134Y-9655500D01*
X96362866Y-9655500D01*
X96300684Y-9662255D01*
X96164295Y-9713385D01*
X96047739Y-9800739D01*
X95960385Y-9917295D01*
X95957233Y-9925704D01*
X95957231Y-9925707D01*
X95951210Y-9941768D01*
X95908569Y-9998533D01*
X95842008Y-10023234D01*
X95772659Y-10008027D01*
X95744133Y-9986635D01*
X95715300Y-9957802D01*
X95710792Y-9954645D01*
X95710789Y-9954643D01*
X95632611Y-9899902D01*
X95527749Y-9826477D01*
X95522767Y-9824154D01*
X95522762Y-9824151D01*
X95325225Y-9732039D01*
X95325224Y-9732039D01*
X95320243Y-9729716D01*
X95314935Y-9728294D01*
X95314933Y-9728293D01*
X95104402Y-9671881D01*
X95104400Y-9671881D01*
X95099087Y-9670457D01*
X94871000Y-9650502D01*
X94642913Y-9670457D01*
X94637600Y-9671881D01*
X94637598Y-9671881D01*
X94427067Y-9728293D01*
X94427065Y-9728294D01*
X94421757Y-9729716D01*
X94416776Y-9732039D01*
X94416775Y-9732039D01*
X94219238Y-9824151D01*
X94219233Y-9824154D01*
X94214251Y-9826477D01*
X94109389Y-9899902D01*
X94031211Y-9954643D01*
X94031208Y-9954645D01*
X94026700Y-9957802D01*
X93864802Y-10119700D01*
X93733477Y-10307251D01*
X93731154Y-10312233D01*
X93731151Y-10312238D01*
X93715195Y-10346457D01*
X93668278Y-10399742D01*
X93600001Y-10419203D01*
X93532041Y-10398661D01*
X93486805Y-10346457D01*
X93470849Y-10312238D01*
X93470846Y-10312233D01*
X93468523Y-10307251D01*
X93337198Y-10119700D01*
X93175300Y-9957802D01*
X93170792Y-9954645D01*
X93170789Y-9954643D01*
X93092611Y-9899902D01*
X92987749Y-9826477D01*
X92982767Y-9824154D01*
X92982762Y-9824151D01*
X92785225Y-9732039D01*
X92785224Y-9732039D01*
X92780243Y-9729716D01*
X92774935Y-9728294D01*
X92774933Y-9728293D01*
X92564402Y-9671881D01*
X92564400Y-9671881D01*
X92559087Y-9670457D01*
X92331000Y-9650502D01*
X92102913Y-9670457D01*
X92097600Y-9671881D01*
X92097598Y-9671881D01*
X91887067Y-9728293D01*
X91887065Y-9728294D01*
X91881757Y-9729716D01*
X91876776Y-9732039D01*
X91876775Y-9732039D01*
X91679238Y-9824151D01*
X91679233Y-9824154D01*
X91674251Y-9826477D01*
X91569389Y-9899902D01*
X91491211Y-9954643D01*
X91491208Y-9954645D01*
X91486700Y-9957802D01*
X91324802Y-10119700D01*
X91193477Y-10307251D01*
X91191154Y-10312233D01*
X91191151Y-10312238D01*
X91175195Y-10346457D01*
X91128278Y-10399742D01*
X91060001Y-10419203D01*
X90992041Y-10398661D01*
X90946805Y-10346457D01*
X90930849Y-10312238D01*
X90930846Y-10312233D01*
X90928523Y-10307251D01*
X90797198Y-10119700D01*
X90635300Y-9957802D01*
X90630792Y-9954645D01*
X90630789Y-9954643D01*
X90552611Y-9899902D01*
X90447749Y-9826477D01*
X90442767Y-9824154D01*
X90442762Y-9824151D01*
X90245225Y-9732039D01*
X90245224Y-9732039D01*
X90240243Y-9729716D01*
X90234935Y-9728294D01*
X90234933Y-9728293D01*
X90024402Y-9671881D01*
X90024400Y-9671881D01*
X90019087Y-9670457D01*
X89791000Y-9650502D01*
X89562913Y-9670457D01*
X89557600Y-9671881D01*
X89557598Y-9671881D01*
X89347067Y-9728293D01*
X89347065Y-9728294D01*
X89341757Y-9729716D01*
X89336776Y-9732039D01*
X89336775Y-9732039D01*
X89139238Y-9824151D01*
X89139233Y-9824154D01*
X89134251Y-9826477D01*
X89029389Y-9899902D01*
X88951211Y-9954643D01*
X88951208Y-9954645D01*
X88946700Y-9957802D01*
X88784802Y-10119700D01*
X88653477Y-10307251D01*
X88651154Y-10312233D01*
X88651151Y-10312238D01*
X88635195Y-10346457D01*
X88588278Y-10399742D01*
X88520001Y-10419203D01*
X88452041Y-10398661D01*
X88406805Y-10346457D01*
X88390849Y-10312238D01*
X88390846Y-10312233D01*
X88388523Y-10307251D01*
X88257198Y-10119700D01*
X88095300Y-9957802D01*
X88090792Y-9954645D01*
X88090789Y-9954643D01*
X88012611Y-9899902D01*
X87907749Y-9826477D01*
X87902767Y-9824154D01*
X87902762Y-9824151D01*
X87705225Y-9732039D01*
X87705224Y-9732039D01*
X87700243Y-9729716D01*
X87694935Y-9728294D01*
X87694933Y-9728293D01*
X87484402Y-9671881D01*
X87484400Y-9671881D01*
X87479087Y-9670457D01*
X87251000Y-9650502D01*
X87022913Y-9670457D01*
X87017600Y-9671881D01*
X87017598Y-9671881D01*
X86807067Y-9728293D01*
X86807065Y-9728294D01*
X86801757Y-9729716D01*
X86796776Y-9732039D01*
X86796775Y-9732039D01*
X86599238Y-9824151D01*
X86599233Y-9824154D01*
X86594251Y-9826477D01*
X86489389Y-9899902D01*
X86411211Y-9954643D01*
X86411208Y-9954645D01*
X86406700Y-9957802D01*
X86244802Y-10119700D01*
X86113477Y-10307251D01*
X86111154Y-10312233D01*
X86111151Y-10312238D01*
X86095195Y-10346457D01*
X86048278Y-10399742D01*
X85980001Y-10419203D01*
X85912041Y-10398661D01*
X85866805Y-10346457D01*
X85850849Y-10312238D01*
X85850846Y-10312233D01*
X85848523Y-10307251D01*
X85717198Y-10119700D01*
X85555300Y-9957802D01*
X85550792Y-9954645D01*
X85550789Y-9954643D01*
X85472611Y-9899902D01*
X85367749Y-9826477D01*
X85362767Y-9824154D01*
X85362762Y-9824151D01*
X85165225Y-9732039D01*
X85165224Y-9732039D01*
X85160243Y-9729716D01*
X85154935Y-9728294D01*
X85154933Y-9728293D01*
X84944402Y-9671881D01*
X84944400Y-9671881D01*
X84939087Y-9670457D01*
X84711000Y-9650502D01*
X84482913Y-9670457D01*
X84477600Y-9671881D01*
X84477598Y-9671881D01*
X84267067Y-9728293D01*
X84267065Y-9728294D01*
X84261757Y-9729716D01*
X84256776Y-9732039D01*
X84256775Y-9732039D01*
X84059238Y-9824151D01*
X84059233Y-9824154D01*
X84054251Y-9826477D01*
X83949389Y-9899902D01*
X83871211Y-9954643D01*
X83871208Y-9954645D01*
X83866700Y-9957802D01*
X83704802Y-10119700D01*
X83573477Y-10307251D01*
X83571154Y-10312233D01*
X83571151Y-10312238D01*
X83555195Y-10346457D01*
X83508278Y-10399742D01*
X83440001Y-10419203D01*
X83372041Y-10398661D01*
X83326805Y-10346457D01*
X83310849Y-10312238D01*
X83310846Y-10312233D01*
X83308523Y-10307251D01*
X83177198Y-10119700D01*
X83015300Y-9957802D01*
X83010792Y-9954645D01*
X83010789Y-9954643D01*
X82932611Y-9899902D01*
X82827749Y-9826477D01*
X82822767Y-9824154D01*
X82822762Y-9824151D01*
X82625225Y-9732039D01*
X82625224Y-9732039D01*
X82620243Y-9729716D01*
X82614935Y-9728294D01*
X82614933Y-9728293D01*
X82404402Y-9671881D01*
X82404400Y-9671881D01*
X82399087Y-9670457D01*
X82171000Y-9650502D01*
X81942913Y-9670457D01*
X81937600Y-9671881D01*
X81937598Y-9671881D01*
X81727067Y-9728293D01*
X81727065Y-9728294D01*
X81721757Y-9729716D01*
X81716776Y-9732039D01*
X81716775Y-9732039D01*
X81519238Y-9824151D01*
X81519233Y-9824154D01*
X81514251Y-9826477D01*
X81409389Y-9899902D01*
X81331211Y-9954643D01*
X81331208Y-9954645D01*
X81326700Y-9957802D01*
X81164802Y-10119700D01*
X81033477Y-10307251D01*
X81031154Y-10312233D01*
X81031151Y-10312238D01*
X81015195Y-10346457D01*
X80968278Y-10399742D01*
X80900001Y-10419203D01*
X80832041Y-10398661D01*
X80786805Y-10346457D01*
X80770849Y-10312238D01*
X80770846Y-10312233D01*
X80768523Y-10307251D01*
X80637198Y-10119700D01*
X80475300Y-9957802D01*
X80470792Y-9954645D01*
X80470789Y-9954643D01*
X80392611Y-9899902D01*
X80287749Y-9826477D01*
X80282767Y-9824154D01*
X80282762Y-9824151D01*
X80085225Y-9732039D01*
X80085224Y-9732039D01*
X80080243Y-9729716D01*
X80074935Y-9728294D01*
X80074933Y-9728293D01*
X79864402Y-9671881D01*
X79864400Y-9671881D01*
X79859087Y-9670457D01*
X79631000Y-9650502D01*
X79402913Y-9670457D01*
X79397600Y-9671881D01*
X79397598Y-9671881D01*
X79187067Y-9728293D01*
X79187065Y-9728294D01*
X79181757Y-9729716D01*
X79176776Y-9732039D01*
X79176775Y-9732039D01*
X78979238Y-9824151D01*
X78979233Y-9824154D01*
X78974251Y-9826477D01*
X78869389Y-9899902D01*
X78791211Y-9954643D01*
X78791208Y-9954645D01*
X78786700Y-9957802D01*
X78624802Y-10119700D01*
X78493477Y-10307251D01*
X78491154Y-10312233D01*
X78491151Y-10312238D01*
X78475195Y-10346457D01*
X78396716Y-10514757D01*
X78337457Y-10735913D01*
X78322500Y-10906873D01*
X78322500Y-11421127D01*
X78337457Y-11592087D01*
X78396716Y-11813243D01*
X78399039Y-11818224D01*
X78399039Y-11818225D01*
X78491151Y-12015762D01*
X78491154Y-12015767D01*
X78493477Y-12020749D01*
X78564508Y-12122191D01*
X78620937Y-12202780D01*
X78624802Y-12208300D01*
X78786700Y-12370198D01*
X78791208Y-12373355D01*
X78791211Y-12373357D01*
X78832536Y-12402293D01*
X78974251Y-12501523D01*
X78979233Y-12503846D01*
X78979238Y-12503849D01*
X79176775Y-12595961D01*
X79181757Y-12598284D01*
X79187065Y-12599706D01*
X79187067Y-12599707D01*
X79397598Y-12656119D01*
X79397600Y-12656119D01*
X79402913Y-12657543D01*
X79631000Y-12677498D01*
X79859087Y-12657543D01*
X79864400Y-12656119D01*
X79864402Y-12656119D01*
X80074933Y-12599707D01*
X80074935Y-12599706D01*
X80080243Y-12598284D01*
X80085225Y-12595961D01*
X80282762Y-12503849D01*
X80282767Y-12503846D01*
X80287749Y-12501523D01*
X80429464Y-12402293D01*
X80470789Y-12373357D01*
X80470792Y-12373355D01*
X80475300Y-12370198D01*
X80637198Y-12208300D01*
X80641064Y-12202780D01*
X80697492Y-12122191D01*
X80768523Y-12020749D01*
X80770846Y-12015767D01*
X80770849Y-12015762D01*
X80786805Y-11981543D01*
X80833722Y-11928258D01*
X80901999Y-11908797D01*
X80969959Y-11929339D01*
X81015195Y-11981543D01*
X81031151Y-12015762D01*
X81031154Y-12015767D01*
X81033477Y-12020749D01*
X81104508Y-12122191D01*
X81160937Y-12202780D01*
X81164802Y-12208300D01*
X81326700Y-12370198D01*
X81331208Y-12373355D01*
X81331211Y-12373357D01*
X81372536Y-12402293D01*
X81514251Y-12501523D01*
X81519233Y-12503846D01*
X81519238Y-12503849D01*
X81716775Y-12595961D01*
X81721757Y-12598284D01*
X81727065Y-12599706D01*
X81727067Y-12599707D01*
X81937598Y-12656119D01*
X81937600Y-12656119D01*
X81942913Y-12657543D01*
X82171000Y-12677498D01*
X82399087Y-12657543D01*
X82404400Y-12656119D01*
X82404402Y-12656119D01*
X82614933Y-12599707D01*
X82614935Y-12599706D01*
X82620243Y-12598284D01*
X82625225Y-12595961D01*
X82822762Y-12503849D01*
X82822767Y-12503846D01*
X82827749Y-12501523D01*
X82969464Y-12402293D01*
X83010789Y-12373357D01*
X83010792Y-12373355D01*
X83015300Y-12370198D01*
X83177198Y-12208300D01*
X83181064Y-12202780D01*
X83237492Y-12122191D01*
X83308523Y-12020749D01*
X83310846Y-12015767D01*
X83310849Y-12015762D01*
X83326805Y-11981543D01*
X83373722Y-11928258D01*
X83441999Y-11908797D01*
X83509959Y-11929339D01*
X83555195Y-11981543D01*
X83571151Y-12015762D01*
X83571154Y-12015767D01*
X83573477Y-12020749D01*
X83644508Y-12122191D01*
X83700937Y-12202780D01*
X83704802Y-12208300D01*
X83866700Y-12370198D01*
X83871208Y-12373355D01*
X83871211Y-12373357D01*
X83912536Y-12402293D01*
X84054251Y-12501523D01*
X84059233Y-12503846D01*
X84059238Y-12503849D01*
X84256775Y-12595961D01*
X84261757Y-12598284D01*
X84267065Y-12599706D01*
X84267067Y-12599707D01*
X84477598Y-12656119D01*
X84477600Y-12656119D01*
X84482913Y-12657543D01*
X84711000Y-12677498D01*
X84939087Y-12657543D01*
X84944400Y-12656119D01*
X84944402Y-12656119D01*
X85154933Y-12599707D01*
X85154935Y-12599706D01*
X85160243Y-12598284D01*
X85165225Y-12595961D01*
X85362762Y-12503849D01*
X85362767Y-12503846D01*
X85367749Y-12501523D01*
X85509464Y-12402293D01*
X85550789Y-12373357D01*
X85550792Y-12373355D01*
X85555300Y-12370198D01*
X85717198Y-12208300D01*
X85721064Y-12202780D01*
X85777492Y-12122191D01*
X85848523Y-12020749D01*
X85850846Y-12015767D01*
X85850849Y-12015762D01*
X85866805Y-11981543D01*
X85913722Y-11928258D01*
X85981999Y-11908797D01*
X86049959Y-11929339D01*
X86095195Y-11981543D01*
X86111151Y-12015762D01*
X86111154Y-12015767D01*
X86113477Y-12020749D01*
X86184508Y-12122191D01*
X86240937Y-12202780D01*
X86244802Y-12208300D01*
X86406700Y-12370198D01*
X86411208Y-12373355D01*
X86411211Y-12373357D01*
X86452536Y-12402293D01*
X86594251Y-12501523D01*
X86599233Y-12503846D01*
X86599238Y-12503849D01*
X86796775Y-12595961D01*
X86801757Y-12598284D01*
X86807065Y-12599706D01*
X86807067Y-12599707D01*
X87017598Y-12656119D01*
X87017600Y-12656119D01*
X87022913Y-12657543D01*
X87251000Y-12677498D01*
X87479087Y-12657543D01*
X87484400Y-12656119D01*
X87484402Y-12656119D01*
X87694933Y-12599707D01*
X87694935Y-12599706D01*
X87700243Y-12598284D01*
X87705225Y-12595961D01*
X87902762Y-12503849D01*
X87902767Y-12503846D01*
X87907749Y-12501523D01*
X88049464Y-12402293D01*
X88090789Y-12373357D01*
X88090792Y-12373355D01*
X88095300Y-12370198D01*
X88257198Y-12208300D01*
X88261064Y-12202780D01*
X88317492Y-12122191D01*
X88388523Y-12020749D01*
X88390846Y-12015767D01*
X88390849Y-12015762D01*
X88406805Y-11981543D01*
X88453722Y-11928258D01*
X88521999Y-11908797D01*
X88589959Y-11929339D01*
X88635195Y-11981543D01*
X88651151Y-12015762D01*
X88651154Y-12015767D01*
X88653477Y-12020749D01*
X88724508Y-12122191D01*
X88780937Y-12202780D01*
X88784802Y-12208300D01*
X88946700Y-12370198D01*
X88951208Y-12373355D01*
X88951211Y-12373357D01*
X88992536Y-12402293D01*
X89134251Y-12501523D01*
X89139233Y-12503846D01*
X89139238Y-12503849D01*
X89336775Y-12595961D01*
X89341757Y-12598284D01*
X89347065Y-12599706D01*
X89347067Y-12599707D01*
X89557598Y-12656119D01*
X89557600Y-12656119D01*
X89562913Y-12657543D01*
X89791000Y-12677498D01*
X90019087Y-12657543D01*
X90024400Y-12656119D01*
X90024402Y-12656119D01*
X90234933Y-12599707D01*
X90234935Y-12599706D01*
X90240243Y-12598284D01*
X90245225Y-12595961D01*
X90442762Y-12503849D01*
X90442767Y-12503846D01*
X90447749Y-12501523D01*
X90589464Y-12402293D01*
X90630789Y-12373357D01*
X90630792Y-12373355D01*
X90635300Y-12370198D01*
X90797198Y-12208300D01*
X90801064Y-12202780D01*
X90857492Y-12122191D01*
X90928523Y-12020749D01*
X90930846Y-12015767D01*
X90930849Y-12015762D01*
X90946805Y-11981543D01*
X90993722Y-11928258D01*
X91061999Y-11908797D01*
X91129959Y-11929339D01*
X91175195Y-11981543D01*
X91191151Y-12015762D01*
X91191154Y-12015767D01*
X91193477Y-12020749D01*
X91264508Y-12122191D01*
X91320937Y-12202780D01*
X91324802Y-12208300D01*
X91486700Y-12370198D01*
X91491208Y-12373355D01*
X91491211Y-12373357D01*
X91532536Y-12402293D01*
X91674251Y-12501523D01*
X91679233Y-12503846D01*
X91679238Y-12503849D01*
X91876775Y-12595961D01*
X91881757Y-12598284D01*
X91887065Y-12599706D01*
X91887067Y-12599707D01*
X92097598Y-12656119D01*
X92097600Y-12656119D01*
X92102913Y-12657543D01*
X92331000Y-12677498D01*
X92559087Y-12657543D01*
X92564400Y-12656119D01*
X92564402Y-12656119D01*
X92774933Y-12599707D01*
X92774935Y-12599706D01*
X92780243Y-12598284D01*
X92785225Y-12595961D01*
X92982762Y-12503849D01*
X92982767Y-12503846D01*
X92987749Y-12501523D01*
X93129464Y-12402293D01*
X93170789Y-12373357D01*
X93170792Y-12373355D01*
X93175300Y-12370198D01*
X93337198Y-12208300D01*
X93341064Y-12202780D01*
X93397492Y-12122191D01*
X93468523Y-12020749D01*
X93470846Y-12015767D01*
X93470849Y-12015762D01*
X93486805Y-11981543D01*
X93533722Y-11928258D01*
X93601999Y-11908797D01*
X93669959Y-11929339D01*
X93715195Y-11981543D01*
X93731151Y-12015762D01*
X93731154Y-12015767D01*
X93733477Y-12020749D01*
X93804508Y-12122191D01*
X93860937Y-12202780D01*
X93864802Y-12208300D01*
X94026700Y-12370198D01*
X94031208Y-12373355D01*
X94031211Y-12373357D01*
X94072536Y-12402293D01*
X94214251Y-12501523D01*
X94219233Y-12503846D01*
X94219238Y-12503849D01*
X94416775Y-12595961D01*
X94421757Y-12598284D01*
X94427065Y-12599706D01*
X94427067Y-12599707D01*
X94637598Y-12656119D01*
X94637600Y-12656119D01*
X94642913Y-12657543D01*
X94871000Y-12677498D01*
X95099087Y-12657543D01*
X95104400Y-12656119D01*
X95104402Y-12656119D01*
X95314933Y-12599707D01*
X95314935Y-12599706D01*
X95320243Y-12598284D01*
X95325225Y-12595961D01*
X95522762Y-12503849D01*
X95522767Y-12503846D01*
X95527749Y-12501523D01*
X95669464Y-12402293D01*
X95710789Y-12373357D01*
X95710792Y-12373355D01*
X95715300Y-12370198D01*
X95744133Y-12341365D01*
X95806445Y-12307339D01*
X95877260Y-12312404D01*
X95934096Y-12354951D01*
X95951210Y-12386232D01*
X95960385Y-12410705D01*
X96047739Y-12527261D01*
X96164295Y-12614615D01*
X96300684Y-12665745D01*
X96362866Y-12672500D01*
X98459134Y-12672500D01*
X98515993Y-12666323D01*
X98585874Y-12678851D01*
X98637890Y-12727171D01*
X98655600Y-12791586D01*
X98655601Y-22922483D01*
X98655601Y-32920554D01*
X98635599Y-32988675D01*
X98581943Y-33035168D01*
X98511669Y-33045272D01*
X98447089Y-33015778D01*
X98426387Y-32992823D01*
X98420359Y-32984213D01*
X98420353Y-32984206D01*
X98417198Y-32979700D01*
X98255300Y-32817802D01*
X98250792Y-32814645D01*
X98250789Y-32814643D01*
X98112067Y-32717509D01*
X98067749Y-32686477D01*
X98062767Y-32684154D01*
X98062762Y-32684151D01*
X97865225Y-32592039D01*
X97865224Y-32592039D01*
X97860243Y-32589716D01*
X97854935Y-32588294D01*
X97854933Y-32588293D01*
X97644402Y-32531881D01*
X97644400Y-32531881D01*
X97639087Y-32530457D01*
X97411000Y-32510502D01*
X97182913Y-32530457D01*
X97177600Y-32531881D01*
X97177598Y-32531881D01*
X96967067Y-32588293D01*
X96967065Y-32588294D01*
X96961757Y-32589716D01*
X96956776Y-32592039D01*
X96956775Y-32592039D01*
X96759238Y-32684151D01*
X96759233Y-32684154D01*
X96754251Y-32686477D01*
X96709933Y-32717509D01*
X96571211Y-32814643D01*
X96571208Y-32814645D01*
X96566700Y-32817802D01*
X96404802Y-32979700D01*
X96401645Y-32984208D01*
X96401643Y-32984211D01*
X96348686Y-33059842D01*
X96273477Y-33167251D01*
X96271154Y-33172233D01*
X96271151Y-33172238D01*
X96255195Y-33206457D01*
X96208278Y-33259742D01*
X96140001Y-33279203D01*
X96072041Y-33258661D01*
X96026805Y-33206457D01*
X96010849Y-33172238D01*
X96010846Y-33172233D01*
X96008523Y-33167251D01*
X95933314Y-33059842D01*
X95880357Y-32984211D01*
X95880355Y-32984208D01*
X95877198Y-32979700D01*
X95715300Y-32817802D01*
X95710792Y-32814645D01*
X95710789Y-32814643D01*
X95572067Y-32717509D01*
X95527749Y-32686477D01*
X95522767Y-32684154D01*
X95522762Y-32684151D01*
X95325225Y-32592039D01*
X95325224Y-32592039D01*
X95320243Y-32589716D01*
X95314935Y-32588294D01*
X95314933Y-32588293D01*
X95104402Y-32531881D01*
X95104400Y-32531881D01*
X95099087Y-32530457D01*
X94871000Y-32510502D01*
X94642913Y-32530457D01*
X94637600Y-32531881D01*
X94637598Y-32531881D01*
X94427067Y-32588293D01*
X94427065Y-32588294D01*
X94421757Y-32589716D01*
X94416776Y-32592039D01*
X94416775Y-32592039D01*
X94219238Y-32684151D01*
X94219233Y-32684154D01*
X94214251Y-32686477D01*
X94169933Y-32717509D01*
X94031211Y-32814643D01*
X94031208Y-32814645D01*
X94026700Y-32817802D01*
X93864802Y-32979700D01*
X93861645Y-32984208D01*
X93861643Y-32984211D01*
X93808686Y-33059842D01*
X93733477Y-33167251D01*
X93731154Y-33172233D01*
X93731151Y-33172238D01*
X93715195Y-33206457D01*
X93668278Y-33259742D01*
X93600001Y-33279203D01*
X93532041Y-33258661D01*
X93486805Y-33206457D01*
X93470849Y-33172238D01*
X93470846Y-33172233D01*
X93468523Y-33167251D01*
X93393314Y-33059842D01*
X93340357Y-32984211D01*
X93340355Y-32984208D01*
X93337198Y-32979700D01*
X93175300Y-32817802D01*
X93170792Y-32814645D01*
X93170789Y-32814643D01*
X93032067Y-32717509D01*
X92987749Y-32686477D01*
X92982767Y-32684154D01*
X92982762Y-32684151D01*
X92785225Y-32592039D01*
X92785224Y-32592039D01*
X92780243Y-32589716D01*
X92774935Y-32588294D01*
X92774933Y-32588293D01*
X92564402Y-32531881D01*
X92564400Y-32531881D01*
X92559087Y-32530457D01*
X92331000Y-32510502D01*
X92102913Y-32530457D01*
X92097600Y-32531881D01*
X92097598Y-32531881D01*
X91887067Y-32588293D01*
X91887065Y-32588294D01*
X91881757Y-32589716D01*
X91876776Y-32592039D01*
X91876775Y-32592039D01*
X91679238Y-32684151D01*
X91679233Y-32684154D01*
X91674251Y-32686477D01*
X91629933Y-32717509D01*
X91491211Y-32814643D01*
X91491208Y-32814645D01*
X91486700Y-32817802D01*
X91324802Y-32979700D01*
X91321645Y-32984208D01*
X91321643Y-32984211D01*
X91268686Y-33059842D01*
X91193477Y-33167251D01*
X91191154Y-33172233D01*
X91191151Y-33172238D01*
X91175195Y-33206457D01*
X91128278Y-33259742D01*
X91060001Y-33279203D01*
X90992041Y-33258661D01*
X90946805Y-33206457D01*
X90930849Y-33172238D01*
X90930846Y-33172233D01*
X90928523Y-33167251D01*
X90853314Y-33059842D01*
X90800357Y-32984211D01*
X90800355Y-32984208D01*
X90797198Y-32979700D01*
X90635300Y-32817802D01*
X90630792Y-32814645D01*
X90630789Y-32814643D01*
X90492067Y-32717509D01*
X90447749Y-32686477D01*
X90442767Y-32684154D01*
X90442762Y-32684151D01*
X90245225Y-32592039D01*
X90245224Y-32592039D01*
X90240243Y-32589716D01*
X90234935Y-32588294D01*
X90234933Y-32588293D01*
X90024402Y-32531881D01*
X90024400Y-32531881D01*
X90019087Y-32530457D01*
X89791000Y-32510502D01*
X89562913Y-32530457D01*
X89557600Y-32531881D01*
X89557598Y-32531881D01*
X89347067Y-32588293D01*
X89347065Y-32588294D01*
X89341757Y-32589716D01*
X89336776Y-32592039D01*
X89336775Y-32592039D01*
X89139238Y-32684151D01*
X89139233Y-32684154D01*
X89134251Y-32686477D01*
X89089933Y-32717509D01*
X88951211Y-32814643D01*
X88951208Y-32814645D01*
X88946700Y-32817802D01*
X88784802Y-32979700D01*
X88781645Y-32984208D01*
X88781643Y-32984211D01*
X88728686Y-33059842D01*
X88653477Y-33167251D01*
X88651154Y-33172233D01*
X88651151Y-33172238D01*
X88635195Y-33206457D01*
X88588278Y-33259742D01*
X88520001Y-33279203D01*
X88452041Y-33258661D01*
X88406805Y-33206457D01*
X88390849Y-33172238D01*
X88390846Y-33172233D01*
X88388523Y-33167251D01*
X88313314Y-33059842D01*
X88260357Y-32984211D01*
X88260355Y-32984208D01*
X88257198Y-32979700D01*
X88095300Y-32817802D01*
X88090792Y-32814645D01*
X88090789Y-32814643D01*
X87952067Y-32717509D01*
X87907749Y-32686477D01*
X87902767Y-32684154D01*
X87902762Y-32684151D01*
X87705225Y-32592039D01*
X87705224Y-32592039D01*
X87700243Y-32589716D01*
X87694935Y-32588294D01*
X87694933Y-32588293D01*
X87484402Y-32531881D01*
X87484400Y-32531881D01*
X87479087Y-32530457D01*
X87251000Y-32510502D01*
X87022913Y-32530457D01*
X87017600Y-32531881D01*
X87017598Y-32531881D01*
X86807067Y-32588293D01*
X86807065Y-32588294D01*
X86801757Y-32589716D01*
X86796776Y-32592039D01*
X86796775Y-32592039D01*
X86599238Y-32684151D01*
X86599233Y-32684154D01*
X86594251Y-32686477D01*
X86549933Y-32717509D01*
X86411211Y-32814643D01*
X86411208Y-32814645D01*
X86406700Y-32817802D01*
X86244802Y-32979700D01*
X86241645Y-32984208D01*
X86241643Y-32984211D01*
X86188686Y-33059842D01*
X86113477Y-33167251D01*
X86111154Y-33172233D01*
X86111151Y-33172238D01*
X86095195Y-33206457D01*
X86048278Y-33259742D01*
X85980001Y-33279203D01*
X85912041Y-33258661D01*
X85866805Y-33206457D01*
X85850849Y-33172238D01*
X85850846Y-33172233D01*
X85848523Y-33167251D01*
X85773314Y-33059842D01*
X85720357Y-32984211D01*
X85720355Y-32984208D01*
X85717198Y-32979700D01*
X85555300Y-32817802D01*
X85550792Y-32814645D01*
X85550789Y-32814643D01*
X85412067Y-32717509D01*
X85367749Y-32686477D01*
X85362767Y-32684154D01*
X85362762Y-32684151D01*
X85165225Y-32592039D01*
X85165224Y-32592039D01*
X85160243Y-32589716D01*
X85154935Y-32588294D01*
X85154933Y-32588293D01*
X84944402Y-32531881D01*
X84944400Y-32531881D01*
X84939087Y-32530457D01*
X84711000Y-32510502D01*
X84482913Y-32530457D01*
X84477600Y-32531881D01*
X84477598Y-32531881D01*
X84267067Y-32588293D01*
X84267065Y-32588294D01*
X84261757Y-32589716D01*
X84256776Y-32592039D01*
X84256775Y-32592039D01*
X84059238Y-32684151D01*
X84059233Y-32684154D01*
X84054251Y-32686477D01*
X84009933Y-32717509D01*
X83871211Y-32814643D01*
X83871208Y-32814645D01*
X83866700Y-32817802D01*
X83704802Y-32979700D01*
X83701645Y-32984208D01*
X83701643Y-32984211D01*
X83648686Y-33059842D01*
X83573477Y-33167251D01*
X83571154Y-33172233D01*
X83571151Y-33172238D01*
X83554919Y-33207049D01*
X83508002Y-33260334D01*
X83439725Y-33279795D01*
X83371765Y-33259253D01*
X83326529Y-33207049D01*
X83310414Y-33172489D01*
X83304931Y-33162993D01*
X83179972Y-32984533D01*
X83172916Y-32976125D01*
X83018875Y-32822084D01*
X83010467Y-32815028D01*
X82832007Y-32690069D01*
X82822511Y-32684586D01*
X82625053Y-32592510D01*
X82614761Y-32588764D01*
X82442497Y-32542606D01*
X82428401Y-32542942D01*
X82425000Y-32550884D01*
X82425000Y-34152000D01*
X82404998Y-34220121D01*
X82351342Y-34266614D01*
X82299000Y-34278000D01*
X82043000Y-34278000D01*
X81974879Y-34257998D01*
X81928386Y-34204342D01*
X81917000Y-34152000D01*
X81917000Y-32556033D01*
X81913027Y-32542502D01*
X81904478Y-32541273D01*
X81727239Y-32588764D01*
X81716947Y-32592510D01*
X81519489Y-32684586D01*
X81509993Y-32690069D01*
X81331533Y-32815028D01*
X81323125Y-32822084D01*
X81169084Y-32976125D01*
X81162028Y-32984533D01*
X81037069Y-33162993D01*
X81031586Y-33172489D01*
X81015471Y-33207049D01*
X80968554Y-33260334D01*
X80900277Y-33279795D01*
X80832317Y-33259253D01*
X80787081Y-33207049D01*
X80770849Y-33172238D01*
X80770846Y-33172233D01*
X80768523Y-33167251D01*
X80693314Y-33059842D01*
X80640357Y-32984211D01*
X80640355Y-32984208D01*
X80637198Y-32979700D01*
X80475300Y-32817802D01*
X80470792Y-32814645D01*
X80470789Y-32814643D01*
X80332067Y-32717509D01*
X80287749Y-32686477D01*
X80282767Y-32684154D01*
X80282762Y-32684151D01*
X80085225Y-32592039D01*
X80085224Y-32592039D01*
X80080243Y-32589716D01*
X80074935Y-32588294D01*
X80074933Y-32588293D01*
X79864402Y-32531881D01*
X79864400Y-32531881D01*
X79859087Y-32530457D01*
X79631000Y-32510502D01*
X79402913Y-32530457D01*
X79397600Y-32531881D01*
X79397598Y-32531881D01*
X79187067Y-32588293D01*
X79187065Y-32588294D01*
X79181757Y-32589716D01*
X79176776Y-32592039D01*
X79176775Y-32592039D01*
X78979238Y-32684151D01*
X78979233Y-32684154D01*
X78974251Y-32686477D01*
X78929933Y-32717509D01*
X78791211Y-32814643D01*
X78791208Y-32814645D01*
X78786700Y-32817802D01*
X78624802Y-32979700D01*
X78621645Y-32984208D01*
X78621643Y-32984211D01*
X78568686Y-33059842D01*
X78493477Y-33167251D01*
X78491154Y-33172233D01*
X78491151Y-33172238D01*
X78399039Y-33369775D01*
X78396716Y-33374757D01*
X78395294Y-33380065D01*
X78395293Y-33380067D01*
X78361000Y-33508050D01*
X78337457Y-33595913D01*
X78322500Y-33766873D01*
X78322500Y-34281127D01*
X78337457Y-34452087D01*
X78396716Y-34673243D01*
X78399039Y-34678224D01*
X78399039Y-34678225D01*
X78491151Y-34875762D01*
X78491154Y-34875767D01*
X78493477Y-34880749D01*
X78624802Y-35068300D01*
X78786700Y-35230198D01*
X78791208Y-35233355D01*
X78791211Y-35233357D01*
X78792568Y-35234307D01*
X78974251Y-35361523D01*
X79084441Y-35412905D01*
X79137726Y-35459822D01*
X79157187Y-35528099D01*
X79136645Y-35596059D01*
X79082623Y-35642125D01*
X79031191Y-35653100D01*
X68877663Y-35653100D01*
X68858714Y-35651667D01*
X68854066Y-35650960D01*
X68837251Y-35648402D01*
X68829959Y-35648995D01*
X68829956Y-35648995D01*
X68784591Y-35652685D01*
X68774377Y-35653100D01*
X68766307Y-35653100D01*
X68762687Y-35653522D01*
X68762669Y-35653523D01*
X68738061Y-35656392D01*
X68733700Y-35656824D01*
X68708581Y-35658867D01*
X68668261Y-35662146D01*
X68668258Y-35662147D01*
X68660963Y-35662740D01*
X68653999Y-35664996D01*
X68648040Y-35666187D01*
X68642185Y-35667571D01*
X68634919Y-35668418D01*
X68566273Y-35693335D01*
X68562145Y-35694752D01*
X68499664Y-35714993D01*
X68499662Y-35714994D01*
X68492701Y-35717249D01*
X68486446Y-35721045D01*
X68480972Y-35723551D01*
X68475542Y-35726270D01*
X68468663Y-35728767D01*
X68407616Y-35768791D01*
X68403927Y-35771118D01*
X68395443Y-35776267D01*
X68346293Y-35806091D01*
X68346288Y-35806095D01*
X68341492Y-35809005D01*
X68333116Y-35816403D01*
X68333093Y-35816377D01*
X68330103Y-35819026D01*
X68326864Y-35821734D01*
X68320748Y-35825744D01*
X68315721Y-35831051D01*
X68315717Y-35831054D01*
X68267472Y-35881983D01*
X68265094Y-35884425D01*
X62996124Y-41153395D01*
X62933812Y-41187421D01*
X62907029Y-41190300D01*
X20236870Y-41190300D01*
X20217920Y-41188867D01*
X20203685Y-41186701D01*
X20203681Y-41186701D01*
X20196451Y-41185601D01*
X20189159Y-41186194D01*
X20189156Y-41186194D01*
X20143782Y-41189885D01*
X20133567Y-41190300D01*
X20125507Y-41190300D01*
X20112217Y-41191849D01*
X20097293Y-41193589D01*
X20092918Y-41194022D01*
X20027461Y-41199346D01*
X20027458Y-41199347D01*
X20020163Y-41199940D01*
X20013199Y-41202196D01*
X20007240Y-41203387D01*
X20001385Y-41204771D01*
X19994119Y-41205618D01*
X19925473Y-41230535D01*
X19921345Y-41231952D01*
X19858864Y-41252193D01*
X19858862Y-41252194D01*
X19851901Y-41254449D01*
X19845646Y-41258245D01*
X19840172Y-41260751D01*
X19834742Y-41263470D01*
X19827863Y-41265967D01*
X19821743Y-41269980D01*
X19821742Y-41269980D01*
X19766824Y-41305986D01*
X19763120Y-41308323D01*
X19700693Y-41346205D01*
X19692316Y-41353603D01*
X19692292Y-41353576D01*
X19689300Y-41356229D01*
X19686067Y-41358932D01*
X19679948Y-41362944D01*
X19674916Y-41368256D01*
X19626672Y-41419183D01*
X19624294Y-41421625D01*
X18937895Y-42108024D01*
X18875583Y-42142050D01*
X18804768Y-42136985D01*
X18759705Y-42108024D01*
X13742770Y-37091089D01*
X13730384Y-37076677D01*
X13721851Y-37065082D01*
X13721846Y-37065077D01*
X13717508Y-37059182D01*
X13711930Y-37054443D01*
X13711927Y-37054440D01*
X13677232Y-37024965D01*
X13669716Y-37018035D01*
X13664021Y-37012340D01*
X13650752Y-37001842D01*
X13641749Y-36994719D01*
X13638345Y-36991928D01*
X13588297Y-36949409D01*
X13588295Y-36949408D01*
X13582715Y-36944667D01*
X13576199Y-36941339D01*
X13571150Y-36937972D01*
X13566021Y-36934805D01*
X13560284Y-36930266D01*
X13494125Y-36899345D01*
X13490225Y-36897439D01*
X13425192Y-36864231D01*
X13418084Y-36862492D01*
X13412441Y-36860393D01*
X13406678Y-36858476D01*
X13400050Y-36855378D01*
X13328583Y-36840513D01*
X13324299Y-36839543D01*
X13253390Y-36822192D01*
X13247788Y-36821844D01*
X13247785Y-36821844D01*
X13242236Y-36821500D01*
X13242238Y-36821464D01*
X13238245Y-36821225D01*
X13234053Y-36820851D01*
X13226885Y-36819360D01*
X13160675Y-36821151D01*
X13149479Y-36821454D01*
X13146072Y-36821500D01*
X10956700Y-36821500D01*
X10888579Y-36801498D01*
X10842086Y-36747842D01*
X10830700Y-36695500D01*
X10830700Y-36431866D01*
X10823945Y-36369684D01*
X10772815Y-36233295D01*
X10685461Y-36116739D01*
X10568905Y-36029385D01*
X10432516Y-35978255D01*
X10370334Y-35971500D01*
X8074066Y-35971500D01*
X8011884Y-35978255D01*
X7875495Y-36029385D01*
X7758939Y-36116739D01*
X7671585Y-36233295D01*
X7620455Y-36369684D01*
X7613700Y-36431866D01*
X7613700Y-36949500D01*
X7593698Y-37017621D01*
X7540042Y-37064114D01*
X7487700Y-37075500D01*
X5194900Y-37075500D01*
X5126779Y-37055498D01*
X5080286Y-37001842D01*
X5068900Y-36949500D01*
X5068900Y-36935866D01*
X5062145Y-36873684D01*
X5011015Y-36737295D01*
X4923661Y-36620739D01*
X4807105Y-36533385D01*
X4670716Y-36482255D01*
X4608534Y-36475500D01*
X4594900Y-36475500D01*
X4526779Y-36455498D01*
X4480286Y-36401842D01*
X4468900Y-36349500D01*
X4468900Y-33998600D01*
X64753902Y-33998600D01*
X64773857Y-34226687D01*
X64833116Y-34447843D01*
X64835439Y-34452824D01*
X64835439Y-34452825D01*
X64927551Y-34650362D01*
X64927554Y-34650367D01*
X64929877Y-34655349D01*
X64942407Y-34673243D01*
X65023284Y-34788747D01*
X65061202Y-34842900D01*
X65223100Y-35004798D01*
X65227608Y-35007955D01*
X65227611Y-35007957D01*
X65267044Y-35035568D01*
X65410651Y-35136123D01*
X65415633Y-35138446D01*
X65415638Y-35138449D01*
X65612397Y-35230198D01*
X65618157Y-35232884D01*
X65623465Y-35234306D01*
X65623467Y-35234307D01*
X65833998Y-35290719D01*
X65834000Y-35290719D01*
X65839313Y-35292143D01*
X66067400Y-35312098D01*
X66295487Y-35292143D01*
X66300800Y-35290719D01*
X66300802Y-35290719D01*
X66511333Y-35234307D01*
X66511335Y-35234306D01*
X66516643Y-35232884D01*
X66522403Y-35230198D01*
X66719162Y-35138449D01*
X66719167Y-35138446D01*
X66724149Y-35136123D01*
X66867756Y-35035568D01*
X66907189Y-35007957D01*
X66907192Y-35007955D01*
X66911700Y-35004798D01*
X67073598Y-34842900D01*
X67111517Y-34788747D01*
X67192393Y-34673243D01*
X67204923Y-34655349D01*
X67207246Y-34650367D01*
X67207249Y-34650362D01*
X67299361Y-34452825D01*
X67299361Y-34452824D01*
X67301684Y-34447843D01*
X67360943Y-34226687D01*
X67380898Y-33998600D01*
X67360943Y-33770513D01*
X67301684Y-33549357D01*
X67299361Y-33544375D01*
X67207249Y-33346838D01*
X67207246Y-33346833D01*
X67204923Y-33341851D01*
X67086334Y-33172489D01*
X67076757Y-33158811D01*
X67076755Y-33158808D01*
X67073598Y-33154300D01*
X66911700Y-32992402D01*
X66907192Y-32989245D01*
X66907189Y-32989243D01*
X66809091Y-32920554D01*
X66724149Y-32861077D01*
X66719167Y-32858754D01*
X66719162Y-32858751D01*
X66521625Y-32766639D01*
X66521624Y-32766639D01*
X66516643Y-32764316D01*
X66511335Y-32762894D01*
X66511333Y-32762893D01*
X66300802Y-32706481D01*
X66300800Y-32706481D01*
X66295487Y-32705057D01*
X66067400Y-32685102D01*
X65839313Y-32705057D01*
X65834000Y-32706481D01*
X65833998Y-32706481D01*
X65623467Y-32762893D01*
X65623465Y-32762894D01*
X65618157Y-32764316D01*
X65613176Y-32766639D01*
X65613175Y-32766639D01*
X65415638Y-32858751D01*
X65415633Y-32858754D01*
X65410651Y-32861077D01*
X65325709Y-32920554D01*
X65227611Y-32989243D01*
X65227608Y-32989245D01*
X65223100Y-32992402D01*
X65061202Y-33154300D01*
X65058045Y-33158808D01*
X65058043Y-33158811D01*
X65048466Y-33172489D01*
X64929877Y-33341851D01*
X64927554Y-33346833D01*
X64927551Y-33346838D01*
X64835439Y-33544375D01*
X64833116Y-33549357D01*
X64773857Y-33770513D01*
X64753902Y-33998600D01*
X4468900Y-33998600D01*
X4468900Y-33059842D01*
X8823903Y-33059842D01*
X8832617Y-33071362D01*
X8933994Y-33145696D01*
X8941893Y-33150632D01*
X9167501Y-33269330D01*
X9176050Y-33273047D01*
X9416713Y-33357090D01*
X9425722Y-33359504D01*
X9676172Y-33407054D01*
X9685427Y-33408108D01*
X9940157Y-33418117D01*
X9949471Y-33417791D01*
X10202870Y-33390040D01*
X10212047Y-33388339D01*
X10458560Y-33323437D01*
X10467380Y-33320400D01*
X10701597Y-33219773D01*
X10709869Y-33215466D01*
X10926636Y-33081327D01*
X10934179Y-33075847D01*
X10935872Y-33074414D01*
X10944310Y-33061611D01*
X10943274Y-33059842D01*
X49463903Y-33059842D01*
X49472617Y-33071362D01*
X49573994Y-33145696D01*
X49581893Y-33150632D01*
X49807501Y-33269330D01*
X49816050Y-33273047D01*
X50056713Y-33357090D01*
X50065722Y-33359504D01*
X50316172Y-33407054D01*
X50325427Y-33408108D01*
X50580157Y-33418117D01*
X50589471Y-33417791D01*
X50842870Y-33390040D01*
X50852047Y-33388339D01*
X51098560Y-33323437D01*
X51107380Y-33320400D01*
X51341597Y-33219773D01*
X51349869Y-33215466D01*
X51566636Y-33081327D01*
X51574179Y-33075847D01*
X51575872Y-33074414D01*
X51584310Y-33061611D01*
X51578245Y-33051255D01*
X50535412Y-32008422D01*
X50521468Y-32000808D01*
X50519635Y-32000939D01*
X50513020Y-32005190D01*
X49470561Y-33047649D01*
X49463903Y-33059842D01*
X10943274Y-33059842D01*
X10938245Y-33051255D01*
X9895412Y-32008422D01*
X9881468Y-32000808D01*
X9879635Y-32000939D01*
X9873020Y-32005190D01*
X8830561Y-33047649D01*
X8823903Y-33059842D01*
X4468900Y-33059842D01*
X4468900Y-31594399D01*
X8100449Y-31594399D01*
X8112680Y-31849019D01*
X8113817Y-31858279D01*
X8163547Y-32108294D01*
X8166041Y-32117287D01*
X8252178Y-32357197D01*
X8255978Y-32365732D01*
X8376631Y-32590277D01*
X8381645Y-32598148D01*
X8447754Y-32686679D01*
X8459014Y-32695129D01*
X8471432Y-32688358D01*
X9510578Y-31649212D01*
X9516956Y-31637532D01*
X10247008Y-31637532D01*
X10247139Y-31639365D01*
X10251390Y-31645980D01*
X11296986Y-32691576D01*
X11309366Y-32698336D01*
X11317707Y-32692092D01*
X11446991Y-32491097D01*
X11451438Y-32482906D01*
X11556136Y-32250485D01*
X11559331Y-32241707D01*
X11628523Y-31996368D01*
X11630381Y-31987239D01*
X11662744Y-31732844D01*
X11663225Y-31726558D01*
X11665503Y-31639560D01*
X11665352Y-31633251D01*
X11646347Y-31377510D01*
X11644970Y-31368304D01*
X11593420Y-31140480D01*
X43701884Y-31140480D01*
X43737130Y-31399463D01*
X43738438Y-31403949D01*
X43738438Y-31403951D01*
X43758124Y-31471489D01*
X43810269Y-31650392D01*
X43919694Y-31887753D01*
X43922257Y-31891662D01*
X44060436Y-32102421D01*
X44060440Y-32102426D01*
X44063002Y-32106334D01*
X44237044Y-32301331D01*
X44437996Y-32468462D01*
X44441999Y-32470891D01*
X44657448Y-32601629D01*
X44657452Y-32601631D01*
X44661445Y-32604054D01*
X44902481Y-32705128D01*
X45155809Y-32769466D01*
X45160460Y-32769934D01*
X45160464Y-32769935D01*
X45353334Y-32789356D01*
X45372893Y-32791325D01*
X45528380Y-32791325D01*
X45530705Y-32791152D01*
X45530711Y-32791152D01*
X45718026Y-32777232D01*
X45718030Y-32777231D01*
X45722678Y-32776886D01*
X45727226Y-32775857D01*
X45727232Y-32775856D01*
X45913627Y-32733678D01*
X45977603Y-32719202D01*
X45981957Y-32717509D01*
X46216850Y-32626165D01*
X46216853Y-32626164D01*
X46221203Y-32624472D01*
X46267261Y-32598148D01*
X46366771Y-32541273D01*
X46448124Y-32494776D01*
X46653383Y-32332963D01*
X46832469Y-32142588D01*
X46981450Y-31927834D01*
X47020317Y-31849019D01*
X47094986Y-31697606D01*
X47094987Y-31697603D01*
X47097051Y-31693418D01*
X47114354Y-31639365D01*
X47128748Y-31594399D01*
X48740449Y-31594399D01*
X48752680Y-31849019D01*
X48753817Y-31858279D01*
X48803547Y-32108294D01*
X48806041Y-32117287D01*
X48892178Y-32357197D01*
X48895978Y-32365732D01*
X49016631Y-32590277D01*
X49021645Y-32598148D01*
X49087754Y-32686679D01*
X49099014Y-32695129D01*
X49111432Y-32688358D01*
X50150578Y-31649212D01*
X50156956Y-31637532D01*
X50887008Y-31637532D01*
X50887139Y-31639365D01*
X50891390Y-31645980D01*
X51936986Y-32691576D01*
X51949366Y-32698336D01*
X51957707Y-32692092D01*
X52086991Y-32491097D01*
X52091438Y-32482906D01*
X52196136Y-32250485D01*
X52199331Y-32241707D01*
X52268523Y-31996368D01*
X52270381Y-31987239D01*
X52302744Y-31732844D01*
X52303225Y-31726558D01*
X52305503Y-31639560D01*
X52305352Y-31633251D01*
X52286347Y-31377510D01*
X52284970Y-31368304D01*
X52228709Y-31119662D01*
X52225985Y-31110751D01*
X52133590Y-30873158D01*
X52129579Y-30864749D01*
X52003082Y-30643427D01*
X51997869Y-30635698D01*
X51958233Y-30585419D01*
X51946309Y-30576949D01*
X51934774Y-30583436D01*
X50894622Y-31623588D01*
X50887008Y-31637532D01*
X50156956Y-31637532D01*
X50158192Y-31635268D01*
X50158061Y-31633435D01*
X50153810Y-31626820D01*
X49109719Y-30582729D01*
X49096411Y-30575462D01*
X49086372Y-30582584D01*
X49074033Y-30597420D01*
X49068618Y-30605012D01*
X48936376Y-30822940D01*
X48932138Y-30831257D01*
X48833561Y-31066335D01*
X48830600Y-31075185D01*
X48767855Y-31322249D01*
X48766233Y-31331446D01*
X48740694Y-31585073D01*
X48740449Y-31594399D01*
X47128748Y-31594399D01*
X47175306Y-31448948D01*
X47176733Y-31444490D01*
X47218747Y-31186518D01*
X47222168Y-30925170D01*
X47186922Y-30666187D01*
X47172499Y-30616702D01*
X47115094Y-30419757D01*
X47113783Y-30415258D01*
X47019507Y-30210757D01*
X49461370Y-30210757D01*
X49465943Y-30220533D01*
X50509788Y-31264378D01*
X50523732Y-31271992D01*
X50525565Y-31271861D01*
X50532180Y-31267610D01*
X51575390Y-30224400D01*
X51581774Y-30212710D01*
X51572362Y-30200599D01*
X51431376Y-30102792D01*
X51423341Y-30098059D01*
X51194706Y-29985309D01*
X51186073Y-29981821D01*
X50943275Y-29904101D01*
X50934224Y-29901928D01*
X50682609Y-29860950D01*
X50673320Y-29860138D01*
X50418428Y-29856801D01*
X50409117Y-29857371D01*
X50156527Y-29891747D01*
X50147408Y-29893685D01*
X49902684Y-29965016D01*
X49893931Y-29968288D01*
X49662437Y-30075008D01*
X49654282Y-30079528D01*
X49470507Y-30200016D01*
X49461370Y-30210757D01*
X47019507Y-30210757D01*
X47004358Y-30177897D01*
X46952014Y-30098059D01*
X46863616Y-29963229D01*
X46863612Y-29963224D01*
X46861050Y-29959316D01*
X46687008Y-29764319D01*
X46486056Y-29597188D01*
X46438870Y-29568555D01*
X46266604Y-29464021D01*
X46266600Y-29464019D01*
X46262607Y-29461596D01*
X46021571Y-29360522D01*
X45768243Y-29296184D01*
X45763592Y-29295716D01*
X45763588Y-29295715D01*
X45554297Y-29274641D01*
X45551159Y-29274325D01*
X45395672Y-29274325D01*
X45393347Y-29274498D01*
X45393341Y-29274498D01*
X45206026Y-29288418D01*
X45206022Y-29288419D01*
X45201374Y-29288764D01*
X45196826Y-29289793D01*
X45196820Y-29289794D01*
X45010425Y-29331972D01*
X44946449Y-29346448D01*
X44942097Y-29348140D01*
X44942095Y-29348141D01*
X44707202Y-29439485D01*
X44707199Y-29439486D01*
X44702849Y-29441178D01*
X44475928Y-29570874D01*
X44270669Y-29732687D01*
X44091583Y-29923062D01*
X43986174Y-30075008D01*
X43970183Y-30098059D01*
X43942602Y-30137816D01*
X43940536Y-30142006D01*
X43940534Y-30142009D01*
X43899904Y-30224400D01*
X43827001Y-30372232D01*
X43747319Y-30621160D01*
X43705305Y-30879132D01*
X43705244Y-30883805D01*
X43702157Y-31119662D01*
X43701884Y-31140480D01*
X11593420Y-31140480D01*
X11588709Y-31119662D01*
X11585985Y-31110751D01*
X11493590Y-30873158D01*
X11489579Y-30864749D01*
X11363082Y-30643427D01*
X11357869Y-30635698D01*
X11318233Y-30585419D01*
X11306309Y-30576949D01*
X11294774Y-30583436D01*
X10254622Y-31623588D01*
X10247008Y-31637532D01*
X9516956Y-31637532D01*
X9518192Y-31635268D01*
X9518061Y-31633435D01*
X9513810Y-31626820D01*
X8469719Y-30582729D01*
X8456411Y-30575462D01*
X8446372Y-30582584D01*
X8434033Y-30597420D01*
X8428618Y-30605012D01*
X8296376Y-30822940D01*
X8292138Y-30831257D01*
X8193561Y-31066335D01*
X8190600Y-31075185D01*
X8127855Y-31322249D01*
X8126233Y-31331446D01*
X8100694Y-31585073D01*
X8100449Y-31594399D01*
X4468900Y-31594399D01*
X4468900Y-30210757D01*
X8821370Y-30210757D01*
X8825943Y-30220533D01*
X9869788Y-31264378D01*
X9883732Y-31271992D01*
X9885565Y-31271861D01*
X9892180Y-31267610D01*
X10935390Y-30224400D01*
X10941774Y-30212710D01*
X10932362Y-30200599D01*
X10791376Y-30102792D01*
X10783341Y-30098059D01*
X10554706Y-29985309D01*
X10546073Y-29981821D01*
X10303275Y-29904101D01*
X10294224Y-29901928D01*
X10042609Y-29860950D01*
X10033320Y-29860138D01*
X9778428Y-29856801D01*
X9769117Y-29857371D01*
X9516527Y-29891747D01*
X9507408Y-29893685D01*
X9262684Y-29965016D01*
X9253931Y-29968288D01*
X9022437Y-30075008D01*
X9014282Y-30079528D01*
X8830507Y-30200016D01*
X8821370Y-30210757D01*
X4468900Y-30210757D01*
X4468900Y-25215334D01*
X58159700Y-25215334D01*
X58166455Y-25277516D01*
X58217585Y-25413905D01*
X58304939Y-25530461D01*
X58421495Y-25617815D01*
X58557884Y-25668945D01*
X58620066Y-25675700D01*
X60916334Y-25675700D01*
X60978516Y-25668945D01*
X61114905Y-25617815D01*
X61231461Y-25530461D01*
X61318815Y-25413905D01*
X61369945Y-25277516D01*
X61376700Y-25215334D01*
X61376700Y-22919066D01*
X61369945Y-22856884D01*
X61318815Y-22720495D01*
X61231461Y-22603939D01*
X61114905Y-22516585D01*
X60978516Y-22465455D01*
X60916334Y-22458700D01*
X58620066Y-22458700D01*
X58557884Y-22465455D01*
X58421495Y-22516585D01*
X58304939Y-22603939D01*
X58217585Y-22720495D01*
X58166455Y-22856884D01*
X58159700Y-22919066D01*
X58159700Y-25215334D01*
X4468900Y-25215334D01*
X4468900Y-18624971D01*
X4488902Y-18556850D01*
X4505805Y-18535876D01*
X7894925Y-15146756D01*
X7957237Y-15112730D01*
X8028052Y-15117795D01*
X8084888Y-15160342D01*
X8109283Y-15222245D01*
X8110001Y-15228860D01*
X8110002Y-15228864D01*
X8110855Y-15236716D01*
X8161985Y-15373105D01*
X8249339Y-15489661D01*
X8365895Y-15577015D01*
X8502284Y-15628145D01*
X8564466Y-15634900D01*
X11200734Y-15634900D01*
X11262916Y-15628145D01*
X11399305Y-15577015D01*
X11515861Y-15489661D01*
X11603215Y-15373105D01*
X11654345Y-15236716D01*
X11661100Y-15174534D01*
X11661100Y-14598275D01*
X13185784Y-14598275D01*
X13221030Y-14857258D01*
X13222338Y-14861744D01*
X13222338Y-14861746D01*
X13241008Y-14925801D01*
X13294169Y-15108187D01*
X13403594Y-15345548D01*
X13406157Y-15349457D01*
X13544336Y-15560216D01*
X13544340Y-15560221D01*
X13546902Y-15564129D01*
X13720944Y-15759126D01*
X13921896Y-15926257D01*
X13925899Y-15928686D01*
X14141348Y-16059424D01*
X14141352Y-16059426D01*
X14145345Y-16061849D01*
X14386381Y-16162923D01*
X14639709Y-16227261D01*
X14644360Y-16227729D01*
X14644364Y-16227730D01*
X14837234Y-16247151D01*
X14856793Y-16249120D01*
X15012280Y-16249120D01*
X15014605Y-16248947D01*
X15014611Y-16248947D01*
X15201926Y-16235027D01*
X15201930Y-16235026D01*
X15206578Y-16234681D01*
X15211126Y-16233652D01*
X15211132Y-16233651D01*
X15397527Y-16191473D01*
X15461503Y-16176997D01*
X15497695Y-16162923D01*
X15700750Y-16083960D01*
X15700753Y-16083959D01*
X15705103Y-16082267D01*
X15932024Y-15952571D01*
X16137283Y-15790758D01*
X16316369Y-15600383D01*
X16425647Y-15442860D01*
X16462685Y-15389471D01*
X16462687Y-15389468D01*
X16465350Y-15385629D01*
X16467418Y-15381436D01*
X16578886Y-15155401D01*
X16578887Y-15155398D01*
X16580951Y-15151213D01*
X16587264Y-15131493D01*
X16659206Y-14906743D01*
X16660633Y-14902285D01*
X16702647Y-14644313D01*
X16705035Y-14461878D01*
X16706007Y-14387642D01*
X16706007Y-14387639D01*
X16706068Y-14382965D01*
X16670822Y-14123982D01*
X16656399Y-14074497D01*
X16598994Y-13877552D01*
X16597683Y-13873053D01*
X16568483Y-13809714D01*
X48739724Y-13809714D01*
X48739948Y-13814380D01*
X48739948Y-13814385D01*
X48745693Y-13933976D01*
X48752407Y-14073752D01*
X48803978Y-14333016D01*
X48805557Y-14337414D01*
X48805559Y-14337421D01*
X48891721Y-14577401D01*
X48893304Y-14581810D01*
X48895521Y-14585936D01*
X48962901Y-14711336D01*
X49018422Y-14814667D01*
X49021217Y-14818411D01*
X49021219Y-14818413D01*
X49104343Y-14929729D01*
X49176585Y-15026473D01*
X49179892Y-15029751D01*
X49179897Y-15029757D01*
X49311628Y-15160342D01*
X49364318Y-15212574D01*
X49368085Y-15215336D01*
X49368086Y-15215337D01*
X49386529Y-15228860D01*
X49577496Y-15368883D01*
X49581631Y-15371059D01*
X49581635Y-15371061D01*
X49616627Y-15389471D01*
X49811436Y-15491965D01*
X49893647Y-15520674D01*
X50054984Y-15577015D01*
X50061000Y-15579116D01*
X50065593Y-15579988D01*
X50316115Y-15627551D01*
X50316118Y-15627551D01*
X50320704Y-15628422D01*
X50452774Y-15633612D01*
X50580175Y-15638618D01*
X50580181Y-15638618D01*
X50584843Y-15638801D01*
X50847615Y-15610022D01*
X50852126Y-15608834D01*
X50852128Y-15608834D01*
X51098724Y-15543911D01*
X51098726Y-15543910D01*
X51103247Y-15542720D01*
X51107544Y-15540874D01*
X51341829Y-15440217D01*
X51341831Y-15440216D01*
X51346123Y-15438372D01*
X51570907Y-15299271D01*
X51636060Y-15244115D01*
X51769096Y-15131493D01*
X51769098Y-15131491D01*
X51772663Y-15128473D01*
X51946956Y-14929729D01*
X51997364Y-14851362D01*
X52087431Y-14711336D01*
X52089959Y-14707406D01*
X52198530Y-14466388D01*
X52270283Y-14211970D01*
X52282047Y-14119494D01*
X52303245Y-13952871D01*
X52303245Y-13952865D01*
X52303643Y-13949740D01*
X52304757Y-13907200D01*
X58154726Y-13907200D01*
X58174591Y-14159603D01*
X58233695Y-14405791D01*
X58235588Y-14410362D01*
X58235589Y-14410364D01*
X58315344Y-14602909D01*
X58330584Y-14639702D01*
X58462872Y-14855576D01*
X58627302Y-15048098D01*
X58819824Y-15212528D01*
X59035698Y-15344816D01*
X59040268Y-15346709D01*
X59040272Y-15346711D01*
X59261562Y-15438372D01*
X59269609Y-15441705D01*
X59354232Y-15462021D01*
X59510984Y-15499654D01*
X59510990Y-15499655D01*
X59515797Y-15500809D01*
X59768200Y-15520674D01*
X60020603Y-15500809D01*
X60025410Y-15499655D01*
X60025416Y-15499654D01*
X60182168Y-15462021D01*
X60266791Y-15441705D01*
X60274838Y-15438372D01*
X60496128Y-15346711D01*
X60496132Y-15346709D01*
X60500702Y-15344816D01*
X60716576Y-15212528D01*
X60909098Y-15048098D01*
X61073528Y-14855576D01*
X61205816Y-14639702D01*
X61221057Y-14602909D01*
X61300811Y-14410364D01*
X61300812Y-14410362D01*
X61302705Y-14405791D01*
X61361809Y-14159603D01*
X61381674Y-13907200D01*
X61361809Y-13654797D01*
X61357223Y-13635692D01*
X61323021Y-13493232D01*
X61302705Y-13408609D01*
X61268812Y-13326783D01*
X61207711Y-13179272D01*
X61207709Y-13179268D01*
X61205816Y-13174698D01*
X61073528Y-12958824D01*
X60909098Y-12766302D01*
X60896019Y-12755131D01*
X60781758Y-12657543D01*
X60716576Y-12601872D01*
X60500702Y-12469584D01*
X60496132Y-12467691D01*
X60496128Y-12467689D01*
X60271364Y-12374589D01*
X60271362Y-12374588D01*
X60266791Y-12372695D01*
X60164357Y-12348103D01*
X60025416Y-12314746D01*
X60025410Y-12314745D01*
X60020603Y-12313591D01*
X59768200Y-12293726D01*
X59515797Y-12313591D01*
X59510990Y-12314745D01*
X59510984Y-12314746D01*
X59372043Y-12348103D01*
X59269609Y-12372695D01*
X59265038Y-12374588D01*
X59265036Y-12374589D01*
X59040272Y-12467689D01*
X59040268Y-12467691D01*
X59035698Y-12469584D01*
X58819824Y-12601872D01*
X58754642Y-12657543D01*
X58640382Y-12755131D01*
X58627302Y-12766302D01*
X58462872Y-12958824D01*
X58330584Y-13174698D01*
X58328691Y-13179268D01*
X58328689Y-13179272D01*
X58267588Y-13326783D01*
X58233695Y-13408609D01*
X58213379Y-13493232D01*
X58179178Y-13635692D01*
X58174591Y-13654797D01*
X58154726Y-13907200D01*
X52304757Y-13907200D01*
X52306087Y-13856400D01*
X52305853Y-13853251D01*
X52286843Y-13597436D01*
X52286842Y-13597432D01*
X52286497Y-13592784D01*
X52228157Y-13334959D01*
X52212628Y-13295026D01*
X52134042Y-13092942D01*
X52134041Y-13092940D01*
X52132349Y-13088589D01*
X52106135Y-13042723D01*
X52056034Y-12955065D01*
X52001178Y-12859087D01*
X51837525Y-12651494D01*
X51644985Y-12470370D01*
X51607812Y-12444582D01*
X51431626Y-12322358D01*
X51431621Y-12322355D01*
X51427788Y-12319696D01*
X51423597Y-12317629D01*
X51194894Y-12204845D01*
X51194891Y-12204844D01*
X51190706Y-12202780D01*
X51133750Y-12184548D01*
X50981414Y-12135785D01*
X50938947Y-12122191D01*
X50796425Y-12098980D01*
X50682653Y-12080451D01*
X50682652Y-12080451D01*
X50678041Y-12079700D01*
X50545881Y-12077970D01*
X50418398Y-12076301D01*
X50418395Y-12076301D01*
X50413721Y-12076240D01*
X50151792Y-12111886D01*
X50147302Y-12113195D01*
X50147296Y-12113196D01*
X50051320Y-12141171D01*
X49898010Y-12185857D01*
X49893763Y-12187815D01*
X49893760Y-12187816D01*
X49840874Y-12212197D01*
X49657948Y-12296527D01*
X49654039Y-12299090D01*
X49440795Y-12438899D01*
X49440790Y-12438903D01*
X49436882Y-12441465D01*
X49404497Y-12470370D01*
X49259587Y-12599707D01*
X49239667Y-12617486D01*
X49190154Y-12677019D01*
X49085201Y-12803212D01*
X49070636Y-12820724D01*
X48933501Y-13046714D01*
X48931695Y-13051022D01*
X48931694Y-13051023D01*
X48843570Y-13261176D01*
X48831277Y-13290491D01*
X48830126Y-13295023D01*
X48830125Y-13295026D01*
X48818826Y-13339516D01*
X48766208Y-13546701D01*
X48739724Y-13809714D01*
X16568483Y-13809714D01*
X16488258Y-13635692D01*
X16426937Y-13542162D01*
X16347516Y-13421024D01*
X16347512Y-13421019D01*
X16344950Y-13417111D01*
X16170908Y-13222114D01*
X15969956Y-13054983D01*
X15922770Y-13026350D01*
X15750504Y-12921816D01*
X15750500Y-12921814D01*
X15746507Y-12919391D01*
X15505471Y-12818317D01*
X15252143Y-12753979D01*
X15247492Y-12753511D01*
X15247488Y-12753510D01*
X15038197Y-12732436D01*
X15035059Y-12732120D01*
X14879572Y-12732120D01*
X14877247Y-12732293D01*
X14877241Y-12732293D01*
X14689926Y-12746213D01*
X14689922Y-12746214D01*
X14685274Y-12746559D01*
X14680726Y-12747588D01*
X14680720Y-12747589D01*
X14494325Y-12789767D01*
X14430349Y-12804243D01*
X14425997Y-12805935D01*
X14425995Y-12805936D01*
X14191102Y-12897280D01*
X14191099Y-12897281D01*
X14186749Y-12898973D01*
X13959828Y-13028669D01*
X13754569Y-13190482D01*
X13575483Y-13380857D01*
X13426502Y-13595611D01*
X13424436Y-13599801D01*
X13424434Y-13599804D01*
X13318615Y-13814385D01*
X13310901Y-13830027D01*
X13309479Y-13834470D01*
X13309478Y-13834472D01*
X13234380Y-14069080D01*
X13231219Y-14078955D01*
X13189205Y-14336927D01*
X13189144Y-14341600D01*
X13185946Y-14585936D01*
X13185784Y-14598275D01*
X11661100Y-14598275D01*
X11661100Y-12538266D01*
X11654345Y-12476084D01*
X11603215Y-12339695D01*
X11515861Y-12223139D01*
X11399305Y-12135785D01*
X11262916Y-12084655D01*
X11200734Y-12077900D01*
X8564466Y-12077900D01*
X8502284Y-12084655D01*
X8365895Y-12135785D01*
X8249339Y-12223139D01*
X8161985Y-12339695D01*
X8110855Y-12476084D01*
X8104100Y-12538266D01*
X8104100Y-12979893D01*
X8084098Y-13048014D01*
X8030442Y-13094507D01*
X7988316Y-13105478D01*
X7962964Y-13107540D01*
X7956003Y-13109795D01*
X7950063Y-13110982D01*
X7944188Y-13112371D01*
X7936919Y-13113218D01*
X7868270Y-13138136D01*
X7864142Y-13139553D01*
X7801664Y-13159793D01*
X7801662Y-13159794D01*
X7794701Y-13162049D01*
X7788446Y-13165845D01*
X7782972Y-13168351D01*
X7777542Y-13171070D01*
X7770663Y-13173567D01*
X7764543Y-13177580D01*
X7764542Y-13177580D01*
X7709624Y-13213586D01*
X7705920Y-13215923D01*
X7643493Y-13253805D01*
X7635116Y-13261203D01*
X7635092Y-13261176D01*
X7632100Y-13263829D01*
X7628867Y-13266532D01*
X7622748Y-13270544D01*
X7617716Y-13275856D01*
X7569472Y-13326783D01*
X7567094Y-13329225D01*
X3221489Y-17674830D01*
X3207077Y-17687216D01*
X3195482Y-17695749D01*
X3195477Y-17695754D01*
X3189582Y-17700092D01*
X3184843Y-17705670D01*
X3184840Y-17705673D01*
X3155365Y-17740368D01*
X3148435Y-17747884D01*
X3142740Y-17753579D01*
X3140460Y-17756461D01*
X3125119Y-17775851D01*
X3122328Y-17779255D01*
X3079809Y-17829303D01*
X3075067Y-17834885D01*
X3071739Y-17841401D01*
X3068372Y-17846450D01*
X3065205Y-17851579D01*
X3060666Y-17857316D01*
X3029745Y-17923475D01*
X3027842Y-17927369D01*
X2994631Y-17992408D01*
X2992892Y-17999516D01*
X2990793Y-18005159D01*
X2988876Y-18010922D01*
X2985778Y-18017550D01*
X2984288Y-18024712D01*
X2984288Y-18024713D01*
X2970914Y-18089012D01*
X2969944Y-18093296D01*
X2952592Y-18164210D01*
X2951900Y-18175364D01*
X2951864Y-18175362D01*
X2951625Y-18179355D01*
X2951251Y-18183547D01*
X2949760Y-18190715D01*
X2949958Y-18198032D01*
X2951854Y-18268121D01*
X2951900Y-18271528D01*
X2951900Y-36349500D01*
X2931898Y-36417621D01*
X2878242Y-36464114D01*
X2825900Y-36475500D01*
X2812266Y-36475500D01*
X2750084Y-36482255D01*
X2613695Y-36533385D01*
X2497139Y-36620739D01*
X2409785Y-36737295D01*
X2358655Y-36873684D01*
X2351900Y-36935866D01*
X2351900Y-38732134D01*
X2358655Y-38794316D01*
X2409785Y-38930705D01*
X2497139Y-39047261D01*
X2613695Y-39134615D01*
X2622104Y-39137767D01*
X2622105Y-39137768D01*
X2730851Y-39178535D01*
X2787616Y-39221176D01*
X2812316Y-39287738D01*
X2797109Y-39357087D01*
X2777716Y-39383568D01*
X2651029Y-39516138D01*
X2648115Y-39520410D01*
X2648114Y-39520411D01*
X2607495Y-39579957D01*
X2525143Y-39700680D01*
X2478116Y-39801992D01*
X2436769Y-39891067D01*
X2431088Y-39903305D01*
X2371389Y-40118570D01*
X2347651Y-40340695D01*
X2347948Y-40345848D01*
X2347948Y-40345851D01*
X2353411Y-40440590D01*
X2360510Y-40563715D01*
X2361647Y-40568761D01*
X2361648Y-40568767D01*
X2381519Y-40656939D01*
X2409622Y-40781639D01*
X2493666Y-40988616D01*
X2518856Y-41029723D01*
X2603855Y-41168428D01*
X2610387Y-41179088D01*
X2756650Y-41347938D01*
X2928526Y-41490632D01*
X3121400Y-41603338D01*
X3330092Y-41683030D01*
X3335160Y-41684061D01*
X3335163Y-41684062D01*
X3442417Y-41705883D01*
X3548997Y-41727567D01*
X3554172Y-41727757D01*
X3554174Y-41727757D01*
X3767073Y-41735564D01*
X3767077Y-41735564D01*
X3772237Y-41735753D01*
X3777357Y-41735097D01*
X3777359Y-41735097D01*
X3988688Y-41708025D01*
X3988689Y-41708025D01*
X3993816Y-41707368D01*
X3998766Y-41705883D01*
X4202829Y-41644661D01*
X4202834Y-41644659D01*
X4207784Y-41643174D01*
X4408394Y-41544896D01*
X4590260Y-41415173D01*
X4602675Y-41402802D01*
X4716879Y-41288996D01*
X4748496Y-41257489D01*
X4759459Y-41242233D01*
X4875835Y-41080277D01*
X4878853Y-41076077D01*
X4890773Y-41051960D01*
X4975536Y-40880453D01*
X4975537Y-40880451D01*
X4977830Y-40875811D01*
X5042770Y-40662069D01*
X5071929Y-40440590D01*
X5073556Y-40374000D01*
X5055252Y-40151361D01*
X5000831Y-39934702D01*
X4911754Y-39729840D01*
X4837536Y-39615117D01*
X4793222Y-39546617D01*
X4793220Y-39546614D01*
X4790414Y-39542277D01*
X4786932Y-39538450D01*
X4643198Y-39380488D01*
X4612146Y-39316642D01*
X4620541Y-39246143D01*
X4665717Y-39191375D01*
X4692161Y-39177706D01*
X4798697Y-39137767D01*
X4807105Y-39134615D01*
X4923661Y-39047261D01*
X5011015Y-38930705D01*
X5062145Y-38794316D01*
X5068900Y-38732134D01*
X5068900Y-38718500D01*
X5088902Y-38650379D01*
X5142558Y-38603886D01*
X5194900Y-38592500D01*
X7487700Y-38592500D01*
X7555821Y-38612502D01*
X7602314Y-38666158D01*
X7613700Y-38718500D01*
X7613700Y-38728134D01*
X7620455Y-38790316D01*
X7671585Y-38926705D01*
X7758939Y-39043261D01*
X7875495Y-39130615D01*
X8011884Y-39181745D01*
X8074066Y-39188500D01*
X10370334Y-39188500D01*
X10432516Y-39181745D01*
X10568905Y-39130615D01*
X10685461Y-39043261D01*
X10772815Y-38926705D01*
X10823945Y-38790316D01*
X10830700Y-38728134D01*
X10830700Y-38464500D01*
X10850702Y-38396379D01*
X10904358Y-38349886D01*
X10956700Y-38338500D01*
X12792629Y-38338500D01*
X12860750Y-38358502D01*
X12881724Y-38375405D01*
X17598940Y-43092621D01*
X17632966Y-43154933D01*
X17627901Y-43225748D01*
X17585354Y-43282584D01*
X17554076Y-43299698D01*
X17502095Y-43319185D01*
X17385539Y-43406539D01*
X17298185Y-43523095D01*
X17247055Y-43659484D01*
X17240300Y-43721666D01*
X17240300Y-43993293D01*
X17220298Y-44061414D01*
X17166642Y-44107907D01*
X17124516Y-44118878D01*
X17099164Y-44120940D01*
X17092203Y-44123195D01*
X17086263Y-44124382D01*
X17080388Y-44125771D01*
X17073119Y-44126618D01*
X17004470Y-44151536D01*
X17000342Y-44152953D01*
X16937864Y-44173193D01*
X16937862Y-44173194D01*
X16930901Y-44175449D01*
X16924646Y-44179245D01*
X16919172Y-44181751D01*
X16913742Y-44184470D01*
X16906863Y-44186967D01*
X16900743Y-44190980D01*
X16900742Y-44190980D01*
X16845824Y-44226986D01*
X16842120Y-44229323D01*
X16779693Y-44267205D01*
X16771316Y-44274603D01*
X16771292Y-44274576D01*
X16768300Y-44277229D01*
X16765067Y-44279932D01*
X16758948Y-44283944D01*
X16753916Y-44289256D01*
X16705672Y-44340183D01*
X16703294Y-44342625D01*
X12594089Y-48451830D01*
X12579677Y-48464216D01*
X12568082Y-48472749D01*
X12568077Y-48472754D01*
X12562182Y-48477092D01*
X12557443Y-48482670D01*
X12557440Y-48482673D01*
X12527965Y-48517368D01*
X12521035Y-48524884D01*
X12515340Y-48530579D01*
X12513060Y-48533461D01*
X12497719Y-48552851D01*
X12494928Y-48556255D01*
X12471679Y-48583621D01*
X12447667Y-48611885D01*
X12444339Y-48618401D01*
X12440972Y-48623450D01*
X12437805Y-48628579D01*
X12433266Y-48634316D01*
X12402345Y-48700475D01*
X12400442Y-48704369D01*
X12367231Y-48769408D01*
X12365492Y-48776516D01*
X12363393Y-48782159D01*
X12361476Y-48787922D01*
X12358378Y-48794550D01*
X12356888Y-48801712D01*
X12356888Y-48801713D01*
X12343514Y-48866012D01*
X12342544Y-48870296D01*
X12325192Y-48941210D01*
X12324500Y-48952364D01*
X12324464Y-48952362D01*
X12324225Y-48956355D01*
X12323851Y-48960547D01*
X12322360Y-48967715D01*
X12322558Y-48975032D01*
X12324454Y-49045121D01*
X12324500Y-49048528D01*
X12324500Y-50954500D01*
X12304498Y-51022621D01*
X12250842Y-51069114D01*
X12198500Y-51080500D01*
X12184866Y-51080500D01*
X12122684Y-51087255D01*
X11986295Y-51138385D01*
X11869739Y-51225739D01*
X11782385Y-51342295D01*
X11731255Y-51478684D01*
X11724500Y-51540866D01*
X11724500Y-53337134D01*
X11731255Y-53399316D01*
X11782385Y-53535705D01*
X11869739Y-53652261D01*
X11986295Y-53739615D01*
X11994704Y-53742767D01*
X11994705Y-53742768D01*
X12103451Y-53783535D01*
X12160216Y-53826176D01*
X12184916Y-53892738D01*
X12169709Y-53962087D01*
X12150316Y-53988568D01*
X12059837Y-54083249D01*
X12023629Y-54121138D01*
X12020715Y-54125410D01*
X12020714Y-54125411D01*
X11944295Y-54237438D01*
X11897743Y-54305680D01*
X11803688Y-54508305D01*
X11743989Y-54723570D01*
X11720251Y-54945695D01*
X11720548Y-54950848D01*
X11720548Y-54950851D01*
X11725875Y-55043234D01*
X11733110Y-55168715D01*
X11734247Y-55173761D01*
X11734248Y-55173767D01*
X11754119Y-55261939D01*
X11782222Y-55386639D01*
X11829573Y-55503251D01*
X11849202Y-55551591D01*
X11866266Y-55593616D01*
X11896541Y-55643020D01*
X11980025Y-55779254D01*
X11982987Y-55784088D01*
X12129250Y-55952938D01*
X12301126Y-56095632D01*
X12494000Y-56208338D01*
X12702692Y-56288030D01*
X12707760Y-56289061D01*
X12707763Y-56289062D01*
X12815017Y-56310883D01*
X12921597Y-56332567D01*
X12926772Y-56332757D01*
X12926774Y-56332757D01*
X13139673Y-56340564D01*
X13139677Y-56340564D01*
X13144837Y-56340753D01*
X13149957Y-56340097D01*
X13149959Y-56340097D01*
X13361288Y-56313025D01*
X13361289Y-56313025D01*
X13366416Y-56312368D01*
X13371366Y-56310883D01*
X13575429Y-56249661D01*
X13575434Y-56249659D01*
X13580384Y-56248174D01*
X13780994Y-56149896D01*
X13962860Y-56020173D01*
X14003392Y-55979783D01*
X14066644Y-55916751D01*
X14121096Y-55862489D01*
X14171456Y-55792406D01*
X14248435Y-55685277D01*
X14251453Y-55681077D01*
X14278230Y-55626899D01*
X14348136Y-55485453D01*
X14348137Y-55485451D01*
X14350430Y-55480811D01*
X14415370Y-55267069D01*
X14444529Y-55045590D01*
X14444611Y-55042240D01*
X14444915Y-55029800D01*
X17235326Y-55029800D01*
X17255191Y-55282203D01*
X17256345Y-55287010D01*
X17256346Y-55287016D01*
X17286927Y-55414393D01*
X17314295Y-55528391D01*
X17316188Y-55532962D01*
X17316189Y-55532964D01*
X17404981Y-55747326D01*
X17411184Y-55762302D01*
X17543472Y-55978176D01*
X17707902Y-56170698D01*
X17900424Y-56335128D01*
X18116298Y-56467416D01*
X18120868Y-56469309D01*
X18120872Y-56469311D01*
X18345636Y-56562411D01*
X18350209Y-56564305D01*
X18401722Y-56576672D01*
X18591584Y-56622254D01*
X18591590Y-56622255D01*
X18596397Y-56623409D01*
X18848800Y-56643274D01*
X19101203Y-56623409D01*
X19106010Y-56622255D01*
X19106016Y-56622254D01*
X19295878Y-56576672D01*
X19347391Y-56564305D01*
X19351964Y-56562411D01*
X19576728Y-56469311D01*
X19576732Y-56469309D01*
X19581302Y-56467416D01*
X19797176Y-56335128D01*
X19989698Y-56170698D01*
X19998835Y-56160000D01*
X32686502Y-56160000D01*
X32706457Y-56388087D01*
X32707881Y-56393400D01*
X32707881Y-56393402D01*
X32759560Y-56586267D01*
X32765716Y-56609243D01*
X32768039Y-56614224D01*
X32768039Y-56614225D01*
X32860151Y-56811762D01*
X32860154Y-56811767D01*
X32862477Y-56816749D01*
X32907038Y-56880388D01*
X32989811Y-56998600D01*
X32993802Y-57004300D01*
X33155700Y-57166198D01*
X33160208Y-57169355D01*
X33160211Y-57169357D01*
X33212703Y-57206112D01*
X33343251Y-57297523D01*
X33348233Y-57299846D01*
X33348238Y-57299849D01*
X33534499Y-57386703D01*
X33550757Y-57394284D01*
X33556065Y-57395706D01*
X33556067Y-57395707D01*
X33766598Y-57452119D01*
X33766600Y-57452119D01*
X33771913Y-57453543D01*
X34000000Y-57473498D01*
X34228087Y-57453543D01*
X34233400Y-57452119D01*
X34233402Y-57452119D01*
X34443933Y-57395707D01*
X34443935Y-57395706D01*
X34449243Y-57394284D01*
X34465501Y-57386703D01*
X34651762Y-57299849D01*
X34651767Y-57299846D01*
X34656749Y-57297523D01*
X34787297Y-57206112D01*
X34839789Y-57169357D01*
X34839792Y-57169355D01*
X34844300Y-57166198D01*
X35006198Y-57004300D01*
X35010190Y-56998600D01*
X35092962Y-56880388D01*
X35137523Y-56816749D01*
X35139846Y-56811767D01*
X35139849Y-56811762D01*
X35231961Y-56614225D01*
X35231961Y-56614224D01*
X35234284Y-56609243D01*
X35240441Y-56586267D01*
X35292119Y-56393402D01*
X35292119Y-56393400D01*
X35293543Y-56388087D01*
X35297053Y-56347966D01*
X36668257Y-56347966D01*
X36698565Y-56482446D01*
X36701645Y-56492275D01*
X36781770Y-56689603D01*
X36786413Y-56698794D01*
X36897694Y-56880388D01*
X36903777Y-56888699D01*
X37043213Y-57049667D01*
X37050580Y-57056883D01*
X37214434Y-57192916D01*
X37222881Y-57198831D01*
X37406756Y-57306279D01*
X37416042Y-57310729D01*
X37615001Y-57386703D01*
X37624899Y-57389579D01*
X37728250Y-57410606D01*
X37742299Y-57409410D01*
X37746000Y-57399065D01*
X37746000Y-57398517D01*
X38254000Y-57398517D01*
X38258064Y-57412359D01*
X38271478Y-57414393D01*
X38278184Y-57413534D01*
X38288262Y-57411392D01*
X38492255Y-57350191D01*
X38501842Y-57346433D01*
X38693095Y-57252739D01*
X38701945Y-57247464D01*
X38875328Y-57123792D01*
X38883200Y-57117139D01*
X39034052Y-56966812D01*
X39040730Y-56958965D01*
X39165003Y-56786020D01*
X39170313Y-56777183D01*
X39264670Y-56586267D01*
X39268469Y-56576672D01*
X39330377Y-56372910D01*
X39332555Y-56362837D01*
X39333986Y-56351962D01*
X39333363Y-56347966D01*
X41668257Y-56347966D01*
X41698565Y-56482446D01*
X41701645Y-56492275D01*
X41781770Y-56689603D01*
X41786413Y-56698794D01*
X41897694Y-56880388D01*
X41903777Y-56888699D01*
X42043213Y-57049667D01*
X42050580Y-57056883D01*
X42214434Y-57192916D01*
X42222881Y-57198831D01*
X42406756Y-57306279D01*
X42416042Y-57310729D01*
X42615001Y-57386703D01*
X42624899Y-57389579D01*
X42728250Y-57410606D01*
X42742299Y-57409410D01*
X42746000Y-57399065D01*
X42746000Y-57398517D01*
X43254000Y-57398517D01*
X43258064Y-57412359D01*
X43271478Y-57414393D01*
X43278184Y-57413534D01*
X43288262Y-57411392D01*
X43492255Y-57350191D01*
X43501842Y-57346433D01*
X43693095Y-57252739D01*
X43701945Y-57247464D01*
X43875328Y-57123792D01*
X43883200Y-57117139D01*
X44034052Y-56966812D01*
X44040730Y-56958965D01*
X44165003Y-56786020D01*
X44170313Y-56777183D01*
X44264670Y-56586267D01*
X44268469Y-56576672D01*
X44330377Y-56372910D01*
X44332555Y-56362837D01*
X44333986Y-56351962D01*
X44333363Y-56347966D01*
X46668257Y-56347966D01*
X46698565Y-56482446D01*
X46701645Y-56492275D01*
X46781770Y-56689603D01*
X46786413Y-56698794D01*
X46897694Y-56880388D01*
X46903777Y-56888699D01*
X47043213Y-57049667D01*
X47050580Y-57056883D01*
X47214434Y-57192916D01*
X47222881Y-57198831D01*
X47406756Y-57306279D01*
X47416042Y-57310729D01*
X47615001Y-57386703D01*
X47624899Y-57389579D01*
X47728250Y-57410606D01*
X47742299Y-57409410D01*
X47746000Y-57399065D01*
X47746000Y-57398517D01*
X48254000Y-57398517D01*
X48258064Y-57412359D01*
X48271478Y-57414393D01*
X48278184Y-57413534D01*
X48288262Y-57411392D01*
X48492255Y-57350191D01*
X48501842Y-57346433D01*
X48693095Y-57252739D01*
X48701945Y-57247464D01*
X48875328Y-57123792D01*
X48883200Y-57117139D01*
X49034052Y-56966812D01*
X49040730Y-56958965D01*
X49165003Y-56786020D01*
X49170313Y-56777183D01*
X49264670Y-56586267D01*
X49268469Y-56576672D01*
X49330377Y-56372910D01*
X49332555Y-56362837D01*
X49333986Y-56351962D01*
X49331775Y-56337778D01*
X49318617Y-56334000D01*
X48272115Y-56334000D01*
X48256876Y-56338475D01*
X48255671Y-56339865D01*
X48254000Y-56347548D01*
X48254000Y-57398517D01*
X47746000Y-57398517D01*
X47746000Y-56352115D01*
X47741525Y-56336876D01*
X47740135Y-56335671D01*
X47732452Y-56334000D01*
X46683225Y-56334000D01*
X46669694Y-56337973D01*
X46668257Y-56347966D01*
X44333363Y-56347966D01*
X44331775Y-56337778D01*
X44318617Y-56334000D01*
X43272115Y-56334000D01*
X43256876Y-56338475D01*
X43255671Y-56339865D01*
X43254000Y-56347548D01*
X43254000Y-57398517D01*
X42746000Y-57398517D01*
X42746000Y-56352115D01*
X42741525Y-56336876D01*
X42740135Y-56335671D01*
X42732452Y-56334000D01*
X41683225Y-56334000D01*
X41669694Y-56337973D01*
X41668257Y-56347966D01*
X39333363Y-56347966D01*
X39331775Y-56337778D01*
X39318617Y-56334000D01*
X38272115Y-56334000D01*
X38256876Y-56338475D01*
X38255671Y-56339865D01*
X38254000Y-56347548D01*
X38254000Y-57398517D01*
X37746000Y-57398517D01*
X37746000Y-56352115D01*
X37741525Y-56336876D01*
X37740135Y-56335671D01*
X37732452Y-56334000D01*
X36683225Y-56334000D01*
X36669694Y-56337973D01*
X36668257Y-56347966D01*
X35297053Y-56347966D01*
X35313498Y-56160000D01*
X35293543Y-55931913D01*
X35282553Y-55890897D01*
X35235707Y-55716067D01*
X35235706Y-55716065D01*
X35234284Y-55710757D01*
X35216498Y-55672614D01*
X35139849Y-55508238D01*
X35139846Y-55508233D01*
X35137523Y-55503251D01*
X35006198Y-55315700D01*
X34844300Y-55153802D01*
X34839792Y-55150645D01*
X34839789Y-55150643D01*
X34707345Y-55057905D01*
X34656749Y-55022477D01*
X34651767Y-55020154D01*
X34651762Y-55020151D01*
X34454225Y-54928039D01*
X34454224Y-54928039D01*
X34449243Y-54925716D01*
X34443935Y-54924294D01*
X34443933Y-54924293D01*
X34233402Y-54867881D01*
X34233400Y-54867881D01*
X34228087Y-54866457D01*
X34000000Y-54846502D01*
X33771913Y-54866457D01*
X33766600Y-54867881D01*
X33766598Y-54867881D01*
X33556067Y-54924293D01*
X33556065Y-54924294D01*
X33550757Y-54925716D01*
X33545776Y-54928039D01*
X33545775Y-54928039D01*
X33348238Y-55020151D01*
X33348233Y-55020154D01*
X33343251Y-55022477D01*
X33292655Y-55057905D01*
X33160211Y-55150643D01*
X33160208Y-55150645D01*
X33155700Y-55153802D01*
X32993802Y-55315700D01*
X32862477Y-55503251D01*
X32860154Y-55508233D01*
X32860151Y-55508238D01*
X32783502Y-55672614D01*
X32765716Y-55710757D01*
X32764294Y-55716065D01*
X32764293Y-55716067D01*
X32717447Y-55890897D01*
X32706457Y-55931913D01*
X32686502Y-56160000D01*
X19998835Y-56160000D01*
X20154128Y-55978176D01*
X20211101Y-55885205D01*
X20233301Y-55848978D01*
X20285949Y-55801347D01*
X20359682Y-55790246D01*
X20370545Y-55791898D01*
X20370546Y-55791898D01*
X20377783Y-55792999D01*
X20385075Y-55792406D01*
X20385078Y-55792406D01*
X20430452Y-55788715D01*
X20440667Y-55788300D01*
X20448727Y-55788300D01*
X20462017Y-55786751D01*
X20476941Y-55785011D01*
X20481316Y-55784578D01*
X20546773Y-55779254D01*
X20546776Y-55779253D01*
X20554071Y-55778660D01*
X20561035Y-55776404D01*
X20566994Y-55775213D01*
X20572849Y-55773829D01*
X20580115Y-55772982D01*
X20648761Y-55748065D01*
X20652889Y-55746648D01*
X20715370Y-55726407D01*
X20715372Y-55726406D01*
X20722333Y-55724151D01*
X20728588Y-55720355D01*
X20734062Y-55717849D01*
X20739492Y-55715130D01*
X20746371Y-55712633D01*
X20756831Y-55705775D01*
X20807410Y-55672614D01*
X20811114Y-55670277D01*
X20873541Y-55632395D01*
X20881918Y-55624997D01*
X20881942Y-55625024D01*
X20884934Y-55622371D01*
X20888167Y-55619668D01*
X20894286Y-55615656D01*
X20947562Y-55559417D01*
X20949940Y-55556975D01*
X26170311Y-50336604D01*
X26184723Y-50324218D01*
X26196318Y-50315685D01*
X26196323Y-50315680D01*
X26202218Y-50311342D01*
X26206957Y-50305764D01*
X26206960Y-50305761D01*
X26236435Y-50271066D01*
X26243365Y-50263550D01*
X26249060Y-50257855D01*
X26253918Y-50251714D01*
X26266681Y-50235583D01*
X26269472Y-50232179D01*
X26311991Y-50182131D01*
X26311992Y-50182129D01*
X26316733Y-50176549D01*
X26320061Y-50170033D01*
X26323428Y-50164984D01*
X26326595Y-50159855D01*
X26331134Y-50154118D01*
X26362055Y-50087959D01*
X26363961Y-50084059D01*
X26372231Y-50067864D01*
X26397169Y-50019026D01*
X26398908Y-50011917D01*
X26401004Y-50006283D01*
X26402923Y-50000513D01*
X26406022Y-49993884D01*
X26408445Y-49982239D01*
X26420890Y-49922405D01*
X26421861Y-49918116D01*
X26439208Y-49847224D01*
X26439900Y-49836070D01*
X26439935Y-49836072D01*
X26440175Y-49832100D01*
X26440552Y-49827879D01*
X26442041Y-49820719D01*
X26439946Y-49743292D01*
X26439900Y-49739884D01*
X26439900Y-48737093D01*
X26459902Y-48668972D01*
X26513558Y-48622479D01*
X26535163Y-48615057D01*
X26541716Y-48614345D01*
X26549111Y-48611573D01*
X26549114Y-48611572D01*
X26663422Y-48568720D01*
X26678105Y-48563215D01*
X26794661Y-48475861D01*
X26882015Y-48359305D01*
X26933145Y-48222916D01*
X26939900Y-48160734D01*
X26939900Y-47014466D01*
X26933145Y-46952284D01*
X26917660Y-46910977D01*
X26885168Y-46824304D01*
X26885166Y-46824301D01*
X26882015Y-46815895D01*
X26876627Y-46808706D01*
X26876494Y-46808463D01*
X26861324Y-46739106D01*
X26866648Y-46710692D01*
X26867828Y-46706882D01*
X26923690Y-46526420D01*
X26928787Y-46477931D01*
X26944232Y-46330978D01*
X26944232Y-46330977D01*
X26944876Y-46324850D01*
X26935016Y-46216505D01*
X26927065Y-46129143D01*
X26927064Y-46129140D01*
X26926506Y-46123004D01*
X26915508Y-46085634D01*
X26890304Y-46000000D01*
X32686502Y-46000000D01*
X32706457Y-46228087D01*
X32707881Y-46233400D01*
X32707881Y-46233402D01*
X32757992Y-46420415D01*
X32765716Y-46449243D01*
X32768039Y-46454224D01*
X32768039Y-46454225D01*
X32860151Y-46651762D01*
X32860154Y-46651767D01*
X32862477Y-46656749D01*
X32920144Y-46739106D01*
X32979801Y-46824304D01*
X32993802Y-46844300D01*
X33155700Y-47006198D01*
X33160208Y-47009355D01*
X33160211Y-47009357D01*
X33238389Y-47064098D01*
X33343251Y-47137523D01*
X33348233Y-47139846D01*
X33348238Y-47139849D01*
X33545775Y-47231961D01*
X33550757Y-47234284D01*
X33556065Y-47235706D01*
X33556067Y-47235707D01*
X33766598Y-47292119D01*
X33766600Y-47292119D01*
X33771913Y-47293543D01*
X34000000Y-47313498D01*
X34005475Y-47313019D01*
X34162913Y-47299245D01*
X34232518Y-47313234D01*
X34262990Y-47335671D01*
X36679977Y-49752658D01*
X36714003Y-49814970D01*
X36708938Y-49885785D01*
X36703348Y-49898008D01*
X36699385Y-49903295D01*
X36696234Y-49911700D01*
X36696233Y-49911702D01*
X36693829Y-49918116D01*
X36648255Y-50039684D01*
X36641500Y-50101866D01*
X36641500Y-51898134D01*
X36648255Y-51960316D01*
X36699385Y-52096705D01*
X36786739Y-52213261D01*
X36903295Y-52300615D01*
X36911704Y-52303767D01*
X36911705Y-52303768D01*
X37020451Y-52344535D01*
X37077216Y-52387176D01*
X37101916Y-52453738D01*
X37086709Y-52523087D01*
X37067316Y-52549568D01*
X36940629Y-52682138D01*
X36937715Y-52686410D01*
X36937714Y-52686411D01*
X36919838Y-52712617D01*
X36814743Y-52866680D01*
X36799003Y-52900590D01*
X36725980Y-53057905D01*
X36720688Y-53069305D01*
X36660989Y-53284570D01*
X36637251Y-53506695D01*
X36637548Y-53511848D01*
X36637548Y-53511851D01*
X36647898Y-53691353D01*
X36650110Y-53729715D01*
X36651247Y-53734761D01*
X36651248Y-53734767D01*
X36665386Y-53797500D01*
X36699222Y-53947639D01*
X36783266Y-54154616D01*
X36793132Y-54170716D01*
X36895935Y-54338475D01*
X36899987Y-54345088D01*
X37046250Y-54513938D01*
X37218126Y-54656632D01*
X37274549Y-54689603D01*
X37291955Y-54699774D01*
X37340679Y-54751412D01*
X37353750Y-54821195D01*
X37327019Y-54886967D01*
X37286562Y-54920327D01*
X37278457Y-54924546D01*
X37269738Y-54930036D01*
X37099433Y-55057905D01*
X37091726Y-55064748D01*
X36944590Y-55218717D01*
X36938104Y-55226727D01*
X36818098Y-55402649D01*
X36813000Y-55411623D01*
X36723338Y-55604783D01*
X36719775Y-55614470D01*
X36664389Y-55814183D01*
X36665912Y-55822607D01*
X36678292Y-55826000D01*
X39318344Y-55826000D01*
X39331875Y-55822027D01*
X39333180Y-55812947D01*
X39291214Y-55645875D01*
X39287894Y-55636124D01*
X39202972Y-55440814D01*
X39198105Y-55431739D01*
X39082426Y-55252926D01*
X39076136Y-55244757D01*
X38932806Y-55087240D01*
X38925273Y-55080215D01*
X38758139Y-54948222D01*
X38749556Y-54942520D01*
X38712602Y-54922120D01*
X38662631Y-54871687D01*
X38647859Y-54802245D01*
X38672975Y-54735839D01*
X38700327Y-54709232D01*
X38727846Y-54689603D01*
X38879860Y-54581173D01*
X38926125Y-54535070D01*
X39034435Y-54427137D01*
X39038096Y-54423489D01*
X39074441Y-54372910D01*
X39165435Y-54246277D01*
X39168453Y-54242077D01*
X39181043Y-54216604D01*
X39265136Y-54046453D01*
X39265137Y-54046451D01*
X39267430Y-54041811D01*
X39312888Y-53892193D01*
X39330865Y-53833023D01*
X39330865Y-53833021D01*
X39332370Y-53828069D01*
X39361529Y-53606590D01*
X39362355Y-53572774D01*
X39363074Y-53543365D01*
X39363074Y-53543361D01*
X39363156Y-53540000D01*
X39344852Y-53317361D01*
X39290431Y-53100702D01*
X39201354Y-52895840D01*
X39110921Y-52756052D01*
X39082822Y-52712617D01*
X39082820Y-52712614D01*
X39080014Y-52708277D01*
X39060620Y-52686963D01*
X38932798Y-52546488D01*
X38901746Y-52482642D01*
X38910141Y-52412143D01*
X38955317Y-52357375D01*
X38981761Y-52343706D01*
X39088297Y-52303767D01*
X39096705Y-52300615D01*
X39213261Y-52213261D01*
X39300615Y-52096705D01*
X39351745Y-51960316D01*
X39358500Y-51898134D01*
X39358500Y-51884500D01*
X39378502Y-51816379D01*
X39432158Y-51769886D01*
X39484500Y-51758500D01*
X41515500Y-51758500D01*
X41583621Y-51778502D01*
X41630114Y-51832158D01*
X41641500Y-51884500D01*
X41641500Y-51898134D01*
X41648255Y-51960316D01*
X41699385Y-52096705D01*
X41786739Y-52213261D01*
X41903295Y-52300615D01*
X41911704Y-52303767D01*
X41911705Y-52303768D01*
X42020451Y-52344535D01*
X42077216Y-52387176D01*
X42101916Y-52453738D01*
X42086709Y-52523087D01*
X42067316Y-52549568D01*
X41940629Y-52682138D01*
X41937715Y-52686410D01*
X41937714Y-52686411D01*
X41919838Y-52712617D01*
X41814743Y-52866680D01*
X41799003Y-52900590D01*
X41725980Y-53057905D01*
X41720688Y-53069305D01*
X41660989Y-53284570D01*
X41637251Y-53506695D01*
X41637548Y-53511848D01*
X41637548Y-53511851D01*
X41647898Y-53691353D01*
X41650110Y-53729715D01*
X41651247Y-53734761D01*
X41651248Y-53734767D01*
X41665386Y-53797500D01*
X41699222Y-53947639D01*
X41783266Y-54154616D01*
X41793132Y-54170716D01*
X41895935Y-54338475D01*
X41899987Y-54345088D01*
X42046250Y-54513938D01*
X42218126Y-54656632D01*
X42274549Y-54689603D01*
X42291955Y-54699774D01*
X42340679Y-54751412D01*
X42353750Y-54821195D01*
X42327019Y-54886967D01*
X42286562Y-54920327D01*
X42278457Y-54924546D01*
X42269738Y-54930036D01*
X42099433Y-55057905D01*
X42091726Y-55064748D01*
X41944590Y-55218717D01*
X41938104Y-55226727D01*
X41818098Y-55402649D01*
X41813000Y-55411623D01*
X41723338Y-55604783D01*
X41719775Y-55614470D01*
X41664389Y-55814183D01*
X41665912Y-55822607D01*
X41678292Y-55826000D01*
X44318344Y-55826000D01*
X44331875Y-55822027D01*
X44333180Y-55812947D01*
X44291214Y-55645875D01*
X44287894Y-55636124D01*
X44202972Y-55440814D01*
X44198105Y-55431739D01*
X44082426Y-55252926D01*
X44076136Y-55244757D01*
X43932806Y-55087240D01*
X43925273Y-55080215D01*
X43758139Y-54948222D01*
X43749556Y-54942520D01*
X43712602Y-54922120D01*
X43662631Y-54871687D01*
X43647859Y-54802245D01*
X43672975Y-54735839D01*
X43700327Y-54709232D01*
X43727846Y-54689603D01*
X43879860Y-54581173D01*
X43926125Y-54535070D01*
X44034435Y-54427137D01*
X44038096Y-54423489D01*
X44074441Y-54372910D01*
X44165435Y-54246277D01*
X44168453Y-54242077D01*
X44181043Y-54216604D01*
X44265136Y-54046453D01*
X44265137Y-54046451D01*
X44267430Y-54041811D01*
X44312888Y-53892193D01*
X44330865Y-53833023D01*
X44330865Y-53833021D01*
X44332370Y-53828069D01*
X44361529Y-53606590D01*
X44362355Y-53572774D01*
X44363074Y-53543365D01*
X44363074Y-53543361D01*
X44363156Y-53540000D01*
X44344852Y-53317361D01*
X44290431Y-53100702D01*
X44201354Y-52895840D01*
X44110921Y-52756052D01*
X44082822Y-52712617D01*
X44082820Y-52712614D01*
X44080014Y-52708277D01*
X44060620Y-52686963D01*
X43932798Y-52546488D01*
X43901746Y-52482642D01*
X43910141Y-52412143D01*
X43955317Y-52357375D01*
X43981761Y-52343706D01*
X44088297Y-52303767D01*
X44096705Y-52300615D01*
X44213261Y-52213261D01*
X44300615Y-52096705D01*
X44351745Y-51960316D01*
X44358500Y-51898134D01*
X44358500Y-51884500D01*
X44378502Y-51816379D01*
X44432158Y-51769886D01*
X44484500Y-51758500D01*
X46515500Y-51758500D01*
X46583621Y-51778502D01*
X46630114Y-51832158D01*
X46641500Y-51884500D01*
X46641500Y-51898134D01*
X46648255Y-51960316D01*
X46699385Y-52096705D01*
X46786739Y-52213261D01*
X46903295Y-52300615D01*
X46911704Y-52303767D01*
X46911705Y-52303768D01*
X47020451Y-52344535D01*
X47077216Y-52387176D01*
X47101916Y-52453738D01*
X47086709Y-52523087D01*
X47067316Y-52549568D01*
X46940629Y-52682138D01*
X46937715Y-52686410D01*
X46937714Y-52686411D01*
X46919838Y-52712617D01*
X46814743Y-52866680D01*
X46799003Y-52900590D01*
X46725980Y-53057905D01*
X46720688Y-53069305D01*
X46660989Y-53284570D01*
X46637251Y-53506695D01*
X46637548Y-53511848D01*
X46637548Y-53511851D01*
X46647898Y-53691353D01*
X46650110Y-53729715D01*
X46651247Y-53734761D01*
X46651248Y-53734767D01*
X46665386Y-53797500D01*
X46699222Y-53947639D01*
X46783266Y-54154616D01*
X46793132Y-54170716D01*
X46895935Y-54338475D01*
X46899987Y-54345088D01*
X47046250Y-54513938D01*
X47218126Y-54656632D01*
X47274549Y-54689603D01*
X47291955Y-54699774D01*
X47340679Y-54751412D01*
X47353750Y-54821195D01*
X47327019Y-54886967D01*
X47286562Y-54920327D01*
X47278457Y-54924546D01*
X47269738Y-54930036D01*
X47099433Y-55057905D01*
X47091726Y-55064748D01*
X46944590Y-55218717D01*
X46938104Y-55226727D01*
X46818098Y-55402649D01*
X46813000Y-55411623D01*
X46723338Y-55604783D01*
X46719775Y-55614470D01*
X46664389Y-55814183D01*
X46665912Y-55822607D01*
X46678292Y-55826000D01*
X49318344Y-55826000D01*
X49331875Y-55822027D01*
X49333180Y-55812947D01*
X49291214Y-55645875D01*
X49287894Y-55636124D01*
X49202972Y-55440814D01*
X49198105Y-55431739D01*
X49082426Y-55252926D01*
X49076136Y-55244757D01*
X48932806Y-55087240D01*
X48925273Y-55080215D01*
X48883727Y-55047404D01*
X52736941Y-55047404D01*
X52737304Y-55051552D01*
X52737304Y-55051556D01*
X52740426Y-55087240D01*
X52763091Y-55346292D01*
X52764001Y-55350364D01*
X52764002Y-55350369D01*
X52827042Y-55632395D01*
X52828540Y-55639095D01*
X52829984Y-55643018D01*
X52829984Y-55643020D01*
X52854120Y-55708620D01*
X52932140Y-55920671D01*
X52934084Y-55924359D01*
X52934088Y-55924367D01*
X53030805Y-56107807D01*
X53072069Y-56186071D01*
X53245871Y-56430633D01*
X53450490Y-56650061D01*
X53453715Y-56652710D01*
X53658909Y-56821257D01*
X53682333Y-56840498D01*
X53937325Y-56998600D01*
X54210988Y-57121589D01*
X54347554Y-57162301D01*
X54494514Y-57206112D01*
X54494516Y-57206112D01*
X54498513Y-57207304D01*
X54502633Y-57207957D01*
X54502635Y-57207957D01*
X54621509Y-57226785D01*
X54794848Y-57254239D01*
X54837577Y-57256179D01*
X54887262Y-57258436D01*
X54887281Y-57258436D01*
X54888681Y-57258500D01*
X55076107Y-57258500D01*
X55299370Y-57243671D01*
X55303464Y-57242846D01*
X55303468Y-57242845D01*
X55444513Y-57214405D01*
X55593480Y-57184368D01*
X55877163Y-57086688D01*
X55880896Y-57084819D01*
X55880900Y-57084817D01*
X56141691Y-56954222D01*
X56141693Y-56954221D01*
X56145435Y-56952347D01*
X56338329Y-56821257D01*
X56390125Y-56786057D01*
X56390128Y-56786055D01*
X56393584Y-56783706D01*
X56617248Y-56583726D01*
X56716938Y-56467416D01*
X56809779Y-56359097D01*
X56809782Y-56359093D01*
X56812499Y-56355923D01*
X56814773Y-56352421D01*
X56814777Y-56352416D01*
X56973628Y-56107807D01*
X56973631Y-56107802D01*
X56975907Y-56104297D01*
X56980022Y-56095632D01*
X57085550Y-55873389D01*
X57104600Y-55833270D01*
X57114850Y-55801347D01*
X57195038Y-55551591D01*
X57195038Y-55551590D01*
X57196318Y-55547604D01*
X57244071Y-55282203D01*
X57248709Y-55256425D01*
X57248710Y-55256420D01*
X57249448Y-55252316D01*
X57249669Y-55247464D01*
X57262870Y-54956766D01*
X57262870Y-54956760D01*
X57263059Y-54952596D01*
X57262677Y-54948222D01*
X57237273Y-54657870D01*
X57236909Y-54653708D01*
X57219690Y-54576672D01*
X57172372Y-54364984D01*
X57172371Y-54364981D01*
X57171460Y-54360905D01*
X57165641Y-54345088D01*
X57098626Y-54162948D01*
X57067860Y-54079329D01*
X57065916Y-54075641D01*
X57065912Y-54075633D01*
X56929884Y-53817633D01*
X56929883Y-53817632D01*
X56927931Y-53813929D01*
X56754129Y-53569367D01*
X56549510Y-53349939D01*
X56317667Y-53159502D01*
X56062675Y-53001400D01*
X55789012Y-52878411D01*
X55566627Y-52812115D01*
X55505486Y-52793888D01*
X55505484Y-52793888D01*
X55501487Y-52792696D01*
X55497367Y-52792043D01*
X55497365Y-52792043D01*
X55354011Y-52769338D01*
X55205152Y-52745761D01*
X55162423Y-52743821D01*
X55112738Y-52741564D01*
X55112719Y-52741564D01*
X55111319Y-52741500D01*
X54923893Y-52741500D01*
X54700630Y-52756329D01*
X54696536Y-52757154D01*
X54696532Y-52757155D01*
X54555487Y-52785595D01*
X54406520Y-52815632D01*
X54122837Y-52913312D01*
X54119104Y-52915181D01*
X54119100Y-52915183D01*
X53876493Y-53036672D01*
X53854565Y-53047653D01*
X53606416Y-53216294D01*
X53603300Y-53219080D01*
X53594747Y-53226727D01*
X53382752Y-53416274D01*
X53380035Y-53419444D01*
X53380034Y-53419445D01*
X53194318Y-53636124D01*
X53187501Y-53644077D01*
X53185227Y-53647579D01*
X53185223Y-53647584D01*
X53026372Y-53892193D01*
X53024093Y-53895703D01*
X52895400Y-54166730D01*
X52894121Y-54170713D01*
X52894120Y-54170716D01*
X52840772Y-54336876D01*
X52803682Y-54452396D01*
X52802941Y-54456515D01*
X52754891Y-54723570D01*
X52750552Y-54747684D01*
X52750363Y-54751851D01*
X52750362Y-54751858D01*
X52737130Y-55043234D01*
X52736941Y-55047404D01*
X48883727Y-55047404D01*
X48758139Y-54948222D01*
X48749556Y-54942520D01*
X48712602Y-54922120D01*
X48662631Y-54871687D01*
X48647859Y-54802245D01*
X48672975Y-54735839D01*
X48700327Y-54709232D01*
X48727846Y-54689603D01*
X48879860Y-54581173D01*
X48926125Y-54535070D01*
X49034435Y-54427137D01*
X49038096Y-54423489D01*
X49074441Y-54372910D01*
X49165435Y-54246277D01*
X49168453Y-54242077D01*
X49181043Y-54216604D01*
X49265136Y-54046453D01*
X49265137Y-54046451D01*
X49267430Y-54041811D01*
X49312888Y-53892193D01*
X49330865Y-53833023D01*
X49330865Y-53833021D01*
X49332370Y-53828069D01*
X49361529Y-53606590D01*
X49362355Y-53572774D01*
X49363074Y-53543365D01*
X49363074Y-53543361D01*
X49363156Y-53540000D01*
X49344852Y-53317361D01*
X49290431Y-53100702D01*
X49201354Y-52895840D01*
X49110921Y-52756052D01*
X49082822Y-52712617D01*
X49082820Y-52712614D01*
X49080014Y-52708277D01*
X49060620Y-52686963D01*
X48932798Y-52546488D01*
X48901746Y-52482642D01*
X48910141Y-52412143D01*
X48955317Y-52357375D01*
X48981761Y-52343706D01*
X49088297Y-52303767D01*
X49096705Y-52300615D01*
X49213261Y-52213261D01*
X49300615Y-52096705D01*
X49351745Y-51960316D01*
X49358500Y-51898134D01*
X49358500Y-51876507D01*
X49378502Y-51808386D01*
X49432158Y-51761893D01*
X49474286Y-51750922D01*
X49476048Y-51750779D01*
X49492339Y-51749454D01*
X49492342Y-51749453D01*
X49499637Y-51748860D01*
X49506601Y-51746604D01*
X49512560Y-51745413D01*
X49518415Y-51744029D01*
X49525681Y-51743182D01*
X49594327Y-51718265D01*
X49598455Y-51716848D01*
X49660936Y-51696607D01*
X49660938Y-51696606D01*
X49667899Y-51694351D01*
X49674154Y-51690555D01*
X49679628Y-51688049D01*
X49685058Y-51685330D01*
X49691937Y-51682833D01*
X49752976Y-51642814D01*
X49756680Y-51640477D01*
X49819107Y-51602595D01*
X49827484Y-51595197D01*
X49827508Y-51595224D01*
X49830500Y-51592571D01*
X49833733Y-51589868D01*
X49839852Y-51585856D01*
X49893128Y-51529617D01*
X49895506Y-51527175D01*
X50093733Y-51328948D01*
X50113742Y-51312671D01*
X50158988Y-51283006D01*
X50162709Y-51280659D01*
X50220305Y-51245709D01*
X50220306Y-51245709D01*
X50225107Y-51242795D01*
X50233484Y-51235397D01*
X50233508Y-51235424D01*
X50236500Y-51232771D01*
X50239733Y-51230068D01*
X50245852Y-51226056D01*
X50299128Y-51169817D01*
X50301506Y-51167375D01*
X50571276Y-50897605D01*
X50633588Y-50863579D01*
X50660371Y-50860700D01*
X58030229Y-50860700D01*
X58098350Y-50880702D01*
X58119324Y-50897605D01*
X60683030Y-53461311D01*
X60695416Y-53475723D01*
X60703949Y-53487318D01*
X60703954Y-53487323D01*
X60708292Y-53493218D01*
X60713870Y-53497957D01*
X60713873Y-53497960D01*
X60748568Y-53527435D01*
X60756084Y-53534365D01*
X60761780Y-53540061D01*
X60764641Y-53542324D01*
X60764646Y-53542329D01*
X60784066Y-53557693D01*
X60787467Y-53560482D01*
X60843085Y-53607733D01*
X60849598Y-53611059D01*
X60854637Y-53614420D01*
X60859779Y-53617596D01*
X60865516Y-53622134D01*
X60931675Y-53653055D01*
X60935569Y-53654958D01*
X61000608Y-53688169D01*
X61007717Y-53689908D01*
X61013351Y-53692004D01*
X61019121Y-53693923D01*
X61025750Y-53697022D01*
X61032913Y-53698512D01*
X61032916Y-53698513D01*
X61075950Y-53707464D01*
X61097235Y-53711891D01*
X61101501Y-53712857D01*
X61172410Y-53730208D01*
X61178012Y-53730556D01*
X61178015Y-53730556D01*
X61183564Y-53730900D01*
X61183562Y-53730935D01*
X61187534Y-53731175D01*
X61191755Y-53731552D01*
X61198915Y-53733041D01*
X61276342Y-53730946D01*
X61279750Y-53730900D01*
X68037829Y-53730900D01*
X68105950Y-53750902D01*
X68126924Y-53767805D01*
X72367030Y-58007911D01*
X72379416Y-58022323D01*
X72387949Y-58033918D01*
X72387954Y-58033923D01*
X72392292Y-58039818D01*
X72397870Y-58044557D01*
X72397873Y-58044560D01*
X72432568Y-58074035D01*
X72440084Y-58080965D01*
X72445779Y-58086660D01*
X72448661Y-58088940D01*
X72468051Y-58104281D01*
X72471455Y-58107072D01*
X72521503Y-58149591D01*
X72527085Y-58154333D01*
X72533601Y-58157661D01*
X72538650Y-58161028D01*
X72543779Y-58164195D01*
X72549516Y-58168734D01*
X72615675Y-58199655D01*
X72619569Y-58201558D01*
X72684608Y-58234769D01*
X72691716Y-58236508D01*
X72697359Y-58238607D01*
X72703122Y-58240524D01*
X72709750Y-58243622D01*
X72716912Y-58245112D01*
X72716913Y-58245112D01*
X72781212Y-58258486D01*
X72785496Y-58259456D01*
X72856410Y-58276808D01*
X72862012Y-58277156D01*
X72862015Y-58277156D01*
X72867564Y-58277500D01*
X72867562Y-58277536D01*
X72871555Y-58277775D01*
X72875747Y-58278149D01*
X72882915Y-58279640D01*
X72960320Y-58277546D01*
X72963728Y-58277500D01*
X76947730Y-58277500D01*
X76966680Y-58278933D01*
X76980915Y-58281099D01*
X76980919Y-58281099D01*
X76988149Y-58282199D01*
X76995441Y-58281606D01*
X76995444Y-58281606D01*
X77040818Y-58277915D01*
X77051033Y-58277500D01*
X77059093Y-58277500D01*
X77076480Y-58275473D01*
X77087307Y-58274211D01*
X77091682Y-58273778D01*
X77157139Y-58268454D01*
X77157142Y-58268453D01*
X77164437Y-58267860D01*
X77171401Y-58265604D01*
X77177360Y-58264413D01*
X77183215Y-58263029D01*
X77190481Y-58262182D01*
X77259127Y-58237265D01*
X77263255Y-58235848D01*
X77325736Y-58215607D01*
X77325738Y-58215606D01*
X77332699Y-58213351D01*
X77338954Y-58209555D01*
X77344428Y-58207049D01*
X77349858Y-58204330D01*
X77356737Y-58201833D01*
X77362858Y-58197820D01*
X77417776Y-58161814D01*
X77421480Y-58159477D01*
X77483907Y-58121595D01*
X77492284Y-58114197D01*
X77492308Y-58114224D01*
X77495300Y-58111571D01*
X77498533Y-58108868D01*
X77504652Y-58104856D01*
X77557928Y-58048617D01*
X77560306Y-58046175D01*
X79561111Y-56045370D01*
X79575523Y-56032984D01*
X79587118Y-56024451D01*
X79587123Y-56024446D01*
X79593018Y-56020108D01*
X79597757Y-56014530D01*
X79597760Y-56014527D01*
X79627235Y-55979832D01*
X79634165Y-55972316D01*
X79639860Y-55966621D01*
X79648073Y-55956240D01*
X79657481Y-55944349D01*
X79660272Y-55940945D01*
X79702791Y-55890897D01*
X79702792Y-55890895D01*
X79707533Y-55885315D01*
X79710861Y-55878799D01*
X79714228Y-55873750D01*
X79717395Y-55868621D01*
X79721934Y-55862884D01*
X79752855Y-55796725D01*
X79754761Y-55792825D01*
X79758972Y-55784578D01*
X79787969Y-55727792D01*
X79789708Y-55720684D01*
X79791807Y-55715041D01*
X79793724Y-55709278D01*
X79796822Y-55702650D01*
X79803070Y-55672614D01*
X79811686Y-55631188D01*
X79812657Y-55626899D01*
X79818069Y-55604783D01*
X79830008Y-55555990D01*
X79830700Y-55544836D01*
X79830736Y-55544838D01*
X79830975Y-55540845D01*
X79831349Y-55536653D01*
X79832840Y-55529485D01*
X79830746Y-55452079D01*
X79830700Y-55448672D01*
X79830700Y-54347966D01*
X81668257Y-54347966D01*
X81698565Y-54482446D01*
X81701645Y-54492275D01*
X81781770Y-54689603D01*
X81786413Y-54698794D01*
X81897694Y-54880388D01*
X81903777Y-54888699D01*
X82043213Y-55049667D01*
X82050580Y-55056883D01*
X82214434Y-55192916D01*
X82222881Y-55198831D01*
X82406756Y-55306279D01*
X82416042Y-55310729D01*
X82615001Y-55386703D01*
X82624899Y-55389579D01*
X82728250Y-55410606D01*
X82742299Y-55409410D01*
X82746000Y-55399065D01*
X82746000Y-55398517D01*
X83254000Y-55398517D01*
X83258064Y-55412359D01*
X83271478Y-55414393D01*
X83278184Y-55413534D01*
X83288262Y-55411392D01*
X83492255Y-55350191D01*
X83501842Y-55346433D01*
X83693095Y-55252739D01*
X83701945Y-55247464D01*
X83875328Y-55123792D01*
X83883200Y-55117139D01*
X83953179Y-55047404D01*
X102736941Y-55047404D01*
X102737304Y-55051552D01*
X102737304Y-55051556D01*
X102740426Y-55087240D01*
X102763091Y-55346292D01*
X102764001Y-55350364D01*
X102764002Y-55350369D01*
X102827042Y-55632395D01*
X102828540Y-55639095D01*
X102829984Y-55643018D01*
X102829984Y-55643020D01*
X102854120Y-55708620D01*
X102932140Y-55920671D01*
X102934084Y-55924359D01*
X102934088Y-55924367D01*
X103030805Y-56107807D01*
X103072069Y-56186071D01*
X103245871Y-56430633D01*
X103450490Y-56650061D01*
X103453715Y-56652710D01*
X103658909Y-56821257D01*
X103682333Y-56840498D01*
X103937325Y-56998600D01*
X104210988Y-57121589D01*
X104347554Y-57162301D01*
X104494514Y-57206112D01*
X104494516Y-57206112D01*
X104498513Y-57207304D01*
X104502633Y-57207957D01*
X104502635Y-57207957D01*
X104621509Y-57226785D01*
X104794848Y-57254239D01*
X104837577Y-57256179D01*
X104887262Y-57258436D01*
X104887281Y-57258436D01*
X104888681Y-57258500D01*
X105076107Y-57258500D01*
X105299370Y-57243671D01*
X105303464Y-57242846D01*
X105303468Y-57242845D01*
X105444513Y-57214405D01*
X105593480Y-57184368D01*
X105877163Y-57086688D01*
X105880896Y-57084819D01*
X105880900Y-57084817D01*
X106141691Y-56954222D01*
X106141693Y-56954221D01*
X106145435Y-56952347D01*
X106338329Y-56821257D01*
X106390125Y-56786057D01*
X106390128Y-56786055D01*
X106393584Y-56783706D01*
X106617248Y-56583726D01*
X106716938Y-56467416D01*
X106809779Y-56359097D01*
X106809782Y-56359093D01*
X106812499Y-56355923D01*
X106814773Y-56352421D01*
X106814777Y-56352416D01*
X106973628Y-56107807D01*
X106973631Y-56107802D01*
X106975907Y-56104297D01*
X106980022Y-56095632D01*
X107085550Y-55873389D01*
X107104600Y-55833270D01*
X107114850Y-55801347D01*
X107195038Y-55551591D01*
X107195038Y-55551590D01*
X107196318Y-55547604D01*
X107244071Y-55282203D01*
X107248709Y-55256425D01*
X107248710Y-55256420D01*
X107249448Y-55252316D01*
X107249669Y-55247464D01*
X107262870Y-54956766D01*
X107262870Y-54956760D01*
X107263059Y-54952596D01*
X107262677Y-54948222D01*
X107237273Y-54657870D01*
X107236909Y-54653708D01*
X107219690Y-54576672D01*
X107172372Y-54364984D01*
X107172371Y-54364981D01*
X107171460Y-54360905D01*
X107165641Y-54345088D01*
X107098626Y-54162948D01*
X107067860Y-54079329D01*
X107065916Y-54075641D01*
X107065912Y-54075633D01*
X106929884Y-53817633D01*
X106929883Y-53817632D01*
X106927931Y-53813929D01*
X106754129Y-53569367D01*
X106549510Y-53349939D01*
X106317667Y-53159502D01*
X106062675Y-53001400D01*
X105789012Y-52878411D01*
X105566627Y-52812115D01*
X105505486Y-52793888D01*
X105505484Y-52793888D01*
X105501487Y-52792696D01*
X105497367Y-52792043D01*
X105497365Y-52792043D01*
X105354011Y-52769338D01*
X105205152Y-52745761D01*
X105162423Y-52743821D01*
X105112738Y-52741564D01*
X105112719Y-52741564D01*
X105111319Y-52741500D01*
X104923893Y-52741500D01*
X104700630Y-52756329D01*
X104696536Y-52757154D01*
X104696532Y-52757155D01*
X104555487Y-52785595D01*
X104406520Y-52815632D01*
X104122837Y-52913312D01*
X104119104Y-52915181D01*
X104119100Y-52915183D01*
X103876493Y-53036672D01*
X103854565Y-53047653D01*
X103606416Y-53216294D01*
X103603300Y-53219080D01*
X103594747Y-53226727D01*
X103382752Y-53416274D01*
X103380035Y-53419444D01*
X103380034Y-53419445D01*
X103194318Y-53636124D01*
X103187501Y-53644077D01*
X103185227Y-53647579D01*
X103185223Y-53647584D01*
X103026372Y-53892193D01*
X103024093Y-53895703D01*
X102895400Y-54166730D01*
X102894121Y-54170713D01*
X102894120Y-54170716D01*
X102840772Y-54336876D01*
X102803682Y-54452396D01*
X102802941Y-54456515D01*
X102754891Y-54723570D01*
X102750552Y-54747684D01*
X102750363Y-54751851D01*
X102750362Y-54751858D01*
X102737130Y-55043234D01*
X102736941Y-55047404D01*
X83953179Y-55047404D01*
X84034052Y-54966812D01*
X84040730Y-54958965D01*
X84165003Y-54786020D01*
X84170313Y-54777183D01*
X84264670Y-54586267D01*
X84268469Y-54576672D01*
X84330377Y-54372910D01*
X84332555Y-54362837D01*
X84333986Y-54351962D01*
X84331775Y-54337778D01*
X84318617Y-54334000D01*
X83272115Y-54334000D01*
X83256876Y-54338475D01*
X83255671Y-54339865D01*
X83254000Y-54347548D01*
X83254000Y-55398517D01*
X82746000Y-55398517D01*
X82746000Y-54352115D01*
X82741525Y-54336876D01*
X82740135Y-54335671D01*
X82732452Y-54334000D01*
X81683225Y-54334000D01*
X81669694Y-54337973D01*
X81668257Y-54347966D01*
X79830700Y-54347966D01*
X79830700Y-51944171D01*
X79850702Y-51876050D01*
X79867605Y-51855076D01*
X81565173Y-50157508D01*
X81627485Y-50123482D01*
X81698300Y-50128547D01*
X81755093Y-50171037D01*
X81781356Y-50206079D01*
X81786739Y-50213261D01*
X81903295Y-50300615D01*
X81911704Y-50303767D01*
X81911705Y-50303768D01*
X82020451Y-50344535D01*
X82077216Y-50387176D01*
X82101916Y-50453738D01*
X82086709Y-50523087D01*
X82067316Y-50549568D01*
X81940629Y-50682138D01*
X81937715Y-50686410D01*
X81937714Y-50686411D01*
X81852556Y-50811249D01*
X81814743Y-50866680D01*
X81767844Y-50967715D01*
X81723400Y-51063463D01*
X81720688Y-51069305D01*
X81660989Y-51284570D01*
X81637251Y-51506695D01*
X81637548Y-51511848D01*
X81637548Y-51511851D01*
X81647175Y-51678820D01*
X81650110Y-51729715D01*
X81651247Y-51734761D01*
X81651248Y-51734767D01*
X81669641Y-51816379D01*
X81699222Y-51947639D01*
X81783266Y-52154616D01*
X81785965Y-52159020D01*
X81895072Y-52337067D01*
X81899987Y-52345088D01*
X82046250Y-52513938D01*
X82218126Y-52656632D01*
X82262204Y-52682389D01*
X82291955Y-52699774D01*
X82340679Y-52751412D01*
X82353750Y-52821195D01*
X82327019Y-52886967D01*
X82286562Y-52920327D01*
X82278457Y-52924546D01*
X82269738Y-52930036D01*
X82099433Y-53057905D01*
X82091726Y-53064748D01*
X81944590Y-53218717D01*
X81938104Y-53226727D01*
X81818098Y-53402649D01*
X81813000Y-53411623D01*
X81723338Y-53604783D01*
X81719775Y-53614470D01*
X81664389Y-53814183D01*
X81665912Y-53822607D01*
X81678292Y-53826000D01*
X84318344Y-53826000D01*
X84331875Y-53822027D01*
X84333180Y-53812947D01*
X84291214Y-53645875D01*
X84287894Y-53636124D01*
X84202972Y-53440814D01*
X84198105Y-53431739D01*
X84082426Y-53252926D01*
X84076136Y-53244757D01*
X83932806Y-53087240D01*
X83925273Y-53080215D01*
X83758139Y-52948222D01*
X83749556Y-52942520D01*
X83712602Y-52922120D01*
X83662631Y-52871687D01*
X83649076Y-52807966D01*
X90668257Y-52807966D01*
X90698565Y-52942446D01*
X90701645Y-52952275D01*
X90781770Y-53149603D01*
X90786413Y-53158794D01*
X90897694Y-53340388D01*
X90903777Y-53348699D01*
X91043213Y-53509667D01*
X91050580Y-53516883D01*
X91214434Y-53652916D01*
X91222881Y-53658831D01*
X91406756Y-53766279D01*
X91416042Y-53770729D01*
X91615001Y-53846703D01*
X91624899Y-53849579D01*
X91728250Y-53870606D01*
X91742299Y-53869410D01*
X91746000Y-53859065D01*
X91746000Y-53858517D01*
X92254000Y-53858517D01*
X92258064Y-53872359D01*
X92271478Y-53874393D01*
X92278184Y-53873534D01*
X92288262Y-53871392D01*
X92492255Y-53810191D01*
X92501842Y-53806433D01*
X92693095Y-53712739D01*
X92701945Y-53707464D01*
X92875328Y-53583792D01*
X92883200Y-53577139D01*
X93034052Y-53426812D01*
X93040730Y-53418965D01*
X93165003Y-53246020D01*
X93170313Y-53237183D01*
X93264670Y-53046267D01*
X93268469Y-53036672D01*
X93330377Y-52832910D01*
X93332555Y-52822837D01*
X93333986Y-52811962D01*
X93331775Y-52797778D01*
X93318617Y-52794000D01*
X92272115Y-52794000D01*
X92256876Y-52798475D01*
X92255671Y-52799865D01*
X92254000Y-52807548D01*
X92254000Y-53858517D01*
X91746000Y-53858517D01*
X91746000Y-52812115D01*
X91741525Y-52796876D01*
X91740135Y-52795671D01*
X91732452Y-52794000D01*
X90683225Y-52794000D01*
X90669694Y-52797973D01*
X90668257Y-52807966D01*
X83649076Y-52807966D01*
X83647859Y-52802245D01*
X83672975Y-52735839D01*
X83700327Y-52709232D01*
X83732321Y-52686411D01*
X83879860Y-52581173D01*
X83914667Y-52546488D01*
X83978736Y-52482642D01*
X84038096Y-52423489D01*
X84051569Y-52404740D01*
X84165435Y-52246277D01*
X84168453Y-52242077D01*
X84192265Y-52193898D01*
X84265136Y-52046453D01*
X84265137Y-52046451D01*
X84267430Y-52041811D01*
X84299900Y-51934940D01*
X84330865Y-51833023D01*
X84330865Y-51833021D01*
X84332370Y-51828069D01*
X84361529Y-51606590D01*
X84361627Y-51602595D01*
X84363074Y-51543365D01*
X84363074Y-51543361D01*
X84363156Y-51540000D01*
X84344852Y-51317361D01*
X84290431Y-51100702D01*
X84201354Y-50895840D01*
X84080014Y-50708277D01*
X84070933Y-50698297D01*
X83932798Y-50546488D01*
X83901746Y-50482642D01*
X83910141Y-50412143D01*
X83955317Y-50357375D01*
X83981761Y-50343706D01*
X84088297Y-50303767D01*
X84096705Y-50300615D01*
X84213261Y-50213261D01*
X84300615Y-50096705D01*
X84351745Y-49960316D01*
X84358500Y-49898134D01*
X84358500Y-48101866D01*
X84351745Y-48039684D01*
X84300615Y-47903295D01*
X84213261Y-47786739D01*
X84096705Y-47699385D01*
X83960316Y-47648255D01*
X83898134Y-47641500D01*
X82101866Y-47641500D01*
X82039684Y-47648255D01*
X81903295Y-47699385D01*
X81786739Y-47786739D01*
X81699385Y-47903295D01*
X81648255Y-48039684D01*
X81641500Y-48101866D01*
X81641500Y-48123493D01*
X81621498Y-48191614D01*
X81567842Y-48238107D01*
X81525716Y-48249078D01*
X81500364Y-48251140D01*
X81493403Y-48253395D01*
X81487463Y-48254582D01*
X81481588Y-48255971D01*
X81474319Y-48256818D01*
X81405670Y-48281736D01*
X81401542Y-48283153D01*
X81339064Y-48303393D01*
X81339062Y-48303394D01*
X81332101Y-48305649D01*
X81325846Y-48309445D01*
X81320372Y-48311951D01*
X81314942Y-48314670D01*
X81308063Y-48317167D01*
X81301943Y-48321180D01*
X81301942Y-48321180D01*
X81247024Y-48357186D01*
X81243320Y-48359523D01*
X81180893Y-48397405D01*
X81172516Y-48404803D01*
X81172492Y-48404776D01*
X81169500Y-48407429D01*
X81166267Y-48410132D01*
X81160148Y-48414144D01*
X81155116Y-48419456D01*
X81106872Y-48470383D01*
X81104494Y-48472825D01*
X78583289Y-50994030D01*
X78568877Y-51006416D01*
X78557282Y-51014949D01*
X78557277Y-51014954D01*
X78551382Y-51019292D01*
X78546643Y-51024870D01*
X78546640Y-51024873D01*
X78517165Y-51059568D01*
X78510235Y-51067084D01*
X78504540Y-51072779D01*
X78502260Y-51075661D01*
X78486919Y-51095051D01*
X78484128Y-51098455D01*
X78473824Y-51110584D01*
X78436867Y-51154085D01*
X78433539Y-51160601D01*
X78430172Y-51165650D01*
X78427005Y-51170779D01*
X78422466Y-51176516D01*
X78391545Y-51242675D01*
X78389642Y-51246569D01*
X78356431Y-51311608D01*
X78354692Y-51318716D01*
X78352593Y-51324359D01*
X78350676Y-51330122D01*
X78347578Y-51336750D01*
X78346088Y-51343912D01*
X78346088Y-51343913D01*
X78332714Y-51408212D01*
X78331744Y-51412496D01*
X78314392Y-51483410D01*
X78313700Y-51494564D01*
X78313664Y-51494562D01*
X78313425Y-51498555D01*
X78313051Y-51502747D01*
X78311560Y-51509915D01*
X78312638Y-51549759D01*
X78313654Y-51587321D01*
X78313700Y-51590728D01*
X78313700Y-55095229D01*
X78293698Y-55163350D01*
X78276795Y-55184324D01*
X76737524Y-56723595D01*
X76675212Y-56757621D01*
X76648429Y-56760500D01*
X73317171Y-56760500D01*
X73249050Y-56740498D01*
X73228076Y-56723595D01*
X72261397Y-55756916D01*
X73497426Y-55756916D01*
X73502927Y-55764778D01*
X73505098Y-55766355D01*
X73699042Y-55885205D01*
X73707837Y-55889687D01*
X73917988Y-55976734D01*
X73927373Y-55979783D01*
X74148554Y-56032885D01*
X74158301Y-56034428D01*
X74385070Y-56052275D01*
X74394930Y-56052275D01*
X74621699Y-56034428D01*
X74631446Y-56032885D01*
X74852627Y-55979783D01*
X74862012Y-55976734D01*
X75072163Y-55889687D01*
X75080958Y-55885205D01*
X75274902Y-55766355D01*
X75275591Y-55765855D01*
X75282647Y-55755046D01*
X75276639Y-55744837D01*
X74402812Y-54871010D01*
X74388868Y-54863396D01*
X74387035Y-54863527D01*
X74380420Y-54867778D01*
X73504818Y-55743380D01*
X73497426Y-55756916D01*
X72261397Y-55756916D01*
X71049411Y-54544930D01*
X72877725Y-54544930D01*
X72895572Y-54771699D01*
X72897115Y-54781446D01*
X72950217Y-55002627D01*
X72953266Y-55012012D01*
X73040313Y-55222163D01*
X73044795Y-55230958D01*
X73163645Y-55424902D01*
X73164145Y-55425591D01*
X73174954Y-55432647D01*
X73185163Y-55426639D01*
X74058990Y-54552812D01*
X74065368Y-54541132D01*
X74713396Y-54541132D01*
X74713527Y-54542965D01*
X74717778Y-54549580D01*
X75593380Y-55425182D01*
X75606916Y-55432574D01*
X75614778Y-55427073D01*
X75616355Y-55424902D01*
X75735205Y-55230958D01*
X75739687Y-55222163D01*
X75826734Y-55012012D01*
X75829783Y-55002627D01*
X75882885Y-54781446D01*
X75884428Y-54771699D01*
X75902275Y-54544930D01*
X75902275Y-54535070D01*
X75884428Y-54308301D01*
X75882885Y-54298554D01*
X75829783Y-54077373D01*
X75826734Y-54067988D01*
X75739687Y-53857837D01*
X75735205Y-53849042D01*
X75616355Y-53655098D01*
X75615855Y-53654409D01*
X75605046Y-53647353D01*
X75594837Y-53653361D01*
X74721010Y-54527188D01*
X74713396Y-54541132D01*
X74065368Y-54541132D01*
X74066604Y-54538868D01*
X74066473Y-54537035D01*
X74062222Y-54530420D01*
X73186620Y-53654818D01*
X73173084Y-53647426D01*
X73165222Y-53652927D01*
X73163645Y-53655098D01*
X73044795Y-53849042D01*
X73040313Y-53857837D01*
X72953266Y-54067988D01*
X72950217Y-54077373D01*
X72897115Y-54298554D01*
X72895572Y-54308301D01*
X72877725Y-54535070D01*
X72877725Y-54544930D01*
X71049411Y-54544930D01*
X68987968Y-52483487D01*
X68975580Y-52469073D01*
X68967048Y-52457479D01*
X68967047Y-52457478D01*
X68962708Y-52451582D01*
X68957130Y-52446843D01*
X68957127Y-52446840D01*
X68922432Y-52417365D01*
X68914916Y-52410435D01*
X68909221Y-52404740D01*
X68903080Y-52399882D01*
X68886949Y-52387119D01*
X68883545Y-52384328D01*
X68833497Y-52341809D01*
X68833495Y-52341808D01*
X68827915Y-52337067D01*
X68821399Y-52333739D01*
X68816350Y-52330372D01*
X68811221Y-52327205D01*
X68805484Y-52322666D01*
X68739325Y-52291745D01*
X68735425Y-52289839D01*
X68721262Y-52282607D01*
X68670392Y-52256631D01*
X68663284Y-52254892D01*
X68657641Y-52252793D01*
X68651878Y-52250876D01*
X68645250Y-52247778D01*
X68617842Y-52242077D01*
X68573788Y-52232914D01*
X68569499Y-52231943D01*
X68515141Y-52218642D01*
X68498590Y-52214592D01*
X68492988Y-52214244D01*
X68492985Y-52214244D01*
X68487436Y-52213900D01*
X68487438Y-52213864D01*
X68483445Y-52213625D01*
X68479253Y-52213251D01*
X68472085Y-52211760D01*
X68416600Y-52213261D01*
X68394679Y-52213854D01*
X68391272Y-52213900D01*
X61633171Y-52213900D01*
X61565050Y-52193898D01*
X61544076Y-52176995D01*
X61367081Y-52000000D01*
X72876835Y-52000000D01*
X72895465Y-52236711D01*
X72896619Y-52241518D01*
X72896620Y-52241524D01*
X72911564Y-52303768D01*
X72950895Y-52467594D01*
X72952788Y-52472165D01*
X72952789Y-52472167D01*
X73038214Y-52678401D01*
X73041760Y-52686963D01*
X73044346Y-52691183D01*
X73163241Y-52885202D01*
X73163245Y-52885208D01*
X73165824Y-52889416D01*
X73320031Y-53069969D01*
X73323787Y-53073177D01*
X73456521Y-53186543D01*
X73495330Y-53245994D01*
X73495632Y-53288335D01*
X73497364Y-53288347D01*
X73497105Y-53324533D01*
X73503361Y-53335163D01*
X74377188Y-54208990D01*
X74391132Y-54216604D01*
X74392965Y-54216473D01*
X74399580Y-54212222D01*
X75275182Y-53336620D01*
X75282796Y-53322676D01*
X75280502Y-53290599D01*
X75295593Y-53221225D01*
X75324350Y-53185799D01*
X75456213Y-53073177D01*
X75459969Y-53069969D01*
X75614176Y-52889416D01*
X75616755Y-52885208D01*
X75616759Y-52885202D01*
X75735654Y-52691183D01*
X75738240Y-52686963D01*
X75741787Y-52678401D01*
X75827211Y-52472167D01*
X75827212Y-52472165D01*
X75829105Y-52467594D01*
X75868436Y-52303768D01*
X75883380Y-52241524D01*
X75883381Y-52241518D01*
X75884535Y-52236711D01*
X75903165Y-52000000D01*
X75884535Y-51763289D01*
X75882535Y-51754956D01*
X75830928Y-51540000D01*
X75829105Y-51532406D01*
X75815084Y-51498555D01*
X75740135Y-51317611D01*
X75740133Y-51317607D01*
X75738240Y-51313037D01*
X75696981Y-51245709D01*
X75616759Y-51114798D01*
X75616755Y-51114792D01*
X75614176Y-51110584D01*
X75608460Y-51103891D01*
X75604829Y-51099639D01*
X75575798Y-51034849D01*
X75586403Y-50964649D01*
X75632527Y-50912181D01*
X75636705Y-50910615D01*
X75753261Y-50823261D01*
X75840615Y-50706705D01*
X75891745Y-50570316D01*
X75898500Y-50508134D01*
X75898500Y-48411866D01*
X75891745Y-48349684D01*
X75840615Y-48213295D01*
X75753261Y-48096739D01*
X75636705Y-48009385D01*
X75500316Y-47958255D01*
X75438134Y-47951500D01*
X73341866Y-47951500D01*
X73279684Y-47958255D01*
X73143295Y-48009385D01*
X73026739Y-48096739D01*
X72939385Y-48213295D01*
X72888255Y-48349684D01*
X72881500Y-48411866D01*
X72881500Y-50508134D01*
X72888255Y-50570316D01*
X72939385Y-50706705D01*
X73026739Y-50823261D01*
X73142876Y-50910301D01*
X73143295Y-50910615D01*
X73143250Y-50910675D01*
X73190018Y-50957552D01*
X73205028Y-51026944D01*
X73180140Y-51093435D01*
X73175171Y-51099639D01*
X73171540Y-51103891D01*
X73165824Y-51110584D01*
X73163245Y-51114792D01*
X73163241Y-51114798D01*
X73083019Y-51245709D01*
X73041760Y-51313037D01*
X73039867Y-51317607D01*
X73039865Y-51317611D01*
X72964916Y-51498555D01*
X72950895Y-51532406D01*
X72949072Y-51540000D01*
X72897466Y-51754956D01*
X72895465Y-51763289D01*
X72876835Y-52000000D01*
X61367081Y-52000000D01*
X58980370Y-49613289D01*
X58967984Y-49598877D01*
X58959451Y-49587282D01*
X58959446Y-49587277D01*
X58955108Y-49581382D01*
X58949530Y-49576643D01*
X58949527Y-49576640D01*
X58914832Y-49547165D01*
X58907316Y-49540235D01*
X58901621Y-49534540D01*
X58882615Y-49519503D01*
X58879349Y-49516919D01*
X58875945Y-49514128D01*
X58825897Y-49471609D01*
X58825895Y-49471608D01*
X58820315Y-49466867D01*
X58813799Y-49463539D01*
X58808750Y-49460172D01*
X58803621Y-49457005D01*
X58797884Y-49452466D01*
X58731725Y-49421545D01*
X58727825Y-49419639D01*
X58662792Y-49386431D01*
X58655684Y-49384692D01*
X58650041Y-49382593D01*
X58644278Y-49380676D01*
X58637650Y-49377578D01*
X58566183Y-49362713D01*
X58561899Y-49361743D01*
X58490990Y-49344392D01*
X58485388Y-49344044D01*
X58485385Y-49344044D01*
X58479836Y-49343700D01*
X58479838Y-49343664D01*
X58475845Y-49343425D01*
X58471653Y-49343051D01*
X58464485Y-49341560D01*
X58400720Y-49343285D01*
X58387079Y-49343654D01*
X58383672Y-49343700D01*
X50361070Y-49343700D01*
X50342120Y-49342267D01*
X50327885Y-49340101D01*
X50327881Y-49340101D01*
X50320651Y-49339001D01*
X50313359Y-49339594D01*
X50313356Y-49339594D01*
X50267982Y-49343285D01*
X50257767Y-49343700D01*
X50249707Y-49343700D01*
X50246073Y-49344124D01*
X50246067Y-49344124D01*
X50233042Y-49345643D01*
X50221480Y-49346991D01*
X50217132Y-49347421D01*
X50144364Y-49353340D01*
X50137403Y-49355595D01*
X50131463Y-49356782D01*
X50125588Y-49358171D01*
X50118319Y-49359018D01*
X50049670Y-49383936D01*
X50045542Y-49385353D01*
X49983064Y-49405593D01*
X49983062Y-49405594D01*
X49976101Y-49407849D01*
X49969846Y-49411645D01*
X49964372Y-49414151D01*
X49958942Y-49416870D01*
X49952063Y-49419367D01*
X49945943Y-49423380D01*
X49945942Y-49423380D01*
X49891024Y-49459386D01*
X49887320Y-49461723D01*
X49824893Y-49499605D01*
X49816516Y-49507003D01*
X49816492Y-49506976D01*
X49813500Y-49509629D01*
X49810267Y-49512332D01*
X49804148Y-49516344D01*
X49774951Y-49547165D01*
X49750872Y-49572583D01*
X49748494Y-49575025D01*
X49454619Y-49868900D01*
X49392307Y-49902926D01*
X49321492Y-49897861D01*
X49264698Y-49855371D01*
X49250234Y-49836072D01*
X49213261Y-49786739D01*
X49096705Y-49699385D01*
X48960316Y-49648255D01*
X48898134Y-49641500D01*
X47101866Y-49641500D01*
X47039684Y-49648255D01*
X46903295Y-49699385D01*
X46786739Y-49786739D01*
X46699385Y-49903295D01*
X46648255Y-50039684D01*
X46641500Y-50101866D01*
X46641500Y-50115500D01*
X46621498Y-50183621D01*
X46567842Y-50230114D01*
X46515500Y-50241500D01*
X44484500Y-50241500D01*
X44416379Y-50221498D01*
X44369886Y-50167842D01*
X44358500Y-50115500D01*
X44358500Y-50101866D01*
X44351745Y-50039684D01*
X44300615Y-49903295D01*
X44213261Y-49786739D01*
X44096705Y-49699385D01*
X43960316Y-49648255D01*
X43898134Y-49641500D01*
X42101866Y-49641500D01*
X42039684Y-49648255D01*
X41903295Y-49699385D01*
X41786739Y-49786739D01*
X41699385Y-49903295D01*
X41648255Y-50039684D01*
X41641500Y-50101866D01*
X41641500Y-50115500D01*
X41621498Y-50183621D01*
X41567842Y-50230114D01*
X41515500Y-50241500D01*
X39484500Y-50241500D01*
X39416379Y-50221498D01*
X39369886Y-50167842D01*
X39358500Y-50115500D01*
X39358500Y-50101866D01*
X39351745Y-50039684D01*
X39300615Y-49903295D01*
X39213261Y-49786739D01*
X39096705Y-49699385D01*
X38960316Y-49648255D01*
X38898134Y-49641500D01*
X38740638Y-49641500D01*
X38672517Y-49621498D01*
X38632919Y-49580865D01*
X38630356Y-49576640D01*
X38610462Y-49543856D01*
X38605509Y-49535693D01*
X38605505Y-49535688D01*
X38602595Y-49530892D01*
X38595197Y-49522516D01*
X38595223Y-49522493D01*
X38592574Y-49519503D01*
X38589866Y-49516264D01*
X38585856Y-49510148D01*
X38580549Y-49505121D01*
X38580546Y-49505117D01*
X38529617Y-49456872D01*
X38527175Y-49454494D01*
X38253971Y-49181290D01*
X63510400Y-49181290D01*
X63510700Y-49187435D01*
X63524570Y-49328881D01*
X63526953Y-49340919D01*
X63581942Y-49523051D01*
X63586617Y-49534393D01*
X63675935Y-49702377D01*
X63682722Y-49712593D01*
X63802972Y-49860034D01*
X63811616Y-49868738D01*
X63958209Y-49990010D01*
X63968380Y-49996870D01*
X64135742Y-50087362D01*
X64147047Y-50092114D01*
X64272092Y-50130822D01*
X64286195Y-50131028D01*
X64289400Y-50124273D01*
X64289400Y-49184404D01*
X64779900Y-49184404D01*
X64794677Y-49335113D01*
X64795368Y-49337402D01*
X64797400Y-49358124D01*
X64797400Y-50117386D01*
X64801373Y-50130917D01*
X64809168Y-50132037D01*
X64926332Y-50097554D01*
X64937700Y-50092961D01*
X65106307Y-50004816D01*
X65109383Y-50002803D01*
X65111222Y-50002246D01*
X65111770Y-50001960D01*
X65111824Y-50002064D01*
X65177336Y-49982239D01*
X65238306Y-49997399D01*
X65410965Y-50090756D01*
X65507773Y-50120723D01*
X65598693Y-50148868D01*
X65598696Y-50148869D01*
X65604580Y-50150690D01*
X65610705Y-50151334D01*
X65610706Y-50151334D01*
X65800022Y-50171232D01*
X65800023Y-50171232D01*
X65806150Y-50171876D01*
X65889414Y-50164298D01*
X66001857Y-50154065D01*
X66001860Y-50154064D01*
X66007996Y-50153506D01*
X66013902Y-50151768D01*
X66013906Y-50151767D01*
X66196521Y-50098020D01*
X66196523Y-50098019D01*
X66199511Y-50097140D01*
X66202429Y-50096281D01*
X66202682Y-50097140D01*
X66268062Y-50090686D01*
X66304806Y-50103852D01*
X66311695Y-50109015D01*
X66320096Y-50112164D01*
X66320099Y-50112166D01*
X66373106Y-50132037D01*
X66448084Y-50160145D01*
X66510266Y-50166900D01*
X67656534Y-50166900D01*
X67718716Y-50160145D01*
X67855105Y-50109015D01*
X67971661Y-50021661D01*
X68059015Y-49905105D01*
X68110145Y-49768716D01*
X68116900Y-49706534D01*
X68116900Y-48110266D01*
X68110145Y-48048084D01*
X68059015Y-47911695D01*
X67971661Y-47795139D01*
X67855105Y-47707785D01*
X67718716Y-47656655D01*
X67656534Y-47649900D01*
X66510266Y-47649900D01*
X66448084Y-47656655D01*
X66431866Y-47662735D01*
X66320104Y-47704632D01*
X66320101Y-47704634D01*
X66311695Y-47707785D01*
X66304506Y-47713173D01*
X66304263Y-47713306D01*
X66234906Y-47728476D01*
X66206492Y-47723152D01*
X66197987Y-47720519D01*
X66022220Y-47666110D01*
X66016095Y-47665466D01*
X66016094Y-47665466D01*
X65826778Y-47645568D01*
X65826777Y-47645568D01*
X65820650Y-47644924D01*
X65737386Y-47652502D01*
X65624943Y-47662735D01*
X65624940Y-47662736D01*
X65618804Y-47663294D01*
X65612898Y-47665032D01*
X65612894Y-47665033D01*
X65519479Y-47692527D01*
X65424371Y-47720519D01*
X65418914Y-47723372D01*
X65418911Y-47723373D01*
X65250219Y-47811562D01*
X65250215Y-47811565D01*
X65244755Y-47814419D01*
X65244503Y-47814621D01*
X65178488Y-47834601D01*
X65117515Y-47819441D01*
X64951058Y-47729438D01*
X64939753Y-47724686D01*
X64814708Y-47685978D01*
X64800605Y-47685772D01*
X64797400Y-47692527D01*
X64797400Y-48462158D01*
X64796615Y-48476203D01*
X64779900Y-48625217D01*
X64779900Y-49184404D01*
X64289400Y-49184404D01*
X64289400Y-49180515D01*
X64284925Y-49165276D01*
X64283535Y-49164071D01*
X64275852Y-49162400D01*
X63528515Y-49162400D01*
X63513276Y-49166875D01*
X63512071Y-49168265D01*
X63510400Y-49175948D01*
X63510400Y-49181290D01*
X38253971Y-49181290D01*
X37708966Y-48636285D01*
X63510400Y-48636285D01*
X63514875Y-48651524D01*
X63516265Y-48652729D01*
X63523948Y-48654400D01*
X64271285Y-48654400D01*
X64286524Y-48649925D01*
X64287729Y-48648535D01*
X64289400Y-48640852D01*
X64289400Y-47699414D01*
X64285427Y-47685883D01*
X64277632Y-47684763D01*
X64160468Y-47719246D01*
X64149100Y-47723839D01*
X63980489Y-47811986D01*
X63970227Y-47818702D01*
X63821957Y-47937915D01*
X63813187Y-47946503D01*
X63690901Y-48092238D01*
X63683963Y-48102369D01*
X63592306Y-48269092D01*
X63587476Y-48280362D01*
X63529948Y-48461715D01*
X63527398Y-48473709D01*
X63510793Y-48621750D01*
X63510400Y-48628774D01*
X63510400Y-48636285D01*
X37708966Y-48636285D01*
X35335671Y-46262990D01*
X35301645Y-46200678D01*
X35299245Y-46162913D01*
X35313019Y-46005475D01*
X35313498Y-46000000D01*
X35293543Y-45771913D01*
X35292119Y-45766598D01*
X35235707Y-45556067D01*
X35235706Y-45556065D01*
X35234284Y-45550757D01*
X35192299Y-45460719D01*
X35139849Y-45348238D01*
X35139846Y-45348233D01*
X35137523Y-45343251D01*
X35064098Y-45238389D01*
X35009357Y-45160211D01*
X35009355Y-45160208D01*
X35006198Y-45155700D01*
X34844300Y-44993802D01*
X34839792Y-44990645D01*
X34839789Y-44990643D01*
X34761611Y-44935902D01*
X34656749Y-44862477D01*
X34651767Y-44860154D01*
X34651762Y-44860151D01*
X34454225Y-44768039D01*
X34454224Y-44768039D01*
X34449243Y-44765716D01*
X34443935Y-44764294D01*
X34443933Y-44764293D01*
X34233402Y-44707881D01*
X34233400Y-44707881D01*
X34228087Y-44706457D01*
X34000000Y-44686502D01*
X33771913Y-44706457D01*
X33766600Y-44707881D01*
X33766598Y-44707881D01*
X33556067Y-44764293D01*
X33556065Y-44764294D01*
X33550757Y-44765716D01*
X33545776Y-44768039D01*
X33545775Y-44768039D01*
X33348238Y-44860151D01*
X33348233Y-44860154D01*
X33343251Y-44862477D01*
X33238389Y-44935902D01*
X33160211Y-44990643D01*
X33160208Y-44990645D01*
X33155700Y-44993802D01*
X32993802Y-45155700D01*
X32990645Y-45160208D01*
X32990643Y-45160211D01*
X32935902Y-45238389D01*
X32862477Y-45343251D01*
X32860154Y-45348233D01*
X32860151Y-45348238D01*
X32807701Y-45460719D01*
X32765716Y-45550757D01*
X32764294Y-45556065D01*
X32764293Y-45556067D01*
X32707881Y-45766598D01*
X32706457Y-45771913D01*
X32686502Y-46000000D01*
X26890304Y-46000000D01*
X26871020Y-45934480D01*
X26869281Y-45928571D01*
X26866427Y-45923111D01*
X26778238Y-45754419D01*
X26778235Y-45754415D01*
X26775381Y-45748955D01*
X26775179Y-45748703D01*
X26755199Y-45682688D01*
X26770359Y-45621715D01*
X26860362Y-45455258D01*
X26865114Y-45443953D01*
X26903822Y-45318908D01*
X26904028Y-45304805D01*
X26897273Y-45301600D01*
X26127642Y-45301600D01*
X26113597Y-45300815D01*
X26099199Y-45299200D01*
X25964583Y-45284100D01*
X25405396Y-45284100D01*
X25254687Y-45298877D01*
X25252398Y-45299568D01*
X25231676Y-45301600D01*
X24472414Y-45301600D01*
X24458883Y-45305573D01*
X24457763Y-45313368D01*
X24492246Y-45430532D01*
X24496839Y-45441900D01*
X24584984Y-45610507D01*
X24586997Y-45613583D01*
X24587554Y-45615422D01*
X24587840Y-45615970D01*
X24587736Y-45616024D01*
X24607561Y-45681536D01*
X24592401Y-45742506D01*
X24499044Y-45915165D01*
X24494894Y-45928571D01*
X24445693Y-46087515D01*
X24439110Y-46108780D01*
X24438466Y-46114905D01*
X24438466Y-46114906D01*
X24427146Y-46222607D01*
X24417924Y-46310350D01*
X24419991Y-46333061D01*
X24433176Y-46477931D01*
X24436294Y-46512196D01*
X24438032Y-46518102D01*
X24438033Y-46518106D01*
X24478838Y-46656749D01*
X24492188Y-46702107D01*
X24493519Y-46706629D01*
X24492660Y-46706882D01*
X24499114Y-46772262D01*
X24485948Y-46809006D01*
X24480785Y-46815895D01*
X24477636Y-46824296D01*
X24477634Y-46824299D01*
X24447376Y-46905014D01*
X24429655Y-46952284D01*
X24422900Y-47014466D01*
X24422900Y-48160734D01*
X24429655Y-48222916D01*
X24480785Y-48359305D01*
X24568139Y-48475861D01*
X24684695Y-48563215D01*
X24699378Y-48568720D01*
X24813686Y-48611572D01*
X24813689Y-48611573D01*
X24821084Y-48614345D01*
X24826853Y-48614972D01*
X24887691Y-48649726D01*
X24920513Y-48712681D01*
X24922900Y-48737093D01*
X24922900Y-49386463D01*
X24902898Y-49454584D01*
X24885995Y-49475558D01*
X20308553Y-54053000D01*
X20246241Y-54087026D01*
X20175426Y-54081961D01*
X20123647Y-54045735D01*
X19992911Y-53892663D01*
X19992906Y-53892658D01*
X19989698Y-53888902D01*
X19797176Y-53724472D01*
X19581302Y-53592184D01*
X19576732Y-53590291D01*
X19576728Y-53590289D01*
X19351964Y-53497189D01*
X19351962Y-53497188D01*
X19347391Y-53495295D01*
X19262768Y-53474979D01*
X19106016Y-53437346D01*
X19106010Y-53437345D01*
X19101203Y-53436191D01*
X18848800Y-53416326D01*
X18596397Y-53436191D01*
X18591590Y-53437345D01*
X18591584Y-53437346D01*
X18434832Y-53474979D01*
X18350209Y-53495295D01*
X18345638Y-53497188D01*
X18345636Y-53497189D01*
X18120872Y-53590289D01*
X18120868Y-53590291D01*
X18116298Y-53592184D01*
X17900424Y-53724472D01*
X17707902Y-53888902D01*
X17543472Y-54081424D01*
X17411184Y-54297298D01*
X17409291Y-54301868D01*
X17409289Y-54301872D01*
X17360652Y-54419292D01*
X17314295Y-54531209D01*
X17303175Y-54577529D01*
X17256559Y-54771699D01*
X17255191Y-54777397D01*
X17235326Y-55029800D01*
X14444915Y-55029800D01*
X14446074Y-54982365D01*
X14446074Y-54982361D01*
X14446156Y-54979000D01*
X14427852Y-54756361D01*
X14373431Y-54539702D01*
X14284354Y-54334840D01*
X14202938Y-54208990D01*
X14165822Y-54151617D01*
X14165820Y-54151614D01*
X14163014Y-54147277D01*
X14159532Y-54143450D01*
X14015798Y-53985488D01*
X13984746Y-53921642D01*
X13993141Y-53851143D01*
X14038317Y-53796375D01*
X14064761Y-53782706D01*
X14171297Y-53742767D01*
X14179705Y-53739615D01*
X14296261Y-53652261D01*
X14383615Y-53535705D01*
X14434745Y-53399316D01*
X14441500Y-53337134D01*
X14441500Y-51540866D01*
X14434745Y-51478684D01*
X14383615Y-51342295D01*
X14296261Y-51225739D01*
X14179705Y-51138385D01*
X14043316Y-51087255D01*
X13981134Y-51080500D01*
X13967500Y-51080500D01*
X13899379Y-51060498D01*
X13852886Y-51006842D01*
X13841500Y-50954500D01*
X13841500Y-49401971D01*
X13861502Y-49333850D01*
X13878405Y-49312876D01*
X17071621Y-46119660D01*
X17133933Y-46085634D01*
X17204748Y-46090699D01*
X17261584Y-46133246D01*
X17278698Y-46164524D01*
X17298185Y-46216505D01*
X17385539Y-46333061D01*
X17502095Y-46420415D01*
X17638484Y-46471545D01*
X17700666Y-46478300D01*
X19996934Y-46478300D01*
X20059116Y-46471545D01*
X20195505Y-46420415D01*
X20312061Y-46333061D01*
X20399415Y-46216505D01*
X20450545Y-46080116D01*
X20457300Y-46017934D01*
X20457300Y-44790395D01*
X24458772Y-44790395D01*
X24465527Y-44793600D01*
X25409285Y-44793600D01*
X25424524Y-44789125D01*
X25425729Y-44787735D01*
X25427400Y-44780052D01*
X25427400Y-44775485D01*
X25935400Y-44775485D01*
X25939875Y-44790724D01*
X25941265Y-44791929D01*
X25948948Y-44793600D01*
X26890386Y-44793600D01*
X26903917Y-44789627D01*
X26905037Y-44781832D01*
X26870554Y-44664668D01*
X26865961Y-44653300D01*
X26777814Y-44484689D01*
X26771098Y-44474427D01*
X26651885Y-44326157D01*
X26643297Y-44317387D01*
X26497562Y-44195101D01*
X26487431Y-44188163D01*
X26433656Y-44158600D01*
X64753902Y-44158600D01*
X64773857Y-44386687D01*
X64775281Y-44392000D01*
X64775281Y-44392002D01*
X64789906Y-44446581D01*
X64833116Y-44607843D01*
X64835439Y-44612824D01*
X64835439Y-44612825D01*
X64927551Y-44810362D01*
X64927554Y-44810367D01*
X64929877Y-44815349D01*
X64965087Y-44865634D01*
X65052620Y-44990643D01*
X65061202Y-45002900D01*
X65223100Y-45164798D01*
X65227608Y-45167955D01*
X65227611Y-45167957D01*
X65305789Y-45222698D01*
X65410651Y-45296123D01*
X65415633Y-45298446D01*
X65415638Y-45298449D01*
X65542185Y-45357458D01*
X65618157Y-45392884D01*
X65623465Y-45394306D01*
X65623467Y-45394307D01*
X65833998Y-45450719D01*
X65834000Y-45450719D01*
X65839313Y-45452143D01*
X66067400Y-45472098D01*
X66295487Y-45452143D01*
X66300800Y-45450719D01*
X66300802Y-45450719D01*
X66511333Y-45394307D01*
X66511335Y-45394306D01*
X66516643Y-45392884D01*
X66592615Y-45357458D01*
X66719162Y-45298449D01*
X66719167Y-45298446D01*
X66724149Y-45296123D01*
X66829011Y-45222698D01*
X66907189Y-45167957D01*
X66907192Y-45167955D01*
X66911700Y-45164798D01*
X67073598Y-45002900D01*
X67082181Y-44990643D01*
X67169713Y-44865634D01*
X67204923Y-44815349D01*
X67207246Y-44810367D01*
X67207249Y-44810362D01*
X67299361Y-44612825D01*
X67299361Y-44612824D01*
X67301684Y-44607843D01*
X67344895Y-44446581D01*
X67359519Y-44392002D01*
X67359519Y-44392000D01*
X67360943Y-44386687D01*
X67380898Y-44158600D01*
X67360943Y-43930513D01*
X67355634Y-43910700D01*
X67303107Y-43714667D01*
X67303106Y-43714665D01*
X67301684Y-43709357D01*
X67274892Y-43651900D01*
X67207249Y-43506838D01*
X67207246Y-43506833D01*
X67204923Y-43501851D01*
X67073598Y-43314300D01*
X66911700Y-43152402D01*
X66907192Y-43149245D01*
X66907189Y-43149243D01*
X66788877Y-43066400D01*
X79460502Y-43066400D01*
X79480457Y-43294487D01*
X79481881Y-43299800D01*
X79481881Y-43299802D01*
X79509040Y-43401158D01*
X79539716Y-43515643D01*
X79542039Y-43520624D01*
X79542039Y-43520625D01*
X79634151Y-43718162D01*
X79634154Y-43718167D01*
X79636477Y-43723149D01*
X79683611Y-43790463D01*
X79751979Y-43888102D01*
X79767802Y-43910700D01*
X79929700Y-44072598D01*
X79934208Y-44075755D01*
X79934211Y-44075757D01*
X79997892Y-44120347D01*
X80117251Y-44203923D01*
X80122233Y-44206246D01*
X80122238Y-44206249D01*
X80300249Y-44289256D01*
X80324757Y-44300684D01*
X80330065Y-44302106D01*
X80330067Y-44302107D01*
X80540598Y-44358519D01*
X80540600Y-44358519D01*
X80545913Y-44359943D01*
X80774000Y-44379898D01*
X81002087Y-44359943D01*
X81007400Y-44358519D01*
X81007402Y-44358519D01*
X81217933Y-44302107D01*
X81217935Y-44302106D01*
X81223243Y-44300684D01*
X81247751Y-44289256D01*
X81425762Y-44206249D01*
X81425767Y-44206246D01*
X81430749Y-44203923D01*
X81550108Y-44120347D01*
X81613789Y-44075757D01*
X81613792Y-44075755D01*
X81618300Y-44072598D01*
X81780198Y-43910700D01*
X81796022Y-43888102D01*
X81864389Y-43790463D01*
X81911523Y-43723149D01*
X81913846Y-43718167D01*
X81913849Y-43718162D01*
X82005961Y-43520625D01*
X82005961Y-43520624D01*
X82008284Y-43515643D01*
X82038961Y-43401158D01*
X82066119Y-43299802D01*
X82066119Y-43299800D01*
X82067543Y-43294487D01*
X82087498Y-43066400D01*
X82067543Y-42838313D01*
X82033402Y-42710899D01*
X82009707Y-42622467D01*
X82009706Y-42622465D01*
X82008284Y-42617157D01*
X81972501Y-42540419D01*
X81913849Y-42414638D01*
X81913846Y-42414633D01*
X81911523Y-42409651D01*
X81780198Y-42222100D01*
X81618300Y-42060202D01*
X81613792Y-42057045D01*
X81613789Y-42057043D01*
X81515488Y-41988212D01*
X81430749Y-41928877D01*
X81425767Y-41926554D01*
X81425762Y-41926551D01*
X81228225Y-41834439D01*
X81228224Y-41834439D01*
X81223243Y-41832116D01*
X81217935Y-41830694D01*
X81217933Y-41830693D01*
X81007402Y-41774281D01*
X81007400Y-41774281D01*
X81002087Y-41772857D01*
X80774000Y-41752902D01*
X80545913Y-41772857D01*
X80540600Y-41774281D01*
X80540598Y-41774281D01*
X80330067Y-41830693D01*
X80330065Y-41830694D01*
X80324757Y-41832116D01*
X80319776Y-41834439D01*
X80319775Y-41834439D01*
X80122238Y-41926551D01*
X80122233Y-41926554D01*
X80117251Y-41928877D01*
X80032512Y-41988212D01*
X79934211Y-42057043D01*
X79934208Y-42057045D01*
X79929700Y-42060202D01*
X79767802Y-42222100D01*
X79636477Y-42409651D01*
X79634154Y-42414633D01*
X79634151Y-42414638D01*
X79575499Y-42540419D01*
X79539716Y-42617157D01*
X79538294Y-42622465D01*
X79538293Y-42622467D01*
X79514598Y-42710899D01*
X79480457Y-42838313D01*
X79460502Y-43066400D01*
X66788877Y-43066400D01*
X66724149Y-43021077D01*
X66719167Y-43018754D01*
X66719162Y-43018751D01*
X66521625Y-42926639D01*
X66521624Y-42926639D01*
X66516643Y-42924316D01*
X66511335Y-42922894D01*
X66511333Y-42922893D01*
X66300802Y-42866481D01*
X66300800Y-42866481D01*
X66295487Y-42865057D01*
X66067400Y-42845102D01*
X65839313Y-42865057D01*
X65834000Y-42866481D01*
X65833998Y-42866481D01*
X65623467Y-42922893D01*
X65623465Y-42922894D01*
X65618157Y-42924316D01*
X65613176Y-42926639D01*
X65613175Y-42926639D01*
X65415638Y-43018751D01*
X65415633Y-43018754D01*
X65410651Y-43021077D01*
X65345923Y-43066400D01*
X65227611Y-43149243D01*
X65227608Y-43149245D01*
X65223100Y-43152402D01*
X65061202Y-43314300D01*
X64929877Y-43501851D01*
X64927554Y-43506833D01*
X64927551Y-43506838D01*
X64859908Y-43651900D01*
X64833116Y-43709357D01*
X64831694Y-43714665D01*
X64831693Y-43714667D01*
X64779166Y-43910700D01*
X64773857Y-43930513D01*
X64753902Y-44158600D01*
X26433656Y-44158600D01*
X26320708Y-44096506D01*
X26309438Y-44091676D01*
X26128085Y-44034148D01*
X26116091Y-44031598D01*
X25968050Y-44014993D01*
X25961026Y-44014600D01*
X25953515Y-44014600D01*
X25938276Y-44019075D01*
X25937071Y-44020465D01*
X25935400Y-44028148D01*
X25935400Y-44775485D01*
X25427400Y-44775485D01*
X25427400Y-44032715D01*
X25422925Y-44017476D01*
X25421535Y-44016271D01*
X25413852Y-44014600D01*
X25408510Y-44014600D01*
X25402365Y-44014900D01*
X25260919Y-44028770D01*
X25248881Y-44031153D01*
X25066749Y-44086142D01*
X25055407Y-44090817D01*
X24887423Y-44180135D01*
X24877207Y-44186922D01*
X24729766Y-44307172D01*
X24721062Y-44315816D01*
X24599790Y-44462409D01*
X24592930Y-44472580D01*
X24502438Y-44639942D01*
X24497686Y-44651247D01*
X24458978Y-44776292D01*
X24458772Y-44790395D01*
X20457300Y-44790395D01*
X20457300Y-43721666D01*
X20450545Y-43659484D01*
X20399415Y-43523095D01*
X20312061Y-43406539D01*
X20195505Y-43319185D01*
X20143524Y-43299698D01*
X20086760Y-43257056D01*
X20062061Y-43190494D01*
X20077269Y-43121145D01*
X20098660Y-43092621D01*
X20447076Y-42744205D01*
X20509388Y-42710179D01*
X20536171Y-42707300D01*
X63206330Y-42707300D01*
X63225280Y-42708733D01*
X63239515Y-42710899D01*
X63239519Y-42710899D01*
X63246749Y-42711999D01*
X63254041Y-42711406D01*
X63254044Y-42711406D01*
X63299418Y-42707715D01*
X63309633Y-42707300D01*
X63317693Y-42707300D01*
X63330983Y-42705751D01*
X63345907Y-42704011D01*
X63350282Y-42703578D01*
X63415739Y-42698254D01*
X63415742Y-42698253D01*
X63423037Y-42697660D01*
X63430001Y-42695404D01*
X63435960Y-42694213D01*
X63441815Y-42692829D01*
X63449081Y-42691982D01*
X63517727Y-42667065D01*
X63521855Y-42665648D01*
X63584336Y-42645407D01*
X63584338Y-42645406D01*
X63591299Y-42643151D01*
X63597554Y-42639355D01*
X63603028Y-42636849D01*
X63608458Y-42634130D01*
X63615337Y-42631633D01*
X63621458Y-42627620D01*
X63676376Y-42591614D01*
X63680080Y-42589277D01*
X63742507Y-42551395D01*
X63750884Y-42543997D01*
X63750908Y-42544024D01*
X63753900Y-42541371D01*
X63757133Y-42538668D01*
X63763252Y-42534656D01*
X63816528Y-42478417D01*
X63818906Y-42475975D01*
X69087876Y-37207005D01*
X69150188Y-37172979D01*
X69176971Y-37170100D01*
X79579457Y-37170100D01*
X79647578Y-37190102D01*
X79694071Y-37243758D01*
X79704175Y-37314032D01*
X79674681Y-37378612D01*
X79632707Y-37410295D01*
X79588838Y-37430751D01*
X79588833Y-37430754D01*
X79583851Y-37433077D01*
X79478989Y-37506502D01*
X79400811Y-37561243D01*
X79400808Y-37561245D01*
X79396300Y-37564402D01*
X79234402Y-37726300D01*
X79103077Y-37913851D01*
X79100754Y-37918833D01*
X79100751Y-37918838D01*
X79008639Y-38116375D01*
X79006316Y-38121357D01*
X78947057Y-38342513D01*
X78927102Y-38570600D01*
X78947057Y-38798687D01*
X78948481Y-38804000D01*
X78948481Y-38804002D01*
X78981360Y-38926705D01*
X79006316Y-39019843D01*
X79008639Y-39024824D01*
X79008639Y-39024825D01*
X79100751Y-39222362D01*
X79100754Y-39222367D01*
X79103077Y-39227349D01*
X79234402Y-39414900D01*
X79396300Y-39576798D01*
X79400808Y-39579955D01*
X79400811Y-39579957D01*
X79451025Y-39615117D01*
X79583851Y-39708123D01*
X79588833Y-39710446D01*
X79588838Y-39710449D01*
X79786375Y-39802561D01*
X79791357Y-39804884D01*
X79796665Y-39806306D01*
X79796667Y-39806307D01*
X80007198Y-39862719D01*
X80007200Y-39862719D01*
X80012513Y-39864143D01*
X80240600Y-39884098D01*
X80468687Y-39864143D01*
X80474000Y-39862719D01*
X80474002Y-39862719D01*
X80684533Y-39806307D01*
X80684535Y-39806306D01*
X80689843Y-39804884D01*
X80694825Y-39802561D01*
X80892362Y-39710449D01*
X80892367Y-39710446D01*
X80897349Y-39708123D01*
X81030175Y-39615117D01*
X81080389Y-39579957D01*
X81080392Y-39579955D01*
X81084900Y-39576798D01*
X81246798Y-39414900D01*
X81378123Y-39227349D01*
X81380446Y-39222367D01*
X81380449Y-39222362D01*
X81472561Y-39024825D01*
X81472561Y-39024824D01*
X81474884Y-39019843D01*
X81499841Y-38926705D01*
X81532719Y-38804002D01*
X81532719Y-38804000D01*
X81534143Y-38798687D01*
X81554098Y-38570600D01*
X81534143Y-38342513D01*
X81474884Y-38121357D01*
X81472561Y-38116375D01*
X81380449Y-37918838D01*
X81380446Y-37918833D01*
X81378123Y-37913851D01*
X81246798Y-37726300D01*
X81084900Y-37564402D01*
X81080392Y-37561245D01*
X81080389Y-37561243D01*
X81002211Y-37506502D01*
X80897349Y-37433077D01*
X80892367Y-37430754D01*
X80892362Y-37430751D01*
X80848493Y-37410295D01*
X80795208Y-37363378D01*
X80775747Y-37295100D01*
X80796289Y-37227140D01*
X80850312Y-37181075D01*
X80901743Y-37170100D01*
X82287229Y-37170100D01*
X82355350Y-37190102D01*
X82376324Y-37207005D01*
X86184630Y-41015311D01*
X86197016Y-41029723D01*
X86205549Y-41041318D01*
X86205554Y-41041323D01*
X86209892Y-41047218D01*
X86215470Y-41051957D01*
X86215473Y-41051960D01*
X86250168Y-41081435D01*
X86257684Y-41088365D01*
X86263379Y-41094060D01*
X86266261Y-41096340D01*
X86285651Y-41111681D01*
X86289055Y-41114472D01*
X86336703Y-41154952D01*
X86344685Y-41161733D01*
X86351201Y-41165061D01*
X86356250Y-41168428D01*
X86361379Y-41171595D01*
X86367116Y-41176134D01*
X86433275Y-41207055D01*
X86437169Y-41208958D01*
X86502208Y-41242169D01*
X86509316Y-41243908D01*
X86514959Y-41246007D01*
X86520722Y-41247924D01*
X86527350Y-41251022D01*
X86577240Y-41261399D01*
X86598812Y-41265886D01*
X86603096Y-41266856D01*
X86674010Y-41284208D01*
X86679612Y-41284556D01*
X86679615Y-41284556D01*
X86685164Y-41284900D01*
X86685162Y-41284936D01*
X86689155Y-41285175D01*
X86693347Y-41285549D01*
X86700515Y-41287040D01*
X86777920Y-41284946D01*
X86781328Y-41284900D01*
X89109629Y-41284900D01*
X89177750Y-41304902D01*
X89198724Y-41321805D01*
X89924620Y-42047701D01*
X89958646Y-42110013D01*
X89953581Y-42180828D01*
X89932047Y-42217787D01*
X89931692Y-42218210D01*
X89927802Y-42222100D01*
X89796477Y-42409651D01*
X89794154Y-42414633D01*
X89794151Y-42414638D01*
X89735499Y-42540419D01*
X89699716Y-42617157D01*
X89698294Y-42622465D01*
X89698293Y-42622467D01*
X89674598Y-42710899D01*
X89640457Y-42838313D01*
X89620502Y-43066400D01*
X89640457Y-43294487D01*
X89641881Y-43299800D01*
X89641881Y-43299802D01*
X89669040Y-43401158D01*
X89699716Y-43515643D01*
X89702039Y-43520624D01*
X89702039Y-43520625D01*
X89794151Y-43718162D01*
X89794154Y-43718167D01*
X89796477Y-43723149D01*
X89843611Y-43790463D01*
X89911979Y-43888102D01*
X89927802Y-43910700D01*
X90089700Y-44072598D01*
X90094208Y-44075755D01*
X90094211Y-44075757D01*
X90157892Y-44120347D01*
X90277251Y-44203923D01*
X90282233Y-44206246D01*
X90282238Y-44206249D01*
X90460249Y-44289256D01*
X90484757Y-44300684D01*
X90490065Y-44302106D01*
X90490067Y-44302107D01*
X90700598Y-44358519D01*
X90700600Y-44358519D01*
X90705913Y-44359943D01*
X90934000Y-44379898D01*
X90939475Y-44379419D01*
X91096913Y-44365645D01*
X91166518Y-44379634D01*
X91196990Y-44402071D01*
X91204595Y-44409676D01*
X91238621Y-44471988D01*
X91241500Y-44498771D01*
X91241500Y-48515500D01*
X91221498Y-48583621D01*
X91167842Y-48630114D01*
X91115500Y-48641500D01*
X91101866Y-48641500D01*
X91039684Y-48648255D01*
X90903295Y-48699385D01*
X90786739Y-48786739D01*
X90699385Y-48903295D01*
X90648255Y-49039684D01*
X90641500Y-49101866D01*
X90641500Y-50898134D01*
X90648255Y-50960316D01*
X90699385Y-51096705D01*
X90786739Y-51213261D01*
X90903295Y-51300615D01*
X90911704Y-51303767D01*
X90911705Y-51303768D01*
X91020960Y-51344726D01*
X91077725Y-51387367D01*
X91102425Y-51453929D01*
X91087218Y-51523278D01*
X91067825Y-51549759D01*
X90944590Y-51678717D01*
X90938104Y-51686727D01*
X90818098Y-51862649D01*
X90813000Y-51871623D01*
X90723338Y-52064783D01*
X90719775Y-52074470D01*
X90664389Y-52274183D01*
X90665912Y-52282607D01*
X90678292Y-52286000D01*
X93318344Y-52286000D01*
X93331875Y-52282027D01*
X93333180Y-52272947D01*
X93291214Y-52105875D01*
X93287894Y-52096124D01*
X93202972Y-51900814D01*
X93198105Y-51891739D01*
X93082426Y-51712926D01*
X93076136Y-51704757D01*
X92932293Y-51546677D01*
X92901241Y-51482831D01*
X92909635Y-51412333D01*
X92954812Y-51357564D01*
X92981256Y-51343895D01*
X93088297Y-51303767D01*
X93096705Y-51300615D01*
X93213261Y-51213261D01*
X93300615Y-51096705D01*
X93351745Y-50960316D01*
X93358500Y-50898134D01*
X93358500Y-49101866D01*
X93351745Y-49039684D01*
X93300615Y-48903295D01*
X93213261Y-48786739D01*
X93096705Y-48699385D01*
X92960316Y-48648255D01*
X92898134Y-48641500D01*
X92884500Y-48641500D01*
X92816379Y-48621498D01*
X92769886Y-48567842D01*
X92758500Y-48515500D01*
X92758500Y-44199470D01*
X92759933Y-44180520D01*
X92762099Y-44166285D01*
X92762099Y-44166281D01*
X92763199Y-44159051D01*
X92759932Y-44118878D01*
X92758915Y-44106382D01*
X92758500Y-44096167D01*
X92758500Y-44088107D01*
X92755209Y-44059880D01*
X92754778Y-44055521D01*
X92749454Y-43990062D01*
X92749453Y-43990059D01*
X92748860Y-43982764D01*
X92746604Y-43975800D01*
X92745417Y-43969861D01*
X92744030Y-43963990D01*
X92743182Y-43956719D01*
X92740686Y-43949843D01*
X92740684Y-43949834D01*
X92718275Y-43888102D01*
X92716865Y-43883998D01*
X92694352Y-43814501D01*
X92690556Y-43808246D01*
X92688057Y-43802787D01*
X92685329Y-43797339D01*
X92682833Y-43790463D01*
X92642805Y-43729410D01*
X92640481Y-43725727D01*
X92635956Y-43718269D01*
X92627524Y-43704375D01*
X92605504Y-43668086D01*
X92605501Y-43668082D01*
X92602595Y-43663293D01*
X92598886Y-43659094D01*
X92598883Y-43659089D01*
X92595197Y-43654916D01*
X92595224Y-43654892D01*
X92592571Y-43651900D01*
X92589868Y-43648667D01*
X92585856Y-43642548D01*
X92529617Y-43589272D01*
X92527175Y-43586894D01*
X92269671Y-43329390D01*
X92235645Y-43267078D01*
X92233245Y-43229313D01*
X92247019Y-43071875D01*
X92247498Y-43066400D01*
X92227543Y-42838313D01*
X92193402Y-42710899D01*
X92169707Y-42622467D01*
X92169706Y-42622465D01*
X92168284Y-42617157D01*
X92132501Y-42540419D01*
X92073849Y-42414638D01*
X92073846Y-42414633D01*
X92071523Y-42409651D01*
X91940198Y-42222100D01*
X91795405Y-42077307D01*
X91761379Y-42014995D01*
X91758500Y-41988212D01*
X91758500Y-41945341D01*
X91758999Y-41934140D01*
X91759150Y-41932450D01*
X91760640Y-41925285D01*
X91758546Y-41847879D01*
X91758500Y-41844472D01*
X91758500Y-41813107D01*
X91757985Y-41808687D01*
X91757183Y-41797509D01*
X91756504Y-41772378D01*
X91755857Y-41748479D01*
X91750313Y-41727567D01*
X91749441Y-41724279D01*
X91746081Y-41706581D01*
X91744030Y-41688991D01*
X91744030Y-41688990D01*
X91743182Y-41681719D01*
X91740685Y-41674839D01*
X91740683Y-41674832D01*
X91726449Y-41635619D01*
X91723095Y-41624920D01*
X91717861Y-41605181D01*
X91710526Y-41577516D01*
X91698717Y-41555446D01*
X91691373Y-41538990D01*
X91685331Y-41522344D01*
X91685330Y-41522342D01*
X91682833Y-41515463D01*
X91655945Y-41474452D01*
X91650221Y-41464811D01*
X91630539Y-41428026D01*
X91630537Y-41428023D01*
X91627082Y-41421566D01*
X91610510Y-41402802D01*
X91599578Y-41388478D01*
X91589867Y-41373666D01*
X91585856Y-41367548D01*
X91550248Y-41333816D01*
X91542472Y-41325763D01*
X91510000Y-41288996D01*
X91504022Y-41284771D01*
X91504014Y-41284764D01*
X91489555Y-41274545D01*
X91475626Y-41263124D01*
X91462773Y-41250948D01*
X91462765Y-41250942D01*
X91457453Y-41245910D01*
X91430964Y-41230524D01*
X91415051Y-41221281D01*
X91405616Y-41215224D01*
X91371540Y-41191141D01*
X91371532Y-41191137D01*
X91365560Y-41186916D01*
X91355819Y-41182990D01*
X91342342Y-41177559D01*
X91326154Y-41169646D01*
X91310837Y-41160749D01*
X91304510Y-41157074D01*
X91257580Y-41142860D01*
X91247007Y-41139137D01*
X91208302Y-41123538D01*
X91208296Y-41123536D01*
X91201511Y-41120802D01*
X91176761Y-41117037D01*
X91159209Y-41113067D01*
X91155229Y-41111861D01*
X91102643Y-41080362D01*
X90221411Y-40199130D01*
X90194566Y-40159370D01*
X90192609Y-40154771D01*
X90192608Y-40154769D01*
X90189743Y-40148036D01*
X90185407Y-40142143D01*
X90185404Y-40142139D01*
X90132841Y-40070714D01*
X90108575Y-40003994D01*
X90124232Y-39934745D01*
X90174843Y-39884955D01*
X90245303Y-39870511D01*
X90400600Y-39884098D01*
X90628687Y-39864143D01*
X90634000Y-39862719D01*
X90634002Y-39862719D01*
X90844533Y-39806307D01*
X90844535Y-39806306D01*
X90849843Y-39804884D01*
X90854825Y-39802561D01*
X91052362Y-39710449D01*
X91052367Y-39710446D01*
X91057349Y-39708123D01*
X91190175Y-39615117D01*
X91240389Y-39579957D01*
X91240392Y-39579955D01*
X91244900Y-39576798D01*
X91406798Y-39414900D01*
X91538123Y-39227349D01*
X91540446Y-39222367D01*
X91540449Y-39222362D01*
X91632561Y-39024825D01*
X91632561Y-39024824D01*
X91634884Y-39019843D01*
X91659841Y-38926705D01*
X91692719Y-38804002D01*
X91692719Y-38804000D01*
X91694143Y-38798687D01*
X91714098Y-38570600D01*
X91694143Y-38342513D01*
X91634884Y-38121357D01*
X91632561Y-38116375D01*
X91540449Y-37918838D01*
X91540446Y-37918833D01*
X91538123Y-37913851D01*
X91406798Y-37726300D01*
X91244900Y-37564402D01*
X91240392Y-37561245D01*
X91240389Y-37561243D01*
X91162211Y-37506502D01*
X91057349Y-37433077D01*
X91052367Y-37430754D01*
X91052362Y-37430751D01*
X90854825Y-37338639D01*
X90854824Y-37338639D01*
X90849843Y-37336316D01*
X90844535Y-37334894D01*
X90844533Y-37334893D01*
X90634002Y-37278481D01*
X90634000Y-37278481D01*
X90628687Y-37277057D01*
X90400600Y-37257102D01*
X90172513Y-37277057D01*
X90167200Y-37278481D01*
X90167198Y-37278481D01*
X89956667Y-37334893D01*
X89956665Y-37334894D01*
X89951357Y-37336316D01*
X89946376Y-37338639D01*
X89946375Y-37338639D01*
X89748838Y-37430751D01*
X89748833Y-37430754D01*
X89743851Y-37433077D01*
X89638989Y-37506502D01*
X89560811Y-37561243D01*
X89560808Y-37561245D01*
X89556300Y-37564402D01*
X89394402Y-37726300D01*
X89263077Y-37913851D01*
X89260754Y-37918833D01*
X89260751Y-37918838D01*
X89168639Y-38116375D01*
X89166316Y-38121357D01*
X89107057Y-38342513D01*
X89087102Y-38570600D01*
X89107057Y-38798687D01*
X89108481Y-38804000D01*
X89108481Y-38804002D01*
X89141360Y-38926705D01*
X89166316Y-39019843D01*
X89168639Y-39024824D01*
X89168639Y-39024825D01*
X89260751Y-39222362D01*
X89260754Y-39222367D01*
X89263077Y-39227349D01*
X89394402Y-39414900D01*
X89532307Y-39552805D01*
X89566333Y-39615117D01*
X89561268Y-39685932D01*
X89518721Y-39742768D01*
X89452201Y-39767579D01*
X89443212Y-39767900D01*
X87134771Y-39767900D01*
X87066650Y-39747898D01*
X87045676Y-39730995D01*
X83237370Y-35922689D01*
X83224984Y-35908277D01*
X83216451Y-35896682D01*
X83216446Y-35896677D01*
X83212108Y-35890782D01*
X83206530Y-35886043D01*
X83206527Y-35886040D01*
X83171832Y-35856565D01*
X83164316Y-35849635D01*
X83158621Y-35843940D01*
X83152480Y-35839082D01*
X83136349Y-35826319D01*
X83132945Y-35823528D01*
X83082897Y-35781009D01*
X83082895Y-35781008D01*
X83077315Y-35776267D01*
X83070799Y-35772939D01*
X83065750Y-35769572D01*
X83060621Y-35766405D01*
X83054884Y-35761866D01*
X82988725Y-35730945D01*
X82984825Y-35729039D01*
X82919792Y-35695831D01*
X82912684Y-35694092D01*
X82907041Y-35691993D01*
X82901278Y-35690076D01*
X82894650Y-35686978D01*
X82823183Y-35672113D01*
X82818899Y-35671143D01*
X82753446Y-35655127D01*
X82747990Y-35653792D01*
X82745010Y-35653607D01*
X82681425Y-35623937D01*
X82643531Y-35563899D01*
X82644111Y-35492905D01*
X82682982Y-35433495D01*
X82711463Y-35415196D01*
X82822511Y-35363414D01*
X82832007Y-35357931D01*
X83010467Y-35232972D01*
X83018875Y-35225916D01*
X83172916Y-35071875D01*
X83179972Y-35063467D01*
X83304931Y-34885007D01*
X83310414Y-34875511D01*
X83326529Y-34840951D01*
X83373446Y-34787666D01*
X83441723Y-34768205D01*
X83509683Y-34788747D01*
X83554919Y-34840951D01*
X83571151Y-34875762D01*
X83571154Y-34875767D01*
X83573477Y-34880749D01*
X83704802Y-35068300D01*
X83866700Y-35230198D01*
X83871208Y-35233355D01*
X83871211Y-35233357D01*
X83872568Y-35234307D01*
X84054251Y-35361523D01*
X84059233Y-35363846D01*
X84059238Y-35363849D01*
X84256775Y-35455961D01*
X84261757Y-35458284D01*
X84267065Y-35459706D01*
X84267067Y-35459707D01*
X84477598Y-35516119D01*
X84477600Y-35516119D01*
X84482913Y-35517543D01*
X84711000Y-35537498D01*
X84939087Y-35517543D01*
X84944400Y-35516119D01*
X84944402Y-35516119D01*
X85154933Y-35459707D01*
X85154935Y-35459706D01*
X85160243Y-35458284D01*
X85165225Y-35455961D01*
X85362762Y-35363849D01*
X85362767Y-35363846D01*
X85367749Y-35361523D01*
X85549432Y-35234307D01*
X85550789Y-35233357D01*
X85550792Y-35233355D01*
X85555300Y-35230198D01*
X85717198Y-35068300D01*
X85848523Y-34880749D01*
X85850846Y-34875767D01*
X85850849Y-34875762D01*
X85866805Y-34841543D01*
X85913722Y-34788258D01*
X85981999Y-34768797D01*
X86049959Y-34789339D01*
X86095195Y-34841543D01*
X86111151Y-34875762D01*
X86111154Y-34875767D01*
X86113477Y-34880749D01*
X86244802Y-35068300D01*
X86406700Y-35230198D01*
X86411208Y-35233355D01*
X86411211Y-35233357D01*
X86412568Y-35234307D01*
X86594251Y-35361523D01*
X86599233Y-35363846D01*
X86599238Y-35363849D01*
X86796775Y-35455961D01*
X86801757Y-35458284D01*
X86807065Y-35459706D01*
X86807067Y-35459707D01*
X87017598Y-35516119D01*
X87017600Y-35516119D01*
X87022913Y-35517543D01*
X87251000Y-35537498D01*
X87479087Y-35517543D01*
X87484400Y-35516119D01*
X87484402Y-35516119D01*
X87694933Y-35459707D01*
X87694935Y-35459706D01*
X87700243Y-35458284D01*
X87705225Y-35455961D01*
X87902762Y-35363849D01*
X87902767Y-35363846D01*
X87907749Y-35361523D01*
X88089432Y-35234307D01*
X88090789Y-35233357D01*
X88090792Y-35233355D01*
X88095300Y-35230198D01*
X88257198Y-35068300D01*
X88388523Y-34880749D01*
X88390846Y-34875767D01*
X88390849Y-34875762D01*
X88406805Y-34841543D01*
X88453722Y-34788258D01*
X88521999Y-34768797D01*
X88589959Y-34789339D01*
X88635195Y-34841543D01*
X88651151Y-34875762D01*
X88651154Y-34875767D01*
X88653477Y-34880749D01*
X88784802Y-35068300D01*
X88946700Y-35230198D01*
X88951208Y-35233355D01*
X88951211Y-35233357D01*
X88952568Y-35234307D01*
X89134251Y-35361523D01*
X89139233Y-35363846D01*
X89139238Y-35363849D01*
X89336775Y-35455961D01*
X89341757Y-35458284D01*
X89347065Y-35459706D01*
X89347067Y-35459707D01*
X89557598Y-35516119D01*
X89557600Y-35516119D01*
X89562913Y-35517543D01*
X89791000Y-35537498D01*
X90019087Y-35517543D01*
X90024400Y-35516119D01*
X90024402Y-35516119D01*
X90234933Y-35459707D01*
X90234935Y-35459706D01*
X90240243Y-35458284D01*
X90245225Y-35455961D01*
X90442762Y-35363849D01*
X90442767Y-35363846D01*
X90447749Y-35361523D01*
X90629432Y-35234307D01*
X90630789Y-35233357D01*
X90630792Y-35233355D01*
X90635300Y-35230198D01*
X90797198Y-35068300D01*
X90928523Y-34880749D01*
X90930846Y-34875767D01*
X90930849Y-34875762D01*
X90946805Y-34841543D01*
X90993722Y-34788258D01*
X91061999Y-34768797D01*
X91129959Y-34789339D01*
X91175195Y-34841543D01*
X91191151Y-34875762D01*
X91191154Y-34875767D01*
X91193477Y-34880749D01*
X91324802Y-35068300D01*
X91486700Y-35230198D01*
X91491208Y-35233355D01*
X91491211Y-35233357D01*
X91492568Y-35234307D01*
X91674251Y-35361523D01*
X91679233Y-35363846D01*
X91679238Y-35363849D01*
X91876775Y-35455961D01*
X91881757Y-35458284D01*
X91887065Y-35459706D01*
X91887067Y-35459707D01*
X92097598Y-35516119D01*
X92097600Y-35516119D01*
X92102913Y-35517543D01*
X92331000Y-35537498D01*
X92559087Y-35517543D01*
X92564400Y-35516119D01*
X92564402Y-35516119D01*
X92774933Y-35459707D01*
X92774935Y-35459706D01*
X92780243Y-35458284D01*
X92785225Y-35455961D01*
X92982762Y-35363849D01*
X92982767Y-35363846D01*
X92987749Y-35361523D01*
X93169432Y-35234307D01*
X93170789Y-35233357D01*
X93170792Y-35233355D01*
X93175300Y-35230198D01*
X93337198Y-35068300D01*
X93468523Y-34880749D01*
X93470846Y-34875767D01*
X93470849Y-34875762D01*
X93486805Y-34841543D01*
X93533722Y-34788258D01*
X93601999Y-34768797D01*
X93669959Y-34789339D01*
X93715195Y-34841543D01*
X93731151Y-34875762D01*
X93731154Y-34875767D01*
X93733477Y-34880749D01*
X93864802Y-35068300D01*
X94026700Y-35230198D01*
X94031208Y-35233355D01*
X94031211Y-35233357D01*
X94032568Y-35234307D01*
X94214251Y-35361523D01*
X94219233Y-35363846D01*
X94219238Y-35363849D01*
X94416775Y-35455961D01*
X94421757Y-35458284D01*
X94427065Y-35459706D01*
X94427067Y-35459707D01*
X94637598Y-35516119D01*
X94637600Y-35516119D01*
X94642913Y-35517543D01*
X94871000Y-35537498D01*
X95099087Y-35517543D01*
X95104400Y-35516119D01*
X95104402Y-35516119D01*
X95314933Y-35459707D01*
X95314935Y-35459706D01*
X95320243Y-35458284D01*
X95325225Y-35455961D01*
X95522762Y-35363849D01*
X95522767Y-35363846D01*
X95527749Y-35361523D01*
X95709432Y-35234307D01*
X95710789Y-35233357D01*
X95710792Y-35233355D01*
X95715300Y-35230198D01*
X95877198Y-35068300D01*
X96008523Y-34880749D01*
X96010846Y-34875767D01*
X96010849Y-34875762D01*
X96026805Y-34841543D01*
X96073722Y-34788258D01*
X96141999Y-34768797D01*
X96209959Y-34789339D01*
X96255195Y-34841543D01*
X96271151Y-34875762D01*
X96271154Y-34875767D01*
X96273477Y-34880749D01*
X96404802Y-35068300D01*
X96566700Y-35230198D01*
X96571208Y-35233355D01*
X96571211Y-35233357D01*
X96572568Y-35234307D01*
X96754251Y-35361523D01*
X96759233Y-35363846D01*
X96759238Y-35363849D01*
X96956775Y-35455961D01*
X96961757Y-35458284D01*
X96967065Y-35459706D01*
X96967067Y-35459707D01*
X97177598Y-35516119D01*
X97177600Y-35516119D01*
X97182913Y-35517543D01*
X97411000Y-35537498D01*
X97639087Y-35517543D01*
X97644400Y-35516119D01*
X97644402Y-35516119D01*
X97854933Y-35459707D01*
X97854935Y-35459706D01*
X97860243Y-35458284D01*
X97865225Y-35455961D01*
X98062762Y-35363849D01*
X98062767Y-35363846D01*
X98067749Y-35361523D01*
X98249432Y-35234307D01*
X98250789Y-35233357D01*
X98250792Y-35233355D01*
X98255300Y-35230198D01*
X98417198Y-35068300D01*
X98420357Y-35063789D01*
X98420359Y-35063787D01*
X98426387Y-35055177D01*
X98481844Y-35010847D01*
X98552463Y-35003537D01*
X98615824Y-35035568D01*
X98651809Y-35096768D01*
X98655601Y-35127446D01*
X98655601Y-36097348D01*
X109366000Y-36097348D01*
X109434121Y-36117350D01*
X109480614Y-36171006D01*
X109492000Y-36223348D01*
X109492000Y-59366000D01*
X109471998Y-59434121D01*
X109418342Y-59480614D01*
X109366000Y-59492000D01*
X634000Y-59492000D01*
X565879Y-59471998D01*
X519386Y-59418342D01*
X508000Y-59366000D01*
X508000Y-55047404D01*
X2736941Y-55047404D01*
X2737304Y-55051552D01*
X2737304Y-55051556D01*
X2740426Y-55087240D01*
X2763091Y-55346292D01*
X2764001Y-55350364D01*
X2764002Y-55350369D01*
X2827042Y-55632395D01*
X2828540Y-55639095D01*
X2829984Y-55643018D01*
X2829984Y-55643020D01*
X2854120Y-55708620D01*
X2932140Y-55920671D01*
X2934084Y-55924359D01*
X2934088Y-55924367D01*
X3030805Y-56107807D01*
X3072069Y-56186071D01*
X3245871Y-56430633D01*
X3450490Y-56650061D01*
X3453715Y-56652710D01*
X3658909Y-56821257D01*
X3682333Y-56840498D01*
X3937325Y-56998600D01*
X4210988Y-57121589D01*
X4347554Y-57162301D01*
X4494514Y-57206112D01*
X4494516Y-57206112D01*
X4498513Y-57207304D01*
X4502633Y-57207957D01*
X4502635Y-57207957D01*
X4621509Y-57226785D01*
X4794848Y-57254239D01*
X4837577Y-57256179D01*
X4887262Y-57258436D01*
X4887281Y-57258436D01*
X4888681Y-57258500D01*
X5076107Y-57258500D01*
X5299370Y-57243671D01*
X5303464Y-57242846D01*
X5303468Y-57242845D01*
X5444513Y-57214405D01*
X5593480Y-57184368D01*
X5877163Y-57086688D01*
X5880896Y-57084819D01*
X5880900Y-57084817D01*
X6141691Y-56954222D01*
X6141693Y-56954221D01*
X6145435Y-56952347D01*
X6338329Y-56821257D01*
X6390125Y-56786057D01*
X6390128Y-56786055D01*
X6393584Y-56783706D01*
X6617248Y-56583726D01*
X6716938Y-56467416D01*
X6809779Y-56359097D01*
X6809782Y-56359093D01*
X6812499Y-56355923D01*
X6814773Y-56352421D01*
X6814777Y-56352416D01*
X6973628Y-56107807D01*
X6973631Y-56107802D01*
X6975907Y-56104297D01*
X6980022Y-56095632D01*
X7085550Y-55873389D01*
X7104600Y-55833270D01*
X7114850Y-55801347D01*
X7195038Y-55551591D01*
X7195038Y-55551590D01*
X7196318Y-55547604D01*
X7244071Y-55282203D01*
X7248709Y-55256425D01*
X7248710Y-55256420D01*
X7249448Y-55252316D01*
X7249669Y-55247464D01*
X7262870Y-54956766D01*
X7262870Y-54956760D01*
X7263059Y-54952596D01*
X7262677Y-54948222D01*
X7237273Y-54657870D01*
X7236909Y-54653708D01*
X7219690Y-54576672D01*
X7172372Y-54364984D01*
X7172371Y-54364981D01*
X7171460Y-54360905D01*
X7165641Y-54345088D01*
X7098626Y-54162948D01*
X7067860Y-54079329D01*
X7065916Y-54075641D01*
X7065912Y-54075633D01*
X6929884Y-53817633D01*
X6929883Y-53817632D01*
X6927931Y-53813929D01*
X6754129Y-53569367D01*
X6549510Y-53349939D01*
X6317667Y-53159502D01*
X6062675Y-53001400D01*
X5789012Y-52878411D01*
X5566627Y-52812115D01*
X5505486Y-52793888D01*
X5505484Y-52793888D01*
X5501487Y-52792696D01*
X5497367Y-52792043D01*
X5497365Y-52792043D01*
X5354011Y-52769338D01*
X5205152Y-52745761D01*
X5162423Y-52743821D01*
X5112738Y-52741564D01*
X5112719Y-52741564D01*
X5111319Y-52741500D01*
X4923893Y-52741500D01*
X4700630Y-52756329D01*
X4696536Y-52757154D01*
X4696532Y-52757155D01*
X4555487Y-52785595D01*
X4406520Y-52815632D01*
X4122837Y-52913312D01*
X4119104Y-52915181D01*
X4119100Y-52915183D01*
X3876493Y-53036672D01*
X3854565Y-53047653D01*
X3606416Y-53216294D01*
X3603300Y-53219080D01*
X3594747Y-53226727D01*
X3382752Y-53416274D01*
X3380035Y-53419444D01*
X3380034Y-53419445D01*
X3194318Y-53636124D01*
X3187501Y-53644077D01*
X3185227Y-53647579D01*
X3185223Y-53647584D01*
X3026372Y-53892193D01*
X3024093Y-53895703D01*
X2895400Y-54166730D01*
X2894121Y-54170713D01*
X2894120Y-54170716D01*
X2840772Y-54336876D01*
X2803682Y-54452396D01*
X2802941Y-54456515D01*
X2754891Y-54723570D01*
X2750552Y-54747684D01*
X2750363Y-54751851D01*
X2750362Y-54751858D01*
X2737130Y-55043234D01*
X2736941Y-55047404D01*
X508000Y-55047404D01*
X508000Y-47740000D01*
X7608726Y-47740000D01*
X7628591Y-47992403D01*
X7629745Y-47997210D01*
X7629746Y-47997216D01*
X7660063Y-48123493D01*
X7687695Y-48238591D01*
X7689588Y-48243162D01*
X7689589Y-48243164D01*
X7781152Y-48464216D01*
X7784584Y-48472502D01*
X7916872Y-48688376D01*
X8081302Y-48880898D01*
X8273824Y-49045328D01*
X8489698Y-49177616D01*
X8494268Y-49179509D01*
X8494272Y-49179511D01*
X8719036Y-49272611D01*
X8723609Y-49274505D01*
X8808232Y-49294821D01*
X8964984Y-49332454D01*
X8964990Y-49332455D01*
X8969797Y-49333609D01*
X9222200Y-49353474D01*
X9474603Y-49333609D01*
X9479410Y-49332455D01*
X9479416Y-49332454D01*
X9636168Y-49294821D01*
X9720791Y-49274505D01*
X9725364Y-49272611D01*
X9950128Y-49179511D01*
X9950132Y-49179509D01*
X9954702Y-49177616D01*
X10170576Y-49045328D01*
X10363098Y-48880898D01*
X10527528Y-48688376D01*
X10659816Y-48472502D01*
X10663249Y-48464216D01*
X10754811Y-48243164D01*
X10754812Y-48243162D01*
X10756705Y-48238591D01*
X10784337Y-48123493D01*
X10814654Y-47997216D01*
X10814655Y-47997210D01*
X10815809Y-47992403D01*
X10835674Y-47740000D01*
X10815809Y-47487597D01*
X10756705Y-47241409D01*
X10713674Y-47137523D01*
X10661711Y-47012072D01*
X10661709Y-47012068D01*
X10659816Y-47007498D01*
X10527528Y-46791624D01*
X10363098Y-46599102D01*
X10170576Y-46434672D01*
X9954702Y-46302384D01*
X9950132Y-46300491D01*
X9950128Y-46300489D01*
X9725364Y-46207389D01*
X9725362Y-46207388D01*
X9720791Y-46205495D01*
X9636168Y-46185179D01*
X9479416Y-46147546D01*
X9479410Y-46147545D01*
X9474603Y-46146391D01*
X9222200Y-46126526D01*
X8969797Y-46146391D01*
X8964990Y-46147545D01*
X8964984Y-46147546D01*
X8808232Y-46185179D01*
X8723609Y-46205495D01*
X8719038Y-46207388D01*
X8719036Y-46207389D01*
X8494272Y-46300489D01*
X8494268Y-46300491D01*
X8489698Y-46302384D01*
X8273824Y-46434672D01*
X8081302Y-46599102D01*
X7916872Y-46791624D01*
X7784584Y-47007498D01*
X7782691Y-47012068D01*
X7782689Y-47012072D01*
X7730726Y-47137523D01*
X7687695Y-47241409D01*
X7628591Y-47487597D01*
X7608726Y-47740000D01*
X508000Y-47740000D01*
X508000Y-5047404D01*
X2736941Y-5047404D01*
X2763091Y-5346292D01*
X2764001Y-5350364D01*
X2764002Y-5350369D01*
X2827628Y-5635016D01*
X2828540Y-5639095D01*
X2932140Y-5920671D01*
X2934084Y-5924359D01*
X2934088Y-5924367D01*
X3030805Y-6107807D01*
X3072069Y-6186071D01*
X3245871Y-6430633D01*
X3450490Y-6650061D01*
X3682333Y-6840498D01*
X3937325Y-6998600D01*
X4210988Y-7121589D01*
X4385368Y-7173574D01*
X4494514Y-7206112D01*
X4494516Y-7206112D01*
X4498513Y-7207304D01*
X4502633Y-7207957D01*
X4502635Y-7207957D01*
X4621509Y-7226785D01*
X4794848Y-7254239D01*
X4837577Y-7256179D01*
X4887262Y-7258436D01*
X4887281Y-7258436D01*
X4888681Y-7258500D01*
X5076107Y-7258500D01*
X5299370Y-7243671D01*
X5303464Y-7242846D01*
X5303468Y-7242845D01*
X5444513Y-7214405D01*
X5593480Y-7184368D01*
X5877163Y-7086688D01*
X5880896Y-7084819D01*
X5880900Y-7084817D01*
X6141691Y-6954222D01*
X6141693Y-6954221D01*
X6145435Y-6952347D01*
X6393584Y-6783706D01*
X6617248Y-6583726D01*
X6619966Y-6580555D01*
X6809779Y-6359097D01*
X6809782Y-6359093D01*
X6812499Y-6355923D01*
X6814773Y-6352421D01*
X6814777Y-6352416D01*
X6973628Y-6107807D01*
X6973631Y-6107802D01*
X6975907Y-6104297D01*
X7104600Y-5833270D01*
X7196318Y-5547604D01*
X7249448Y-5252316D01*
X7258754Y-5047404D01*
X52736941Y-5047404D01*
X52763091Y-5346292D01*
X52764001Y-5350364D01*
X52764002Y-5350369D01*
X52827628Y-5635016D01*
X52828540Y-5639095D01*
X52932140Y-5920671D01*
X52934084Y-5924359D01*
X52934088Y-5924367D01*
X53030805Y-6107807D01*
X53072069Y-6186071D01*
X53245871Y-6430633D01*
X53450490Y-6650061D01*
X53682333Y-6840498D01*
X53937325Y-6998600D01*
X54210988Y-7121589D01*
X54385368Y-7173574D01*
X54494514Y-7206112D01*
X54494516Y-7206112D01*
X54498513Y-7207304D01*
X54502633Y-7207957D01*
X54502635Y-7207957D01*
X54621509Y-7226785D01*
X54794848Y-7254239D01*
X54837577Y-7256179D01*
X54887262Y-7258436D01*
X54887281Y-7258436D01*
X54888681Y-7258500D01*
X55076107Y-7258500D01*
X55299370Y-7243671D01*
X55303464Y-7242846D01*
X55303468Y-7242845D01*
X55444513Y-7214405D01*
X55593480Y-7184368D01*
X55877163Y-7086688D01*
X55880896Y-7084819D01*
X55880900Y-7084817D01*
X56141691Y-6954222D01*
X56141693Y-6954221D01*
X56145435Y-6952347D01*
X56393584Y-6783706D01*
X56617248Y-6583726D01*
X56619966Y-6580555D01*
X56809779Y-6359097D01*
X56809782Y-6359093D01*
X56812499Y-6355923D01*
X56814773Y-6352421D01*
X56814777Y-6352416D01*
X56973628Y-6107807D01*
X56973631Y-6107802D01*
X56975907Y-6104297D01*
X57104600Y-5833270D01*
X57196318Y-5547604D01*
X57249448Y-5252316D01*
X57258754Y-5047404D01*
X102736941Y-5047404D01*
X102763091Y-5346292D01*
X102764001Y-5350364D01*
X102764002Y-5350369D01*
X102827628Y-5635016D01*
X102828540Y-5639095D01*
X102932140Y-5920671D01*
X102934084Y-5924359D01*
X102934088Y-5924367D01*
X103030805Y-6107807D01*
X103072069Y-6186071D01*
X103245871Y-6430633D01*
X103450490Y-6650061D01*
X103682333Y-6840498D01*
X103937325Y-6998600D01*
X104210988Y-7121589D01*
X104385368Y-7173574D01*
X104494514Y-7206112D01*
X104494516Y-7206112D01*
X104498513Y-7207304D01*
X104502633Y-7207957D01*
X104502635Y-7207957D01*
X104621509Y-7226785D01*
X104794848Y-7254239D01*
X104837577Y-7256179D01*
X104887262Y-7258436D01*
X104887281Y-7258436D01*
X104888681Y-7258500D01*
X105076107Y-7258500D01*
X105299370Y-7243671D01*
X105303464Y-7242846D01*
X105303468Y-7242845D01*
X105444513Y-7214405D01*
X105593480Y-7184368D01*
X105877163Y-7086688D01*
X105880896Y-7084819D01*
X105880900Y-7084817D01*
X106141691Y-6954222D01*
X106141693Y-6954221D01*
X106145435Y-6952347D01*
X106393584Y-6783706D01*
X106617248Y-6583726D01*
X106619966Y-6580555D01*
X106809779Y-6359097D01*
X106809782Y-6359093D01*
X106812499Y-6355923D01*
X106814773Y-6352421D01*
X106814777Y-6352416D01*
X106973628Y-6107807D01*
X106973631Y-6107802D01*
X106975907Y-6104297D01*
X107104600Y-5833270D01*
X107196318Y-5547604D01*
X107249448Y-5252316D01*
X107263059Y-4952596D01*
X107236909Y-4653708D01*
X107192832Y-4456515D01*
X107172372Y-4364984D01*
X107172371Y-4364981D01*
X107171460Y-4360905D01*
X107067860Y-4079329D01*
X107065916Y-4075641D01*
X107065912Y-4075633D01*
X106929884Y-3817633D01*
X106929883Y-3817632D01*
X106927931Y-3813929D01*
X106754129Y-3569367D01*
X106549510Y-3349939D01*
X106317667Y-3159502D01*
X106062675Y-3001400D01*
X105789012Y-2878411D01*
X105575650Y-2814805D01*
X105505486Y-2793888D01*
X105505484Y-2793888D01*
X105501487Y-2792696D01*
X105497367Y-2792043D01*
X105497365Y-2792043D01*
X105378491Y-2773215D01*
X105205152Y-2745761D01*
X105162423Y-2743821D01*
X105112738Y-2741564D01*
X105112719Y-2741564D01*
X105111319Y-2741500D01*
X104923893Y-2741500D01*
X104700630Y-2756329D01*
X104696536Y-2757154D01*
X104696532Y-2757155D01*
X104555487Y-2785595D01*
X104406520Y-2815632D01*
X104122837Y-2913312D01*
X104119104Y-2915181D01*
X104119100Y-2915183D01*
X103858309Y-3045778D01*
X103854565Y-3047653D01*
X103606416Y-3216294D01*
X103382752Y-3416274D01*
X103380035Y-3419444D01*
X103380034Y-3419445D01*
X103254155Y-3566311D01*
X103187501Y-3644077D01*
X103185227Y-3647579D01*
X103185223Y-3647584D01*
X103074792Y-3817633D01*
X103024093Y-3895703D01*
X102895400Y-4166730D01*
X102803682Y-4452396D01*
X102750552Y-4747684D01*
X102736941Y-5047404D01*
X57258754Y-5047404D01*
X57263059Y-4952596D01*
X57236909Y-4653708D01*
X57192832Y-4456515D01*
X57172372Y-4364984D01*
X57172371Y-4364981D01*
X57171460Y-4360905D01*
X57067860Y-4079329D01*
X57065916Y-4075641D01*
X57065912Y-4075633D01*
X56929884Y-3817633D01*
X56929883Y-3817632D01*
X56927931Y-3813929D01*
X56754129Y-3569367D01*
X56549510Y-3349939D01*
X56317667Y-3159502D01*
X56062675Y-3001400D01*
X55789012Y-2878411D01*
X55575650Y-2814805D01*
X55505486Y-2793888D01*
X55505484Y-2793888D01*
X55501487Y-2792696D01*
X55497367Y-2792043D01*
X55497365Y-2792043D01*
X55378491Y-2773215D01*
X55205152Y-2745761D01*
X55162423Y-2743821D01*
X55112738Y-2741564D01*
X55112719Y-2741564D01*
X55111319Y-2741500D01*
X54923893Y-2741500D01*
X54700630Y-2756329D01*
X54696536Y-2757154D01*
X54696532Y-2757155D01*
X54555487Y-2785595D01*
X54406520Y-2815632D01*
X54122837Y-2913312D01*
X54119104Y-2915181D01*
X54119100Y-2915183D01*
X53858309Y-3045778D01*
X53854565Y-3047653D01*
X53606416Y-3216294D01*
X53382752Y-3416274D01*
X53380035Y-3419444D01*
X53380034Y-3419445D01*
X53254155Y-3566311D01*
X53187501Y-3644077D01*
X53185227Y-3647579D01*
X53185223Y-3647584D01*
X53074792Y-3817633D01*
X53024093Y-3895703D01*
X52895400Y-4166730D01*
X52803682Y-4452396D01*
X52750552Y-4747684D01*
X52736941Y-5047404D01*
X7258754Y-5047404D01*
X7263059Y-4952596D01*
X7236909Y-4653708D01*
X7192832Y-4456515D01*
X7172372Y-4364984D01*
X7172371Y-4364981D01*
X7171460Y-4360905D01*
X7067860Y-4079329D01*
X7065916Y-4075641D01*
X7065912Y-4075633D01*
X6929884Y-3817633D01*
X6929883Y-3817632D01*
X6927931Y-3813929D01*
X6754129Y-3569367D01*
X6549510Y-3349939D01*
X6317667Y-3159502D01*
X6062675Y-3001400D01*
X5789012Y-2878411D01*
X5575650Y-2814805D01*
X5505486Y-2793888D01*
X5505484Y-2793888D01*
X5501487Y-2792696D01*
X5497367Y-2792043D01*
X5497365Y-2792043D01*
X5378491Y-2773215D01*
X5205152Y-2745761D01*
X5162423Y-2743821D01*
X5112738Y-2741564D01*
X5112719Y-2741564D01*
X5111319Y-2741500D01*
X4923893Y-2741500D01*
X4700630Y-2756329D01*
X4696536Y-2757154D01*
X4696532Y-2757155D01*
X4555487Y-2785595D01*
X4406520Y-2815632D01*
X4122837Y-2913312D01*
X4119104Y-2915181D01*
X4119100Y-2915183D01*
X3858309Y-3045778D01*
X3854565Y-3047653D01*
X3606416Y-3216294D01*
X3382752Y-3416274D01*
X3380035Y-3419444D01*
X3380034Y-3419445D01*
X3254155Y-3566311D01*
X3187501Y-3644077D01*
X3185227Y-3647579D01*
X3185223Y-3647584D01*
X3074792Y-3817633D01*
X3024093Y-3895703D01*
X2895400Y-4166730D01*
X2803682Y-4452396D01*
X2750552Y-4747684D01*
X2736941Y-5047404D01*
X508000Y-5047404D01*
X508000Y-634000D01*
X528002Y-565879D01*
X581658Y-519386D01*
X634000Y-508000D01*
X109366000Y-508000D01*
X109434121Y-528002D01*
G37*
%TD.AperFunction*%
%TD*%
M02*
