%TF.GenerationSoftware,KiCad,Pcbnew,6.0.2+dfsg-1*%
%TF.CreationDate,2023-12-02T18:14:31+01:00*%
%TF.ProjectId,kicad_test_eurocard,6b696361-645f-4746-9573-745f6575726f,1.0*%
%TF.SameCoordinates,PX43b5fc0PY2ebae40*%
%TF.FileFunction,Soldermask,Top*%
%TF.FilePolarity,Negative*%
%FSLAX46Y46*%
G04 Gerber Fmt 4.6, Leading zero omitted, Abs format (unit mm)*
G04 Created by KiCad (PCBNEW 6.0.2+dfsg-1) date 2023-12-02 18:14:31*
%MOMM*%
%LPD*%
G01*
G04 APERTURE LIST*
%ADD10R,2.540000X2.540000*%
%ADD11C,2.540000*%
%ADD12O,1.600000X2.000000*%
%ADD13R,2.000000X2.000000*%
%ADD14C,3.500000*%
%ADD15R,2.200000X2.200000*%
%ADD16O,2.200000X2.200000*%
%ADD17R,1.700000X1.700000*%
%ADD18O,1.700000X1.700000*%
%ADD19R,1.050000X1.500000*%
%ADD20O,1.050000X1.500000*%
%ADD21R,1.500000X1.050000*%
%ADD22O,1.500000X1.050000*%
%ADD23C,1.600000*%
%ADD24O,1.600000X1.600000*%
%ADD25C,2.500000*%
G04 APERTURE END LIST*
D10*
%TO.C,U2*%
X9882600Y-13856400D03*
D11*
X9882600Y-31636400D03*
X50522600Y-31636400D03*
X50522600Y-13856400D03*
%TD*%
D12*
%TO.C,U3*%
X97411000Y-34024000D03*
X94871000Y-34024000D03*
X92331000Y-34024000D03*
X89791000Y-34024000D03*
X87251000Y-34024000D03*
X84711000Y-34024000D03*
X82171000Y-34024000D03*
X79631000Y-34024000D03*
X79631000Y-11164000D03*
X82171000Y-11164000D03*
X84711000Y-11164000D03*
X87251000Y-11164000D03*
X89791000Y-11164000D03*
X92331000Y-11164000D03*
X94871000Y-11164000D03*
D13*
X97411000Y-11164000D03*
%TD*%
D14*
%TO.C,REF\u002A\u002A*%
X5000000Y-5000000D03*
%TD*%
%TO.C,REF\u002A\u002A*%
X55000000Y-5000000D03*
%TD*%
%TO.C,REF\u002A\u002A*%
X105000000Y-5000000D03*
%TD*%
%TO.C,REF\u002A\u002A*%
X5000000Y-55000000D03*
%TD*%
%TO.C,REF\u002A\u002A*%
X55000000Y-55000000D03*
%TD*%
%TO.C,REF\u002A\u002A*%
X105000000Y-55000000D03*
%TD*%
D15*
%TO.C,D2*%
X59768200Y-24067200D03*
D16*
X59768200Y-13907200D03*
%TD*%
D15*
%TO.C,D3*%
X18848800Y-44869800D03*
D16*
X18848800Y-55029800D03*
%TD*%
D15*
%TO.C,D4*%
X9222200Y-37580000D03*
D16*
X9222200Y-47740000D03*
%TD*%
D17*
%TO.C,J1*%
X83000000Y-49000000D03*
D18*
X83000000Y-51540000D03*
X83000000Y-54080000D03*
%TD*%
D17*
%TO.C,J2*%
X3710400Y-37834000D03*
D18*
X3710400Y-40374000D03*
%TD*%
D17*
%TO.C,J3*%
X13083000Y-52439000D03*
D18*
X13083000Y-54979000D03*
%TD*%
D17*
%TO.C,J4*%
X48000000Y-51000000D03*
D18*
X48000000Y-53540000D03*
X48000000Y-56080000D03*
%TD*%
D17*
%TO.C,J5*%
X43000000Y-51000000D03*
D18*
X43000000Y-53540000D03*
X43000000Y-56080000D03*
%TD*%
D17*
%TO.C,J6*%
X38000000Y-51000000D03*
D18*
X38000000Y-53540000D03*
X38000000Y-56080000D03*
%TD*%
D17*
%TO.C,J7*%
X92000000Y-50000000D03*
D18*
X92000000Y-52540000D03*
%TD*%
D19*
%TO.C,Q2*%
X67083400Y-48908400D03*
D20*
X65813400Y-48908400D03*
X64543400Y-48908400D03*
%TD*%
D21*
%TO.C,Q3*%
X25681400Y-47587600D03*
D22*
X25681400Y-46317600D03*
X25681400Y-45047600D03*
%TD*%
D23*
%TO.C,R2*%
X66067400Y-44158600D03*
D24*
X66067400Y-33998600D03*
%TD*%
D23*
%TO.C,R3*%
X80240600Y-38570600D03*
D24*
X90400600Y-38570600D03*
%TD*%
D23*
%TO.C,R4*%
X90934000Y-43066400D03*
D24*
X80774000Y-43066400D03*
%TD*%
D23*
%TO.C,R5*%
X34000000Y-46000000D03*
D24*
X34000000Y-56160000D03*
%TD*%
D25*
%TO.C,REF\u002A\u002A*%
X45462026Y-31032825D03*
%TD*%
%TO.C,REF\u002A\u002A*%
X14945926Y-14490620D03*
%TD*%
M02*
